<?xml version="1.0" standalone="no"?>
<!DOCTYPE svg PUBLIC "-//W3C//DTD SVG 1.1//EN" "http://www.w3.org/Graphics/SVG/1.1/DTD/svg11.dtd" >
<svg>
<metadata>
Created by FontForge 20090622 at Wed Aug 10 03:51:17 2016
 By deploy user
Copyright (c) 2013 by S-Core Co., Ltd.. All rights reserved.
</metadata>
<defs>
<font id="CoreCircusPierrot1" horiz-adv-x="2040" >
  <font-face 
    font-family="Core Circus Pierrot1"
    font-weight="400"
    font-stretch="normal"
    units-per-em="2000"
    panose-1="2 11 7 3 3 3 2 2 2 4"
    ascent="1600"
    descent="-400"
    x-height="1430"
    cap-height="1430"
    bbox="128 -670 2782 2094"
    underline-thickness="48"
    underline-position="-412"
    unicode-range="U+0008-U+E019"
  />
<missing-glyph horiz-adv-x="700" 
 />
    <glyph glyph-name=".notdef" horiz-adv-x="700" 
 />
    <glyph glyph-name=".null" horiz-adv-x="0" 
 />
    <glyph glyph-name=".null" horiz-adv-x="0" 
 />
    <glyph glyph-name=".null" horiz-adv-x="0" 
 />
    <glyph glyph-name="nonmarkingreturn" horiz-adv-x="666" 
 />
    <glyph glyph-name="CR" unicode="&#x9;" horiz-adv-x="474" 
 />
    <glyph glyph-name="CR" unicode="&#xd;" horiz-adv-x="474" 
 />
    <glyph glyph-name="space" unicode=" " horiz-adv-x="700" 
 />
    <glyph glyph-name="exclam" unicode="!" horiz-adv-x="1080" 
d="M596 -154l-186 136q-60 46 -60 156q0 152 118 184l-64 48l-38 744v316h348l224 -166v-320l-38 -738h-112l72 -52q54 -40 74 -83.5t20 -102.5q0 -186 -184 -186q-51 0 -87.5 14.5t-86.5 49.5zM684 1400h-288v-284l36 -716h216l36 716v284zM540 -24q160 0 160 162t-160 162
t-160 -162t160 -162z" />
    <glyph glyph-name="quotedbl" unicode="&#x22;" horiz-adv-x="1360" 
d="M734 1400l30 -592h200q76 258 76 592h-306zM320 1400l30 -592h200q76 258 76 592h-306zM322 778l-34 652h368l48 -36l-2 36h368l224 -166q0 -371 -82 -650h-254l-134 98l-26 -98h-254z" />
    <glyph glyph-name="numbersign" unicode="#" horiz-adv-x="1888" 
d="M620 -170l-222 166l30 170l-168 128v286h234l18 108l-172 132v286h248l60 348l324 -50l162 -122l32 172l324 -50l226 -168l-32 -178l168 -126v-278h-236l-18 -114l174 -138v-274h-246l-60 -348l-328 50l-162 122l-28 -172zM796 550l50 300h246l-52 -300h-244zM1364 850
h234v226h-194l52 304l-266 40l-60 -344h-244l52 304l-266 40l-60 -344h-242v-226h204l-52 -300h-232v-226h194l-52 -304l266 -40l58 344h246l-52 -304l266 -40l58 344h244v226h-204z" />
    <glyph glyph-name="dollar" unicode="$" horiz-adv-x="1486" 
d="M854 846q-142 65 -192 109t-50 103q0 56 47 87t139 31q143 0 260 -78l88 228q-121 72 -278 92v212h-222v-217q-157 -29 -241.5 -126.5t-84.5 -242.5q0 -142 79 -243t280 -188q134 -58 189.5 -109.5t55.5 -126.5q0 -72 -60 -112.5t-166 -40.5q-82 0 -167.5 26t-152.5 72
l-88 -232q160 -96 356 -112v-208h222v221q169 34 258.5 141t89.5 268q0 154 -86.5 257t-275.5 189zM870 870q209 -103 395 -262q110 -94 157.5 -178.5t47.5 -199.5q0 -167 -88.5 -279t-256.5 -151v-227h-283l-226 167v105q-63 24 -129 64l-234 168l109 293q78 -54 168.5 -85
t167.5 -31q91 0 143.5 32.5t52.5 90.5q0 23 -8 45q-125 66 -185 109l-181 129q-126 77 -178 169t-52 215q0 151 84.5 255t241.5 139v222h282l227 -169v-119q20 -10 58 -32l225 -169l-107 -281q-134 90 -273 90q-79 0 -119 -24.5t-40 -67.5q0 -13 1 -18z" />
    <glyph glyph-name="percent" unicode="%" horiz-adv-x="2060" 
d="M302 946q-42 75 -42 160q0 141 103.5 237.5t246.5 96.5q68 0 122 -20t114 -64l202 -154q60 -46 90 -96l228 356l212 -132l224 -166l-344 -536q69 -3 119 -21.5t109 -62.5l202 -154q136 -102 136 -266q0 -139 -99 -233.5t-245 -94.5q-120 0 -230 78l-190 136
q-42 31 -70 58.5t-48 65.5l-230 -356l-440 292l346 538q-110 6 -208 78l-190 136q-42 31 -70 58.5t-48 65.5zM1770 294q0 128 -94.5 216t-225.5 88t-225.5 -88t-94.5 -216t94.5 -216t225.5 -88t225.5 88t94.5 216zM930 1106q0 128 -94.5 216t-225.5 88t-225.5 -88
t-94.5 -216t94.5 -216t225.5 -88t225.5 88t94.5 216zM1334 294q0 50 34 84t82 34t82 -34t34 -84t-34 -84t-82 -34t-82 34t-34 84zM494 1106q0 50 34 84t82 34t82 -34t34 -84t-34 -84t-82 -34t-82 34t-34 84zM514 80l160 -100l862 1340l-160 100z" />
    <glyph glyph-name="ampersand" unicode="&#x26;" horiz-adv-x="1782" 
d="M818 194q-107 0 -173.5 44.5t-66.5 109.5q0 116 138 186l332 -286q-96 -54 -230 -54zM650 1038q0 78 45 126t117 48q80 0 125 -47.5t45 -138.5q0 -70 -40.5 -140.5t-121.5 -115.5l-6 6q-83 71 -123.5 131.5t-40.5 130.5zM1254 1026q0 178 -120.5 288t-321.5 110
q-193 0 -314.5 -111t-121.5 -279q0 -102 43.5 -187t148.5 -185q-278 -109 -278 -334q0 -111 73.5 -192t190.5 -119.5t260 -38.5q241 0 414 114l170 -144l182 178l-172 146q90 135 114 320l-258 44q-13 -119 -50 -200l-240 204q127 58 203.5 162t76.5 224zM994 254l-76 64
q-56 -42 -78 -94q80 3 154 30zM946 982q-15 -13 -30 -42q-12 -27 -12 -52q33 45 42 94zM1844 -44l-222 -218l-192 138q-171 -92 -386 -92q-144 0 -251.5 37.5t-248.5 138.5l-158 112q-62 44 -94 115t-32 141q0 219 256 342q-94 94 -132 177t-38 187q0 182 130 301t336 119
q184 0 314 -94l168 -122q214 -156 214 -382q0 -117 -68 -222l114 -18l226 -166q-25 -213 -112 -354z" />
    <glyph glyph-name="quotesingle" unicode="'" horiz-adv-x="986" 
d="M340 1400l30 -592h200q76 258 76 592h-306zM342 778l-34 652h368l224 -166q0 -371 -82 -650h-254z" />
    <glyph glyph-name="parenleft" unicode="(" horiz-adv-x="1168" 
d="M360 700q0 -515 372 -878l166 130q-282 316 -282 748t282 748l-166 130q-372 -363 -372 -878zM956 -382l-226 166q-400 388 -400 916t400 916l432 -336q-292 -326 -292 -750t292 -750z" />
    <glyph glyph-name="parenright" unicode=")" horiz-adv-x="1168" 
d="M664 -384l-226 168l-210 166q294 328 294 750t-294 750l210 166l230 -178q394 -382 394 -908q0 -253 -98.5 -486t-299.5 -428zM808 700q0 515 -372 878l-166 -130q282 -316 282 -748t-282 -748l166 -130q372 363 372 878z" />
    <glyph glyph-name="asterisk" unicode="*" horiz-adv-x="1528" 
d="M474 494l-218 162q-11 172 98 308l294 -140q-3 18 -7 55t-7 55q-14 98 -28 210q80 36 160 36t160 -36l226 -168l-6 -26l32 14l212 -158q125 -146 110 -316l-322 -62l228 -238q-90 -145 -254 -184l-222 168l-94 -166q-175 66 -360 214q-88 70 -128 138zM766 518l172 -310
q133 32 208 150l-246 258l348 66q11 133 -78 244l-322 -154l46 352q-61 26 -128 26t-128 -26l46 -352l-322 154q-87 -107 -78 -244l348 -66l-246 -258q80 -119 208 -150z" />
    <glyph glyph-name="plus" unicode="+" horiz-adv-x="1668" 
d="M702 582v-380h264v380h352v224h-352v376h-264v-376h-352v-224h352zM320 552v284h352v376h324l224 -166v-210h128l224 -166v-282h-352v-380h-326l-222 164v216h-130z" />
    <glyph glyph-name="comma" unicode="," horiz-adv-x="1100" 
d="M550 300q-160 0 -160 -162q0 -135 112 -156q-9 -71 -59 -136t-129 -114l62 -96q157 77 245.5 208.5t88.5 293.5t-160 162zM870 154q54 -40 74 -83.5t20 -102.5q0 -171 -100.5 -314t-277.5 -222l-222 166l-92 144q75 38 127 97.5t67 122.5q-56 21 -81 62.5t-25 113.5
q0 192 190 192q80 0 142 -44z" />
    <glyph glyph-name="hyphen" unicode="-" horiz-adv-x="1202" 
d="M310 572h582v244h-582v-244zM280 542v304h642l224 -166v-302h-644z" />
    <glyph glyph-name="period" unicode="." horiz-adv-x="1100" 
d="M550 300q-160 0 -160 -162t160 -162t160 162t-160 162zM550 330q80 0 142 -44l178 -132q54 -40 74 -83.5t20 -102.5q0 -186 -184 -186q-51 0 -87.5 14.5t-86.5 49.5l-186 136q-60 46 -60 156q0 192 190 192z" />
    <glyph glyph-name="slash" unicode="/" horiz-adv-x="1530" 
d="M1010 1548l-720 -1618l230 -96l720 1618zM250 -86l744 1674l286 -120l226 -166l-744 -1670l-304 128z" />
    <glyph glyph-name="zero" unicode="0" horiz-adv-x="1864" 
d="M932 254q146 0 241 118.5t95 327.5q0 163 -64 278q-28 4 -42 4q-149 0 -245.5 -120t-96.5 -332q0 -160 56 -272q36 -4 56 -4zM722 -84l-152 110q-326 235 -326 674q0 161 47 298.5t133 239t217 159t291 57.5q238 0 412 -128l166 -122q115 -85 185.5 -173.5t109.5 -212.5
t39 -288q0 -159 -46.5 -295.5t-132 -237.5t-215 -158t-288.5 -57q-255 0 -440 134zM932 224q-160 0 -263 126t-103 350t103 350t263 126t263 -126t103 -350t-103 -350t-263 -126zM932 -24q203 0 354 96t227.5 259t76.5 369t-76.5 369t-227.5 259t-354 96t-354 -96
t-227.5 -259t-76.5 -369t76.5 -369t227.5 -259t354 -96z" />
    <glyph glyph-name="one" unicode="1" horiz-adv-x="1438" 
d="M406 856l294 218v-1074h288v1400h-252l-476 -352zM670 -30v712l-46 -34l-226 166l-180 242l508 374h292l224 -166v-1458h-350z" />
    <glyph glyph-name="two" unicode="2" horiz-adv-x="1642" 
d="M310 0h1002v244h-554q148 95 244 184q154 141 220 256.5t66 265.5q0 221 -145.5 347.5t-404.5 126.5q-121 0 -239.5 -27t-208.5 -75l88 -228q66 38 151.5 60t166.5 22q143 0 221.5 -57t78.5 -165q0 -98 -45 -180.5t-159 -191.5q-267 -255 -482 -398v-184zM280 -30v230
q227 151 492 404q103 100 148.5 182t45.5 168v26q-6 0 -19.5 1t-20.5 1q-77 0 -171 -27.5t-169 -70.5l-224 166l-110 286q106 56 233.5 87t252.5 31q132 0 233.5 -31.5t190.5 -96.5l170 -124q210 -152 210 -422q0 -142 -62.5 -259t-195.5 -247h58l224 -166v-302h-1064z" />
    <glyph glyph-name="three" unicode="3" horiz-adv-x="1658" 
d="M1404 534l58 -42q66 -47 103 -119.5t37 -158.5q0 -200 -152 -316t-412 -116q-134 0 -285.5 32t-284.5 94l-206 152l110 288q197 -94 392 -94q245 0 260 122q-54 6 -122 6h-148l-222 164v304h144q152 0 234 31t94 101h-22q-79 0 -171 -25t-169 -67l-226 166l-110 286
q217 112 490 112q249 0 430 -134l170 -124q186 -135 186 -338q0 -217 -178 -324zM1110 698q218 94 218 330q0 179 -149 287.5t-383 108.5q-263 0 -452 -96l88 -228q139 76 320 76q284 0 284 -172q0 -97 -90.5 -140.5t-269.5 -43.5h-114v-244h110q193 0 288.5 -43t95.5 -137
q0 -86 -70 -129t-222 -43q-206 0 -376 82l-88 -228q224 -102 508 -102q250 0 395 109t145 299q0 113 -64.5 196t-173.5 118z" />
    <glyph glyph-name="four" unicode="4" horiz-adv-x="1684" 
d="M614 476l298 842l-272 92l-350 -994v-184h686v-232h288v232h170v244h-170v354h-288v-354h-362zM946 -30v68h-464l-222 164v218l362 1028l328 -112l226 -166l-112 -310h230l224 -166v-228l170 -124v-304h-170v-232h-350z" />
    <glyph glyph-name="five" unicode="5" horiz-adv-x="1682" 
d="M420 310l-90 -232q195 -102 460 -102q280 0 436 132t156 360q0 140 -65.5 247t-171.5 161t-233 54q-138 0 -226 -44v270h600v244h-888v-720l98 -54q56 34 137.5 55t168.5 21q134 0 211 -61.5t77 -178.5q0 -115 -84.5 -176.5t-235.5 -61.5q-82 0 -179.5 23t-170.5 63z
M1316 1430l224 -166v-302h-600v-2q93 -4 159.5 -30.5t144.5 -83.5l174 -128q113 -83 165.5 -185.5t52.5 -234.5q0 -239 -162.5 -377.5t-453.5 -138.5q-134 0 -272 32.5t-250 97.5l-206 152l112 288q83 -46 185 -72t181 -26q137 0 213.5 53.5t76.5 154.5q0 18 -4 46h-24
q-162 0 -292 -72l-372 226v768h948z" />
    <glyph glyph-name="six" unicode="6" horiz-adv-x="1718" 
d="M638 470q0 109 75.5 177.5t178.5 68.5t178.5 -68.5t75.5 -177.5t-75.5 -177.5t-178.5 -68.5t-178.5 68.5t-75.5 177.5zM1234 1118l88 228q-159 78 -370 78q-250 0 -406.5 -121t-207.5 -339q-28 -120 -28 -292q0 -171 46 -316q60 -187 211 -283.5t339 -96.5q145 0 266 60
t193.5 173.5t72.5 258.5q0 114 -42.5 208t-112.5 154t-158 93t-181 33q-104 0 -194.5 -40.5t-141.5 -105.5q8 176 96.5 271t257.5 95q143 0 272 -58zM738 -92l-174 128q-89 66 -145.5 136.5t-90.5 173.5q-48 147 -48 326q0 191 28 300q57 221 223.5 351.5t420.5 130.5
q99 0 208 -23.5t200 -68.5l226 -166l-108 -280q-145 66 -286 66q-54 0 -110 -14q116 -30 234 -118l166 -122q210 -154 210 -430q0 -152 -75.5 -271t-202 -182t-278.5 -63q-104 0 -211 33.5t-187 92.5zM892 300q0 -32 4 -46q90 2 155 61.5t65 154.5q0 28 -6 52
q-91 -6 -154.5 -66.5t-63.5 -155.5z" />
    <glyph glyph-name="seven" unicode="7" horiz-adv-x="1566" 
d="M800 0l496 1216v184h-996v-244h678l-488 -1156h310zM444 -30l418 992h-370l-222 164v304h1056l224 -166v-224l-504 -1234h-380z" />
    <glyph glyph-name="eight" unicode="8" horiz-adv-x="1712" 
d="M876 828q-98 0 -161 49t-63 125t63 125t161 49t161 -49t63 -125t-63 -125t-161 -49zM876 224q-134 0 -214 50.5t-80 127.5t80 127.5t214 50.5t214 -50.5t80 -127.5t-80 -127.5t-214 -50.5zM876 1424q-223 0 -367.5 -116.5t-144.5 -289.5q0 -100 48 -177t128 -123
q-117 -42 -183.5 -128.5t-66.5 -199.5q0 -120 76 -215t209.5 -147t300.5 -52t300.5 52t209.5 147t76 215q0 113 -66.5 199.5t-183.5 128.5q80 46 128 123t48 177q0 173 -144.5 289.5t-367.5 116.5zM1498 556l68 -48q72 -51 111 -125.5t39 -162.5q0 -192 -173 -315t-437 -123
q-164 0 -271.5 28t-214.5 104l-142 102q-218 158 -218 374q0 108 57.5 195t160.5 139q-144 107 -144 294q0 186 153 311t389 125q123 0 219 -33.5t185 -98.5l170 -124q192 -139 192 -350q0 -182 -144 -292zM876 254q111 0 181 36.5t81 93.5q-10 2 -32 2q-113 0 -184.5 -36.5
t-83.5 -95.5h38zM1068 978q-63 -8 -107.5 -40t-54.5 -78q65 6 109 38t53 80z" />
    <glyph glyph-name="nine" unicode="9" horiz-adv-x="1718" 
d="M1080 930q0 -109 -75.5 -177.5t-178.5 -68.5t-178.5 68.5t-75.5 177.5t75.5 177.5t178.5 68.5t178.5 -68.5t75.5 -177.5zM484 282l-88 -228q159 -78 370 -78q250 0 406.5 121t207.5 339q28 120 28 292q0 171 -46 316q-60 187 -211 283.5t-339 96.5q-145 0 -266 -60
t-193.5 -173.5t-72.5 -258.5q0 -114 42.5 -208t112.5 -154t158 -93t181 -33q104 0 194.5 40.5t141.5 105.5q-8 -176 -96.5 -271t-257.5 -95q-143 0 -272 58zM358 38l108 284q145 -68 290 -68q60 0 108 12q-111 25 -230 112l-142 104q-113 84 -177.5 190t-64.5 260
t76.5 274.5t204 184t281.5 63.5q219 0 388 -124l180 -132q96 -71 150 -146t84 -170q48 -147 48 -324q0 -189 -28 -298q-55 -220 -220.5 -349t-417.5 -129q-102 0 -223 28t-213 80zM1050 930q0 28 -6 52q-91 -6 -154.5 -66.5t-63.5 -155.5q0 -32 4 -46q90 2 155 61.5
t65 154.5z" />
    <glyph glyph-name="colon" unicode=":" horiz-adv-x="1100" 
d="M550 300q-160 0 -160 -162t160 -162t160 162t-160 162zM550 330q80 0 142 -44l178 -132q54 -40 74 -83.5t20 -102.5q0 -186 -184 -186q-51 0 -87.5 14.5t-86.5 49.5l-186 136q-60 46 -60 156q0 192 190 192zM550 1060q-160 0 -160 -162t160 -162t160 162t-160 162z
M550 1090q80 0 142 -44l178 -132q54 -40 74 -83.5t20 -102.5q0 -186 -184 -186q-51 0 -87.5 14.5t-86.5 49.5l-186 136q-60 46 -60 156q0 192 190 192z" />
    <glyph glyph-name="semicolon" unicode=";" horiz-adv-x="1100" 
d="M550 1060q-160 0 -160 -162t160 -162t160 162t-160 162zM550 1090q80 0 142 -44l178 -132q54 -40 74 -83.5t20 -102.5q0 -186 -184 -186q-53 0 -90.5 14t-83.5 50l-186 136q-60 43 -60 156q0 192 190 192zM550 300q-160 0 -160 -162q0 -135 112 -156q-9 -71 -59 -136
t-129 -114l62 -96q157 77 245.5 208.5t88.5 293.5t-160 162zM870 154q54 -40 74 -83.5t20 -102.5q0 -171 -100.5 -314t-277.5 -222l-222 166l-92 144q75 38 127 97.5t67 122.5q-56 21 -81 62.5t-25 113.5q0 192 190 192q80 0 142 -44z" />
    <glyph glyph-name="less" unicode="&#x3c;" horiz-adv-x="1668" 
d="M360 746v-112l848 -470l100 194l-588 332l588 332l-100 194zM1040 542l308 -172l226 -166l-112 -218l-1132 628v152l890 492l220 -162l130 -254z" />
    <glyph glyph-name="equal" unicode="=" horiz-adv-x="1668" 
d="M350 356h968v222h-968v-222zM350 808h968v222h-968v-222zM320 778v282h1028l224 -166v-280h-1030zM320 326v282h1028l224 -166v-280h-1030z" />
    <glyph glyph-name="greater" unicode="&#x3e;" horiz-adv-x="1668" 
d="M1308 634v112l-848 470l-100 -194l588 -332l-588 -332l100 -194zM320 1010l128 248l890 -492l224 -166v-152l-888 -492l-226 166l-128 248l566 318z" />
    <glyph glyph-name="question" unicode="?" horiz-adv-x="1440" 
d="M566 314l-76 56v120q0 115 39 189.5t133 140.5q117 83 138 158q-95 -15 -202 -70l-226 164l-110 286q192 96 422 96q200 0 332 -98l174 -128q99 -72 146.5 -160t47.5 -208q0 -237 -214 -386q-68 -46 -92 -81.5t-24 -94.5v-90h-148l74 -54q54 -40 74 -83.5t20 -102.5
q0 -186 -184 -186q-51 0 -87.5 14.5t-86.5 49.5l-186 136q-60 46 -60 156q0 138 96 176zM300 1342l88 -228q115 64 250 64q89 0 144.5 -38t55.5 -114q0 -67 -38.5 -120.5t-119.5 -109.5q-86 -61 -123 -130t-37 -176v-90h280v66q0 67 25.5 105.5t100.5 90.5q204 140 204 366
q0 181 -123 288.5t-323 107.5q-217 0 -384 -82zM660 300q-160 0 -160 -162t160 -162t160 162t-160 162z" />
    <glyph glyph-name="at" unicode="@" horiz-adv-x="1990" 
d="M892 724q0 66 31.5 104t88.5 38q62 0 98 -47.5t36 -138.5v-204q-123 15 -188.5 82t-65.5 166zM1140 146q-288 0 -475 160.5t-187 413.5q0 243 145 388.5t387 145.5q231 0 366.5 -126.5t135.5 -325.5q0 -110 -42 -189t-122 -115v198q0 157 -91 253.5t-251 96.5
q-148 0 -242 -89.5t-94 -236.5q0 -173 143.5 -286.5t382.5 -113.5q225 0 364.5 128.5t139.5 353.5q0 176 -89 318t-247 223t-354 81q-151 0 -283.5 -51.5t-229 -142.5t-152 -223t-55.5 -287q0 -162 65.5 -302t177.5 -236.5t266 -151t327 -54.5q214 0 382 60l-52 166
q-127 -56 -316 -56zM1146 176q-55 23 -110 62l-178 120q-71 51 -122 104q21 -122 92 -224q140 -62 318 -62zM1284 978l198 -148q-10 117 -68 206q-81 24 -174 24q-62 0 -102 -8q78 -17 146 -74zM784 -48l-226 164q-141 103 -219.5 258.5t-78.5 345.5q0 161 58 299t158 233
t238 148.5t296 53.5q154 0 275.5 -44.5t240.5 -131.5l132 -96q142 -102 219 -243t77 -307q0 -189 -95.5 -314t-260.5 -170l104 -82l66 -214q-198 -70 -412 -70q-162 0 -310.5 44.5t-261.5 125.5z" />
    <glyph glyph-name="A" unicode="A" horiz-adv-x="1784" 
d="M682 448l210 544l210 -544h-420zM1194 208l80 -208h300l-566 1400h-232l-566 -1400h300l80 208h604zM1254 -30l-18 44h-400l-80 -208h-368l-222 164l590 1460h272l218 -160l592 -1464h-362zM1058 478l-22 54l-22 -54h44z" />
    <glyph glyph-name="B" unicode="B" horiz-adv-x="1672" 
d="M658 566h248q110 0 159 -42t49 -122t-49 -121t-159 -41h-248v326zM1060 984q0 -87 -50.5 -132.5t-163.5 -45.5h-188v354h188q113 0 163.5 -44.5t50.5 -131.5zM370 1400v-1400h512q273 0 401.5 98t128.5 292q0 111 -67 198t-175 120q86 39 132 120.5t46 171.5
q0 176 -130.5 288t-361.5 112h-486zM340 -30v1460h516q229 0 384 -116l206 -154q77 -58 116.5 -143.5t39.5 -186.5q0 -74 -38.5 -153t-101.5 -131l62 -44q65 -47 103.5 -122t38.5 -160q0 -206 -134.5 -310t-419.5 -104h-550zM912 372v-102q151 0 170 102h-170zM912 966v-124
q108 19 118 124h-118z" />
    <glyph glyph-name="C" unicode="C" horiz-adv-x="1702" 
d="M270 700q0 -164 61 -301.5t164.5 -229t239.5 -142.5t287 -51q229 0 380 78l-88 230q-117 -60 -286 -60q-90 0 -172.5 31.5t-148.5 89.5t-105.5 150.5t-39.5 204.5q0 208 129 342t321 134q180 0 292 -56l88 228q-169 76 -386 76q-147 0 -281 -52.5t-235 -145.5
t-160.5 -230t-59.5 -296zM1330 326l220 -162l112 -292q-172 -90 -410 -90q-139 0 -268.5 38t-227.5 112l-240 182q-131 100 -203.5 252t-72.5 334q0 166 62 308.5t167 239.5t244.5 151.5t292.5 54.5q232 0 424 -88l226 -166l-110 -284q-135 66 -304 66q-182 0 -304 -127
t-122 -325q0 -144 66 -254q63 -22 146 -22q164 0 302 72z" />
    <glyph glyph-name="D" unicode="D" horiz-adv-x="1868" 
d="M1598 700q0 218 -95.5 377.5t-266.5 241t-398 81.5h-468v-1400h468q228 0 398.5 81t266 240.5t95.5 378.5zM1306 698q0 -218 -130.5 -336t-335.5 -118h-182v912h182q99 0 183.5 -29t147.5 -85t99 -144t36 -200zM340 -30v1460h498q166 0 301.5 -42.5t256.5 -133.5
l176 -132q280 -212 280 -592q0 -227 -98.5 -391.5t-274.5 -248.5t-411 -84h-506zM1276 698q0 140 -64 246q-66 18 -142 18h-158v-684q163 20 263.5 128t100.5 292z" />
    <glyph glyph-name="E" unicode="E" horiz-adv-x="1558" 
d="M370 1400v-1400h878v244h-590v292h480v244h-480v376h572v244h-860zM340 -30v1460h920l224 -166v-302h-572v-152h256l224 -166v-302h-480v-68h366l224 -166v-302h-940z" />
    <glyph glyph-name="F" unicode="F" horiz-adv-x="1500" 
d="M370 1400v-1400h288v496h460v244h-460v416h562v244h-850zM1250 1430l224 -166v-302h-562v-192h236l224 -166v-302h-460v-496h-350l-222 164v1460h910z" />
    <glyph glyph-name="G" unicode="G" horiz-adv-x="1836" 
d="M1362 1102l88 228q-176 94 -420 94q-221 0 -395 -94.5t-269.5 -259.5t-95.5 -370q0 -212 100 -377.5t276.5 -256t399.5 -90.5q274 0 470 90v658h-572v-244h284v-236q-63 -22 -172 -22q-135 0 -246.5 56t-179.5 166.5t-68 255.5q0 216 130.5 346t331.5 130q187 0 338 -74z
M914 450v304h632l224 -166v-708q-215 -98 -494 -98q-307 0 -508 146l-234 170q-136 99 -215 255t-79 347q0 160 58 299.5t161 239.5t250.5 157.5t320.5 57.5q253 0 458 -110l224 -166l-108 -280q-171 84 -350 84q-190 0 -314 -123t-124 -329q0 -146 66 -248q81 -30 174 -30
q92 0 142 12v22h-62z" />
    <glyph glyph-name="H" unicode="H" horiz-adv-x="1816" 
d="M1446 1400h-288v-624h-500v624h-288v-1400h288v532h500v-532h288v1400zM340 -30v1460h348l224 -166v-458h216v624h348l224 -166v-1458h-350l-222 164v368h-216v-532h-350z" />
    <glyph glyph-name="I" unicode="I" horiz-adv-x="1048" 
d="M668 1400h-288v-1400h288v1400zM350 -30v1460h348l224 -166v-1458h-350z" />
    <glyph glyph-name="J" unicode="J" horiz-adv-x="1332" 
d="M674 1400v-978q0 -95 -43.5 -146.5t-124.5 -51.5q-110 0 -198 60l-88 -228q138 -80 312 -80q203 0 316.5 112.5t113.5 323.5v988h-288zM184 44l108 288q117 -78 214 -78q66 0 102 44t36 124v1008h348l224 -166v-1022q0 -222 -120 -341t-334 -119q-90 0 -192.5 30.5
t-183.5 83.5z" />
    <glyph glyph-name="K" unicode="K" horiz-adv-x="1732" 
d="M1468 1400h-336l-474 -688v688h-288v-1400h288v616l534 -616h360l-598 676zM340 -30v1460h348l224 -166v-128l204 294h410l226 -166l-538 -756l622 -702h-436l-222 164l-266 306v-470h-350z" />
    <glyph glyph-name="L" unicode="L" horiz-adv-x="1480" 
d="M370 1400v-1400h850v244h-562v1156h-288zM340 -30v1460h348l224 -166v-990h338l224 -166v-302h-912z" />
    <glyph glyph-name="M" unicode="M" horiz-adv-x="2244" 
d="M1802 1400h-212l-468 -702l-468 702h-212l-112 -1400h296l60 900l364 -544h144l364 544l60 -900h296zM1034 326l-108 162l-48 -682h-358l-222 164l116 1460h256l218 -160l286 -434l400 594h256l224 -164l116 -1460h-358l-222 164l-26 378l-126 -186h-182z" />
    <glyph glyph-name="N" unicode="N" horiz-adv-x="1906" 
d="M370 1400v-1400h288v880l666 -880h212v1400h-288v-878l-666 878h-212zM596 1430l214 -158l408 -538v696h348l224 -166v-1458h-258l-222 164l-398 526v-690h-350l-222 164v1460h256z" />
    <glyph glyph-name="O" unicode="O" 
d="M816 530q0 -145 70 -256q60 -20 134 -20q180 0 304 125.5t124 320.5q0 149 -80 264q-57 18 -118 18q-183 0 -308.5 -127t-125.5 -325zM240 700q0 217 103.5 390t281.5 268.5t395 95.5q288 0 506 -166l196 -150q163 -125 232.5 -269t69.5 -339q0 -161 -60 -301
t-164 -237.5t-246.5 -153.5t-303.5 -56q-294 0 -504 158l-228 170q-128 96 -203 251.5t-75 338.5zM562 700q0 208 132 342t326 134t326 -134t132 -342t-132 -342t-326 -134t-326 134t-132 342zM270 700q0 -156 58.5 -291.5t159 -230t238.5 -148.5t294 -54t294 54
t238.5 148.5t159 230t58.5 291.5t-58.5 291.5t-159 230t-238.5 148.5t-294 54t-294 -54t-238.5 -148.5t-159 -230t-58.5 -291.5z" />
    <glyph glyph-name="P" unicode="P" horiz-adv-x="1642" 
d="M1100 882q0 -132 -76.5 -205t-217.5 -73h-148v556h148q141 0 217.5 -73t76.5 -205zM658 364h172q128 0 235 40t178 109.5t110 164.5t39 204t-39 204t-110 164.5t-178 109.5t-235 40h-460v-1400h288v364zM340 -30v1460h490q249 0 408 -128l168 -136q123 -99 181.5 -209
t58.5 -245q0 -235 -159.5 -388.5t-426.5 -153.5h-148v-364h-350zM1070 882q0 42 -10 82q-8 2 -24 2h-124v-318q77 24 117.5 84t40.5 150z" />
    <glyph glyph-name="Q" unicode="Q" 
d="M1448 700q0 149 -80 264q-57 18 -118 18q-183 0 -308.5 -127t-125.5 -325q0 -145 70 -256q60 -20 134 -20q180 0 304 125.5t124 320.5zM1478 700q0 -208 -132 -342t-326 -134t-326 134t-132 342t132 342t326 134t326 -134t132 -342zM1020 1424q-156 0 -294 -54
t-238.5 -148.5t-159 -230t-58.5 -291.5q0 -279 173 -475t443 -237q109 -85 201.5 -145.5t202 -113.5t226.5 -80t242 -27q8 34 47 121.5t39 138.5q-54 -6 -102 -6q-270 0 -498 130q236 66 381 252.5t145 441.5q0 156 -58.5 291.5t-159 230t-238.5 148.5t-294 54zM1020 1454
q288 0 506 -166l196 -150q163 -125 232.5 -269t69.5 -339q0 -199 -90 -361t-244 -261q16 -2 52 -2q68 0 132 8l224 -166q0 -99 -48 -198q-30 -64 -42 -122q-236 0 -451 91t-449 273q-204 30 -362 148l-228 170q-128 96 -203 251.5t-75 338.5q0 217 103.5 390t281.5 268.5
t395 95.5z" />
    <glyph glyph-name="R" unicode="R" horiz-adv-x="1704" 
d="M658 648v512h188q122 0 194 -66.5t72 -189.5q0 -127 -78.5 -191.5t-227.5 -64.5h-148zM1404 910q0 211 -150 350.5t-402 139.5h-482v-1400h288v424l410 -424h366l-444 436q191 43 302.5 168t111.5 306zM340 1430h512q246 0 408 -128l162 -130q236 -189 236 -432
q0 -179 -104.5 -306.5t-285.5 -179.5l456 -448h-446l-222 164l-144 148v-312h-350l-222 164v1460zM912 966v-278q170 40 170 216q0 32 -6 62h-164z" />
    <glyph glyph-name="S" unicode="S" horiz-adv-x="1476" 
d="M679 613q134 -58 189.5 -109.5t55.5 -126.5q0 -72 -60 -112.5t-166 -40.5q-82 0 -167.5 26t-152.5 72l-88 -232q88 -54 199 -84t221 -30q244 0 375 113.5t131 310.5q0 154 -86.5 257t-275.5 189q-142 65 -192 109t-50 103q0 56 47 87t139 31q143 0 260 -78l88 228
q-164 98 -376 98q-214 0 -332 -103.5t-118 -276.5q0 -142 79 -243t280 -188zM701 531l-181 129q-126 77 -178 169t-52 215q0 187 126 298.5t354 111.5q105 0 214 -30t199 -84l225 -169l-107 -281q-134 90 -273 90q-79 0 -119 -24.5t-40 -67.5q0 -13 1 -18q209 -103 395 -262
q110 -94 157.5 -178.5t47.5 -199.5q0 -209 -137 -329.5t-393 -120.5q-114 0 -233.5 34t-219.5 95l-234 168l109 293q78 -54 168.5 -85t167.5 -31q91 0 143.5 32.5t52.5 90.5q0 23 -8 45q-125 66 -185 109z" />
    <glyph glyph-name="T" unicode="T" horiz-adv-x="1576" 
d="M644 1156v-1156h288v1156h374v244h-1036v-244h374zM614 -30v992h-152l-222 164v304h1096l224 -166v-302h-374v-1156h-350z" />
    <glyph glyph-name="U" unicode="U" horiz-adv-x="1916" 
d="M340 1430h348l224 -166v-860q0 -78 24 -150h22q115 0 192.5 80.5t77.5 239.5v856h348l224 -166v-842q0 -160 -48 -284.5t-133 -201t-194 -115.5t-237 -39q-125 0 -228 31t-216 115l-176 130q-109 81 -168.5 220.5t-59.5 313.5v838zM958 -24q123 0 227.5 37.5t186 111
t128 193.5t46.5 274v808h-288v-826q0 -89 -24.5 -158t-67 -110t-95.5 -61.5t-113 -20.5t-113 20.5t-95.5 61.5t-67 110t-24.5 158v826h-288v-808q0 -154 46.5 -274t128 -193.5t186 -111t227.5 -37.5z" />
    <glyph glyph-name="V" unicode="V" horiz-adv-x="1864" 
d="M932 408l-382 992h-300l568 -1400h230l566 1400h-300zM796 -30l-590 1460h364l222 -162l218 -570l284 732h364l224 -166l-588 -1458h-276z" />
    <glyph glyph-name="W" unicode="W" horiz-adv-x="2528" 
d="M1696 468l-316 932h-232l-316 -932l-282 932h-300l466 -1400h232l316 948l316 -948h232l466 1400h-300zM696 -30l-486 1460h360l224 -164l128 -436l206 600h272l222 -164l150 -446l186 610h360l226 -166l-486 -1458h-276l-222 164l-156 466l-210 -630h-276z" />
    <glyph glyph-name="X" unicode="X" horiz-adv-x="1796" 
d="M740 684l-470 -684h316l312 454l312 -454h316l-470 684l490 716h-316l-332 -484l-332 484h-316zM214 -30l490 714l-510 746h388l218 -160l150 -226l264 386h372l242 -166l-512 -750l486 -708h-386l-222 164l-126 184l-238 -348h-394z" />
    <glyph glyph-name="Y" unicode="Y" horiz-adv-x="1816" 
d="M574 1430l220 -162l182 -360l266 522h378l234 -166l-548 -1014v-444h-350l-222 164v448l-546 1012h386zM764 0h288v428l524 972h-316l-352 -688l-352 688h-316l524 -972v-428z" />
    <glyph glyph-name="Z" unicode="Z" horiz-adv-x="1608" 
d="M910 1156l-620 -972v-184h1008v244h-640l620 972v184h-958v-244h590zM260 194l490 768h-238l-222 164v304h1018l224 -166v-224l-490 -766h286l224 -166v-302h-1070l-222 164v224z" />
    <glyph glyph-name="bracketleft" unicode="[" horiz-adv-x="1142" 
d="M370 1560v-1720h532v206h-280v1308h280v206h-532zM340 -190v1780h592l224 -166v-264h-280v-1084h56l224 -166v-264h-594z" />
    <glyph glyph-name="backslash" unicode="\" horiz-adv-x="1530" 
d="M1220 -372l-226 166l-744 1674l286 120l220 -162l746 -1678zM1240 -70l-720 1618l-230 -96l720 -1618z" />
    <glyph glyph-name="bracketright" unicode="]" horiz-adv-x="1142" 
d="M432 -354l-222 164v266h280v1084h-58l-222 164v266h592l224 -166v-1778h-594zM772 -160v1720h-532v-206h280v-1308h-280v-206h532z" />
    <glyph glyph-name="asciicircum" unicode="^" horiz-adv-x="1428" 
d="M386 854l328 294l328 -294l126 110q-85 122 -196 240t-216 196h-84q-105 -78 -216 -196t-196 -240zM1042 814l-124 110l-306 -274l-226 164l-166 146q96 135 214 261.5t228 208.5h104l228 -174q109 -83 226 -207.5t210 -256.5l-162 -142z" />
    <glyph glyph-name="underscore" unicode="_" horiz-adv-x="1380" 
d="M190 0v-176h1000v176h-1000zM160 -206v236h1060l224 -166v-234h-1062z" />
    <glyph glyph-name="grave" unicode="`" horiz-adv-x="1260" 
d="M480 1488l-118 -186q87 -67 214 -121.5t250 -80.5l72 114zM322 1296l150 236l468 -308l224 -166l-98 -156q-172 38 -315.5 109.5t-318.5 202.5z" />
    <glyph glyph-name="a" unicode="a" horiz-adv-x="1784" 
d="M682 448l210 544l210 -544h-420zM1194 208l80 -208h300l-566 1400h-232l-566 -1400h300l80 208h604zM1254 -30l-18 44h-400l-80 -208h-368l-222 164l590 1460h272l218 -160l592 -1464h-362zM1058 478l-22 54l-22 -54h44z" />
    <glyph glyph-name="b" unicode="b" horiz-adv-x="1672" 
d="M658 566h248q110 0 159 -42t49 -122t-49 -121t-159 -41h-248v326zM1060 984q0 -87 -50.5 -132.5t-163.5 -45.5h-188v354h188q113 0 163.5 -44.5t50.5 -131.5zM370 1400v-1400h512q273 0 401.5 98t128.5 292q0 111 -67 198t-175 120q86 39 132 120.5t46 171.5
q0 176 -130.5 288t-361.5 112h-486zM340 -30v1460h516q229 0 384 -116l206 -154q77 -58 116.5 -143.5t39.5 -186.5q0 -74 -38.5 -153t-101.5 -131l62 -44q65 -47 103.5 -122t38.5 -160q0 -206 -134.5 -310t-419.5 -104h-550zM912 372v-102q151 0 170 102h-170zM912 966v-124
q108 19 118 124h-118z" />
    <glyph glyph-name="c" unicode="c" horiz-adv-x="2010" 
d="M270 700q0 -158 59 -294t160.5 -230t239 -147t291.5 -53q256 0 454.5 138.5t265.5 369.5h-308q-57 -121 -168 -190.5t-244 -69.5q-124 0 -228 58.5t-167 168.5t-63 249t63 249t167 168.5t228 58.5q133 0 244 -69.5t168 -190.5h308q-67 231 -265.5 369.5t-454.5 138.5
q-154 0 -291.5 -53t-239 -147t-160.5 -230t-59 -294zM1412 886q-19 38 -48 80q-58 16 -114 16q-118 0 -216.5 -55.5t-158 -160t-59.5 -236.5q0 -145 70 -256q60 -20 134 -20q124 0 229.5 69.5t162.5 190.5h368l226 -166q-48 -168 -161 -297t-267.5 -199t-327.5 -70
q-271 0 -482 148l-196 138q-332 234 -332 632q0 219 105 392.5t282.5 267.5t392.5 94q288 0 506 -166l162 -124q252 -192 314 -442h-368z" />
    <glyph glyph-name="d" unicode="d" horiz-adv-x="1868" 
d="M1598 700q0 218 -95.5 377.5t-266.5 241t-398 81.5h-468v-1400h468q228 0 398.5 81t266 240.5t95.5 378.5zM1306 698q0 -218 -130.5 -336t-335.5 -118h-182v912h182q99 0 183.5 -29t147.5 -85t99 -144t36 -200zM340 -30v1460h498q166 0 301.5 -42.5t256.5 -133.5
l176 -132q280 -212 280 -592q0 -227 -98.5 -391.5t-274.5 -248.5t-411 -84h-506zM1276 698q0 140 -64 246q-66 18 -142 18h-158v-684q163 20 263.5 128t100.5 292z" />
    <glyph glyph-name="e" unicode="e" horiz-adv-x="1558" 
d="M370 1400v-1400h878v244h-590v292h480v244h-480v376h572v244h-860zM340 -30v1460h920l224 -166v-302h-572v-152h256l224 -166v-302h-480v-68h366l224 -166v-302h-940z" />
    <glyph glyph-name="f" unicode="f" horiz-adv-x="1500" 
d="M370 1400v-1400h288v496h460v244h-460v416h562v244h-850zM1250 1430l224 -166v-302h-562v-192h236l224 -166v-302h-460v-496h-350l-222 164v1460h910z" />
    <glyph glyph-name="g" unicode="g" 
d="M2002 722h-207l229 -168q-2 -227 -98 -402.5t-271.5 -272.5t-404.5 -97q-271 0 -482 148l-196 138q-332 234 -332 632q0 219 105 392.5t282.5 267.5t392.5 94q288 0 506 -166l162 -124q252 -192 314 -442zM1020 1424q-154 0 -291.5 -53t-239 -147t-160.5 -230t-59 -294
t59 -294t160.5 -230t239 -147t291.5 -53q222 0 392 91t263 255.5t95 377.5h-764v-234h414q-53 -115 -156 -178.5t-244 -63.5q-201 0 -329.5 131.5t-128.5 344.5q0 139 63 249t167 168.5t228 58.5q133 0 244 -69.5t168 -190.5h308q-67 231 -265.5 369.5t-454.5 138.5z
M976 436v294h647l-211 156q-19 38 -48 80q-58 16 -114 16q-118 0 -216.5 -55.5t-158 -160t-59.5 -236.5q0 -149 64 -256q60 -20 140 -20q93 0 162 24z" />
    <glyph glyph-name="h" unicode="h" horiz-adv-x="1816" 
d="M1446 1400h-288v-624h-500v624h-288v-1400h288v532h500v-532h288v1400zM340 -30v1460h348l224 -166v-458h216v624h348l224 -166v-1458h-350l-222 164v368h-216v-532h-350z" />
    <glyph glyph-name="i" unicode="i" horiz-adv-x="1048" 
d="M668 1400h-288v-1400h288v1400zM350 -30v1460h348l224 -166v-1458h-350z" />
    <glyph glyph-name="j" unicode="j" horiz-adv-x="1492" 
d="M676 -24q200 0 323 110.5t123 305.5v1008h-288v-998q0 -178 -158 -178q-73 0 -115.5 43.5t-42.5 124.5h-288q0 -197 122.5 -306.5t323.5 -109.5zM548 422l202 -150q54 37 54 130v1028h348l224 -166v-1042q0 -206 -129.5 -323t-340.5 -117q-113 0 -198 27t-170 91
l-136 102q-101 76 -151.5 174t-50.5 246h348z" />
    <glyph glyph-name="k" unicode="k" horiz-adv-x="1692" 
d="M658 728v672h-288v-1400h288v488h102q83 0 144.5 -21.5t110.5 -70.5t78.5 -133t42.5 -205l6 -58h280l-6 62q-23 222 -110.5 377.5t-235.5 228.5l328 732h-316l-288 -672h-136zM1334 516l62 -46q233 -171 274 -576l8 -88h-342l-224 164l-6 72q-14 159 -54 248q-32 4 -62 4
h-78v-488h-350l-222 164v1460h348l224 -166v-184l150 350h382l224 -166z" />
    <glyph glyph-name="l" unicode="l" horiz-adv-x="1480" 
d="M370 1400v-1400h850v244h-562v1156h-288zM340 -30v1460h348l224 -166v-990h338l224 -166v-302h-912z" />
    <glyph glyph-name="m" unicode="m" horiz-adv-x="2324" 
d="M1298 102l-222 164l-164 218v-678h-350l-222 164v1460h260l216 -158l392 -530l516 688h260l224 -166v-1458h-350l-222 164v346l-160 -214h-178zM1234 296l432 578v-874h288v1400h-216l-576 -772l-576 772h-216v-1400h288v874l432 -578h144z" />
    <glyph glyph-name="n" unicode="n" horiz-adv-x="1906" 
d="M370 1400v-1400h288v880l666 -880h212v1400h-288v-878l-666 878h-212zM596 1430l214 -158l408 -538v696h348l224 -166v-1458h-258l-222 164l-398 526v-690h-350l-222 164v1460h256z" />
    <glyph glyph-name="o" unicode="o" 
d="M816 530q0 -145 70 -256q60 -20 134 -20q180 0 304 125.5t124 320.5q0 149 -80 264q-57 18 -118 18q-183 0 -308.5 -127t-125.5 -325zM240 700q0 217 103.5 390t281.5 268.5t395 95.5q288 0 506 -166l196 -150q163 -125 232.5 -269t69.5 -339q0 -161 -60 -301
t-164 -237.5t-246.5 -153.5t-303.5 -56q-294 0 -504 158l-228 170q-128 96 -203 251.5t-75 338.5zM562 700q0 208 132 342t326 134t326 -134t132 -342t-132 -342t-326 -134t-326 134t-132 342zM270 700q0 -156 58.5 -291.5t159 -230t238.5 -148.5t294 -54t294 54
t238.5 148.5t159 230t58.5 291.5t-58.5 291.5t-159 230t-238.5 148.5t-294 54t-294 -54t-238.5 -148.5t-159 -230t-58.5 -291.5z" />
    <glyph glyph-name="p" unicode="p" horiz-adv-x="1642" 
d="M1100 882q0 -132 -76.5 -205t-217.5 -73h-148v556h148q141 0 217.5 -73t76.5 -205zM658 364h172q128 0 235 40t178 109.5t110 164.5t39 204t-39 204t-110 164.5t-178 109.5t-235 40h-460v-1400h288v364zM340 -30v1460h490q249 0 408 -128l168 -136q123 -99 181.5 -209
t58.5 -245q0 -235 -159.5 -388.5t-426.5 -153.5h-148v-364h-350zM1070 882q0 42 -10 82q-8 2 -24 2h-124v-318q77 24 117.5 84t40.5 150z" />
    <glyph glyph-name="q" unicode="q" 
d="M1478 700q0 -208 -132 -342t-326 -134t-326 134t-132 342t132 342t326 134t326 -134t132 -342zM1020 1424q-156 0 -294 -54t-238.5 -148.5t-159 -230t-58.5 -291.5q0 -274 166.5 -467.5t429.5 -242.5q-171 -96 -262 -218l92 -86q113 74 258 74q52 0 111 -21t116 -51.5
l118.5 -61t138.5 -51.5t156 -21q150 0 254.5 53.5t177.5 172.5l-222 154q-30 -74 -81.5 -109t-134.5 -35q-73 0 -146 20t-127 45.5t-135 50.5t-162 32q40 24 82 42q142 13 265.5 72t213 152.5t140.5 221.5t51 274q0 156 -58.5 291.5t-159 230t-238.5 148.5t-294 54zM816 530
q0 -145 70 -256q60 -20 134 -20q180 0 304 125.5t124 320.5q0 149 -80 264q-57 18 -118 18q-183 0 -308.5 -127t-125.5 -325zM1722 1138q164 -123 233 -267.5t69 -340.5q0 -253 -140 -440t-370 -264q36 -6 74 -6q75 0 121 34.5t79 123.5l278 -190l226 -166
q-83 -135 -197.5 -198.5t-270.5 -63.5q-76 0 -155.5 21t-123 40.5t-119.5 58.5q-54 29 -86 44t-75.5 28.5t-80.5 13.5q-138 0 -266 -84l-224 166l-130 122q49 59 87.5 100t86.5 76l-220 164q-128 95 -203 251t-75 339q0 217 103.5 390t281.5 268.5t395 95.5q288 0 506 -166z
" />
    <glyph glyph-name="r" unicode="r" horiz-adv-x="1694" 
d="M658 648v512h188q122 0 194 -66.5t72 -189.5t-72 -189.5t-194 -66.5h-188zM658 0v408h102q147 0 239.5 -98.5t110.5 -271.5l4 -38h280l-4 42q-30 317 -246 452q123 57 191.5 166t68.5 250q0 211 -150 350.5t-402 139.5h-482v-1400h288zM340 -30v1460h512
q136 0 236.5 -34.5t193.5 -103.5l138 -102q123 -92 180.5 -202t57.5 -248q0 -139 -62 -248t-176 -172l6 -4q96 -70 152.5 -185.5t65.5 -266.5l4 -58h-342l-222 164q-10 163 -56 244h-116v-408h-350zM912 966v-282q79 15 124.5 72t45.5 148q0 32 -6 62h-164z" />
    <glyph glyph-name="s" unicode="s" horiz-adv-x="1494" 
d="M766 -24q210 0 334 113t124 300q0 151 -82.5 252.5t-287.5 189.5q-147 63 -200.5 108.5t-53.5 108.5q0 56 36.5 92t105.5 36q70 0 110 -39.5t40 -104.5h292q0 179 -123 285.5t-315 106.5q-202 0 -320 -103.5t-118 -276.5q0 -156 86 -261.5t292 -190.5q142 -58 194 -105
t52 -115q0 -67 -44 -107.5t-118 -40.5q-76 0 -123.5 37.5t-54.5 110.5h-292q12 -174 136 -285t330 -111zM655 538l-190 135q-78 56 -119 123q-68 110 -68 248q0 187 126 298.5t342 111.5q186 0 330 -104l176 -128q186 -134 186 -382h-341l-183 134q-60 -25 -60 -96v-15
q178 -78 260 -143l191 -149q93 -73 133.5 -156.5t40.5 -195.5q0 -198 -130.5 -316.5t-352.5 -118.5q-200 0 -340 101l-147 106q-126 91 -179 186t-62 225h352l194 -143q38 4 63 36.5t25 76.5q0 22 -5 37q-121 42 -242 129z" />
    <glyph glyph-name="t" unicode="t" horiz-adv-x="1576" 
d="M644 1156v-1156h288v1156h374v244h-1036v-244h374zM614 -30v992h-152l-222 164v304h1096l224 -166v-302h-374v-1156h-350z" />
    <glyph glyph-name="u" unicode="u" horiz-adv-x="1916" 
d="M340 1430h348l224 -166v-860q0 -78 24 -150h22q115 0 192.5 80.5t77.5 239.5v856h348l224 -166v-842q0 -160 -48 -284.5t-133 -201t-194 -115.5t-237 -39q-125 0 -228 31t-216 115l-176 130q-109 81 -168.5 220.5t-59.5 313.5v838zM958 -24q123 0 227.5 37.5t186 111
t128 193.5t46.5 274v808h-288v-826q0 -89 -24.5 -158t-67 -110t-95.5 -61.5t-113 -20.5t-113 20.5t-95.5 61.5t-67 110t-24.5 158v826h-288v-808q0 -154 46.5 -274t128 -193.5t186 -111t227.5 -37.5z" />
    <glyph glyph-name="v" unicode="v" horiz-adv-x="1864" 
d="M932 408l-382 992h-300l568 -1400h230l566 1400h-300zM796 -30l-590 1460h364l222 -162l218 -570l284 732h364l224 -166l-588 -1458h-276z" />
    <glyph glyph-name="w" unicode="w" horiz-adv-x="2528" 
d="M1696 468l-316 932h-232l-316 -932l-282 932h-300l466 -1400h232l316 948l316 -948h232l466 1400h-300zM696 -30l-486 1460h360l224 -164l128 -436l206 600h272l222 -164l150 -446l186 610h360l226 -166l-486 -1458h-276l-222 164l-156 466l-210 -630h-276z" />
    <glyph glyph-name="x" unicode="x" horiz-adv-x="1796" 
d="M740 684l-470 -684h316l312 454l312 -454h316l-470 684l490 716h-316l-332 -484l-332 484h-316zM214 -30l490 714l-510 746h388l218 -160l150 -226l264 386h372l242 -166l-512 -750l486 -708h-386l-222 164l-126 184l-238 -348h-394z" />
    <glyph glyph-name="y" unicode="y" horiz-adv-x="1816" 
d="M574 1430l220 -162l182 -360l266 522h378l234 -166l-548 -1014v-444h-350l-222 164v448l-546 1012h386zM764 0h288v428l524 972h-316l-352 -688l-352 688h-316l524 -972v-428z" />
    <glyph glyph-name="z" unicode="z" horiz-adv-x="1608" 
d="M910 1156l-620 -972v-184h1008v244h-640l620 972v184h-958v-244h590zM260 194l490 768h-238l-222 164v304h1018l224 -166v-224l-490 -766h286l224 -166v-302h-1070l-222 164v224z" />
    <glyph glyph-name="braceleft" unicode="{" horiz-adv-x="1210" 
d="M260 806v-212q104 0 158 -52t54 -148v-302q0 -124 77.5 -188t208.5 -64h212v206h-172q-39 0 -56.5 18.5t-17.5 59.5v266q0 119 -47 194.5t-147 115.5q100 40 147 115.5t47 194.5v266q0 41 17.5 59.5t56.5 18.5h172v206h-212q-131 0 -208.5 -64t-77.5 -188v-302
q0 -96 -54 -148t-158 -52zM230 564v272q104 0 158 44.5t54 125.5v302q0 138 85.5 210t230.5 72h242l224 -166v-264h-196q-27 0 -38.5 -12.5t-11.5 -41.5v-266q0 -113 -38 -187.5t-122 -120.5q84 -46 122 -120.5t38 -187.5v-148h22l224 -166v-264h-236q-155 0 -264 82
l-150 112q-66 50 -99 108.5t-33 143.5v314z" />
    <glyph glyph-name="bar" unicode="|" horiz-adv-x="1086" 
d="M430 1600v-1800h226v1800h-226zM400 -230v1860h286l224 -166v-1858h-288z" />
    <glyph glyph-name="braceright" unicode="}" horiz-adv-x="1210" 
d="M950 594v212q-104 0 -158 52t-54 148v302q0 124 -77.5 188t-208.5 64h-212v-206h172q39 0 56.5 -18.5t17.5 -59.5v-266q0 -119 47 -194.5t147 -115.5q-100 -40 -147 -115.5t-47 -194.5v-266q0 -41 -17.5 -59.5t-56.5 -18.5h-172v-206h212q131 0 208.5 64t77.5 188v302
q0 96 54 148t158 52zM706 1510l150 -110q76 -56 106 -113t30 -149v-310l212 -156v-272q-104 0 -158 -46t-54 -130v-302q0 -135 -84 -205.5t-226 -70.5h-250l-222 164v266h202q24 0 34 11t10 37v266q0 216 152 310q-152 94 -152 310v150h-24l-222 164v266h242q81 0 138.5 -19
t115.5 -61z" />
    <glyph glyph-name="asciitilde" unicode="~" horiz-adv-x="1668" 
d="M1024 500q213 0 360 258l-198 122q-56 -88 -91.5 -121t-84.5 -33q-35 0 -67 18t-85 60q-105 82 -214 82q-213 0 -360 -258l198 -122q56 88 91.5 121t84.5 33q35 0 67 -18t85 -60q105 -82 214 -82zM1424 768l226 -166q-171 -296 -396 -296q-114 0 -212 76
q-60 45 -92.5 64.5t-61.5 19.5q-40 0 -74.5 -35t-93.5 -127l-244 168l-232 146q173 298 400 298q119 0 232 -90q45 -36 74.5 -53t59.5 -17q37 0 71 35.5t95 130.5z" />
    <glyph glyph-name="uni00A0" unicode="&#xa0;" horiz-adv-x="700" 
 />
    <glyph glyph-name="exclamdown" unicode="&#xa1;" horiz-adv-x="1080" 
d="M540 1454q80 0 142 -44l178 -132q54 -40 74 -83.5t20 -102.5q0 -147 -118 -178l64 -46l38 -752v-308h-350l-222 162v314l38 746h110l-104 76q-60 46 -60 156q0 192 190 192zM396 0h288v284l-36 716h-216l-36 -716v-284zM540 1424q-160 0 -160 -162t160 -162t160 162
t-160 162z" />
    <glyph glyph-name="cent" unicode="&#xa2;" horiz-adv-x="1484" 
d="M290 700q0 -217 130 -361.5t334 -188.5v-164h200v148q153 10 270 68l-74 202q-97 -50 -226 -50q-71 0 -134.5 21t-115 62t-82 109t-30.5 154q0 153 102 248.5t246 95.5q133 0 232 -46l74 204q-127 54 -272 60v152h-200v-166q-203 -42 -328.5 -188t-125.5 -360zM724 -44
v98l-182 130q-143 102 -212.5 224.5t-69.5 291.5q0 223 124 375.5t330 198.5v170h260l224 -166v-36q26 -9 56 -22l226 -166l-94 -258q-111 54 -246 54t-229.5 -88.5t-94.5 -231.5q0 -78 24 -138q35 -8 84 -8q124 0 242 62l220 -162l98 -264q-127 -65 -276 -78v-150h-262z
" />
    <glyph glyph-name="sterling" unicode="&#xa3;" horiz-adv-x="1654" 
d="M1154 546v136h-398v298q0 98 61.5 147t170.5 49q156 0 262 -56l88 228q-158 76 -370 76q-237 0 -370.5 -116t-133.5 -326v-300h-154v-136h154v-64q0 -159 -146 -264v-218h1086v244h-748q100 94 100 268v34h398zM280 516v196h154v270q0 225 141.5 348.5t392.5 123.5
q100 0 209 -23t199 -67l226 -166l-110 -282q-129 66 -274 66q-98 0 -153 -43t-55 -129v-98h174l224 -166v-194h-398v-10q0 -28 -4 -68h428l224 -166v-302h-1148l-222 164v262q107 78 136 176z" />
    <glyph glyph-name="currency" unicode="&#xa4;" horiz-adv-x="1796" 
d="M682 662q0 94 63.5 157t152.5 63t152.5 -63t63.5 -157t-63.5 -157t-152.5 -63t-152.5 63t-63.5 157zM472 1234l-182 -176l198 -202q-48 -96 -48 -194q0 -100 48 -196l-198 -200l182 -176l192 194q109 -64 234 -64q123 0 232 64l194 -194l182 176l-200 200q50 94 50 196
q0 100 -50 194l200 202l-182 176l-194 -194q-109 64 -232 64q-125 0 -234 -64zM1324 50l-12 12q-87 -36 -184 -36q-125 0 -232 58l-198 -200l-226 166l-224 214l204 204q-42 90 -42 194q0 109 40 192l-202 206l224 214l236 -176q87 36 190 36q124 0 230 -56l196 196
l194 -142l252 -242l-204 -206q44 -91 44 -192q0 -103 -44 -194l204 -204l-220 -210zM936 492v-16q63 12 105.5 64t42.5 122q0 14 -2 20q-63 -15 -104.5 -67.5t-41.5 -122.5z" />
    <glyph glyph-name="yen" unicode="&#xa5;" horiz-adv-x="1816" 
d="M764 428h-382v-136h382v-292h288v292h382v136h-382l42 80h340v136h-266l408 756h-316l-352 -678l-352 678h-316l408 -756h-266v-136h338zM734 -30v128h-160l-222 164v196h26l-26 20v196h246l-410 756h386l218 -160l182 -352l268 512h386l226 -166l-342 -626l176 -130
v-184h-44l44 -32v-194h-382v-292h-350z" />
    <glyph glyph-name="brokenbar" unicode="&#xa6;" horiz-adv-x="1086" 
d="M656 1600h-226v-704h226v704zM400 866v764h286l224 -166v-762h-288zM656 504h-226v-704h226v704zM400 -230v764h286l224 -166v-762h-288z" />
    <glyph glyph-name="section" unicode="&#xa7;" horiz-adv-x="1594" 
d="M716 770l-190 128q-92 61 -135 131t-43 173q0 155 123.5 247.5t332.5 92.5q221 0 418 -88l226 -166l-110 -272q-62 30 -137.5 47t-136.5 17q-60 0 -100 -10q153 -54 260 -132l156 -116q148 -110 148 -274q0 -132 -118 -230l-256 122q2 -2 14 -10l134 -98
q90 -66 129 -140.5t39 -163.5q0 -152 -122 -243t-328 -91q-236 0 -442 100l-206 152l110 276q63 -32 139.5 -49t138.5 -17q69 0 98 8q-163 57 -266 136l-124 92q-46 34 -74 59.5t-54.5 60.5t-38 76.5t-11.5 93.5q0 137 124 238l242 -116l226 -166q-17 -35 -24 -58
q141 -43 240 -104l-160 120q18 39 20 58q-131 41 -242 116zM686 340q164 -54 206 -76t42 -64q0 -74 -174 -74q-65 0 -137.5 14t-124.5 40l-88 -218q166 -74 380 -74q196 0 311 84.5t115 225.5q0 130 -87.5 213.5t-280.5 140.5q-134 39 -190 77.5t-56 90.5q0 34 14 68
l-198 96q-98 -81 -98 -202q0 -59 18 -106.5t46.5 -80.5t78.5 -62t99 -49t124 -44zM1274 718q0 59 -18 106.5t-46.5 80.5t-78.5 62t-99 49t-124 44q-164 54 -206 76t-42 64q0 74 174 74q65 0 137.5 -14t124.5 -40l88 218q-166 74 -380 74q-196 0 -311 -84.5t-115 -225.5
q0 -130 87.5 -213.5t280.5 -140.5q134 -39 190 -77.5t56 -90.5q0 -34 -14 -68l198 -96q98 81 98 202z" />
    <glyph glyph-name="dieresis" unicode="&#xa8;" horiz-adv-x="1260" 
d="M944 996l-136 96q-15 -130 -158 -130q-77 0 -126 34l-194 138q-41 30 -58.5 65.5t-17.5 90.5q0 82 43 124t123 42q73 0 128 -40l128 -94q7 66 49.5 100t114.5 34q73 0 128 -40l202 -146q60 -44 60 -148q0 -160 -160 -160q-77 0 -126 34zM420 1154q136 0 136 136t-136 136
t-136 -136t136 -136zM840 1154q136 0 136 136t-136 136t-136 -136t136 -136z" />
    <glyph glyph-name="copyright" unicode="&#xa9;" horiz-adv-x="2028" 
d="M668 696q0 -168 110.5 -268t275.5 -100q116 0 196 40l-42 146q-60 -30 -144 -30q-91 0 -149.5 58t-58.5 154t58.5 154t149.5 58q84 0 144 -30l42 146q-80 40 -196 40q-165 0 -275.5 -100t-110.5 -268zM402 700q0 169 82 312t223 225.5t307 82.5t307 -82.5t223 -225.5
t82 -312t-82 -312t-223 -225.5t-307 -82.5t-307 82.5t-223 225.5t-82 312zM290 700q0 -197 97 -363.5t263.5 -263.5t363.5 -97t363.5 97t263.5 263.5t97 363.5t-97 363.5t-263.5 263.5t-363.5 97t-363.5 -97t-263.5 -263.5t-97 -363.5zM758 -48l-162 118
q-165 121 -250.5 273.5t-85.5 356.5q0 154 59.5 293.5t160.5 240.5t240.5 160.5t293.5 59.5q260 0 520 -188l146 -106q312 -225 312 -630q0 -153 -59 -291.5t-159 -238.5t-238.5 -159t-291.5 -59q-255 0 -486 170zM1288 1040l224 -166l-58 -200q-83 40 -160 40
q-81 0 -132.5 -51t-51.5 -137v-8q63 10 118 38l222 -164l18 -62q128 160 128 370q0 218 -142 386q-110 40 -210 40q-96 0 -192 -32q131 0 236 -54zM976 236l-148 110q-67 48 -109 99t-63 121v-36q0 -209 128 -372q105 -48 230 -48q95 0 182 30q-110 13 -220 96z" />
    <glyph glyph-name="ordfeminine" unicode="&#xaa;" horiz-adv-x="1244" 
d="M526 1430h192l222 -162l298 -748h-242l-114 84h-154l-30 -84h-250l-222 164zM532 932l90 250l90 -250h-180zM452 714l30 84h280l30 -84h182l-276 686h-152l-276 -686h182z" />
    <glyph glyph-name="guillemotleft" unicode="&#xab;" horiz-adv-x="1464" 
d="M1112 204l-360 360l-40 -40l326 -328l-158 -158l-226 166l-454 454v72l454 454l200 -146l56 -56l202 202l200 -146l184 -186l-326 -328l326 -328l-158 -158zM776 366l-326 328l326 328l-122 122l-424 -424v-52l424 -424zM1234 366l-326 328l326 328l-122 122l-424 -424
v-52l424 -424z" />
    <glyph glyph-name="logicalnot" unicode="&#xac;" horiz-adv-x="1668" 
d="M310 946v-224h784v-370h264v594h-1048zM1064 322v206h-562l-222 164v284h1108l224 -166v-652h-326z" />
    <glyph glyph-name="uni00AD" unicode="&#xad;" horiz-adv-x="1202" 
d="M310 572h582v244h-582v-244zM280 542v304h642l224 -166v-302h-644z" />
    <glyph glyph-name="registered" unicode="&#xae;" horiz-adv-x="2028" 
d="M402 700q0 169 82 312t223 225.5t307 82.5t307 -82.5t223 -225.5t82 -312t-82 -312t-223 -225.5t-307 -82.5t-307 82.5t-223 225.5t-82 312zM290 700q0 -197 97 -363.5t263.5 -263.5t363.5 -97t363.5 97t263.5 263.5t97 363.5t-97 363.5t-263.5 263.5t-363.5 97
t-363.5 -97t-263.5 -263.5t-97 -363.5zM950 694v218h52q116 0 116 -108q0 -62 -34 -86t-102 -24h-32zM1306 808q0 106 -76.5 177t-203.5 71h-264v-712h188v216l176 -216h214l-202 224q168 63 168 240zM1268 1002l178 -130q52 -39 83 -100t31 -134q0 -177 -154 -248l58 -64
q132 164 132 374q0 218 -142 386q-110 40 -210 40q-112 0 -214 -40q124 -2 238 -84zM732 314v508q-76 -139 -76 -292q0 -209 128 -372q105 -48 230 -48q152 0 282 74l-92 68v-102h-250zM758 -48l-162 118q-165 121 -250.5 273.5t-85.5 356.5q0 154 59.5 293.5t160.5 240.5
t240.5 160.5t293.5 59.5q260 0 520 -188l146 -106q312 -225 312 -630q0 -153 -59 -291.5t-159 -238.5t-238.5 -159t-291.5 -59q-255 0 -486 170z" />
    <glyph glyph-name="macron" unicode="&#xaf;" horiz-adv-x="1260" 
d="M318 1388v-198h624v198h-624zM288 1160v258h684l224 -166v-256h-686z" />
    <glyph glyph-name="degree" unicode="&#xb0;" horiz-adv-x="1260" 
d="M734 1146q0 -45 -29.5 -75.5t-74.5 -30.5t-74.5 30.5t-29.5 75.5t29.5 75.5t74.5 30.5t74.5 -30.5t29.5 -75.5zM920 1146q0 117 -84 197.5t-206 80.5t-206 -80.5t-84 -197.5t84 -197.5t206 -80.5t206 80.5t84 197.5zM630 750l-172 126q-73 54 -110.5 118.5t-37.5 151.5
q0 130 92.5 219t227.5 89q70 0 124.5 -21t117.5 -69l168 -124q134 -98 134 -264q0 -127 -91 -214.5t-223 -87.5q-129 0 -230 76z" />
    <glyph glyph-name="plusminus" unicode="&#xb1;" horiz-adv-x="1668" 
d="M350 0h968v224h-968v-224zM702 680v-360h264v360h352v224h-352v356h-264v-356h-352v-224h352zM672 290v196h-130l-222 164v284h352v356h324l224 -166v-190h128l224 -166v-282h-352v-232h128l224 -166v-282h-1030l-222 164v284h400z" />
    <glyph glyph-name="twosuperior" unicode="&#xb2;" horiz-adv-x="1096" 
d="M282 630h550v174h-234q59 38 114 100q108 118 108 248q0 121 -75.5 191.5t-222.5 70.5q-149 0 -252 -56l66 -166q71 46 158 46q126 0 126 -84q0 -46 -23.5 -89t-72.5 -95q-99 -104 -242 -208v-132zM776 1364l178 -130q63 -46 91.5 -104.5t28.5 -147.5q0 -127 -94 -242
l106 -82v-222h-612l-222 164v176q168 123 262 228l-192 142l-90 226q131 72 290 72q77 0 136.5 -18.5t117.5 -61.5z" />
    <glyph glyph-name="threesuperior" unicode="&#xb3;" horiz-adv-x="1096" 
d="M426 508l-204 150l84 222q82 -44 172 -58l-104 76v222l-42 30l-86 224q136 70 292 70q83 0 140.5 -20.5t113.5 -61.5l178 -130q110 -80 110 -206q0 -116 -90 -180q100 -70 100 -174q0 -115 -86.5 -182.5t-233.5 -67.5q-78 0 -171.5 22t-172.5 64zM706 1014
q120 52 120 182q0 103 -79 160.5t-209 57.5q-153 0 -254 -54l62 -164q68 44 162 44q55 0 86.5 -18t31.5 -48q0 -39 -34 -56.5t-126 -17.5h-62v-172h60q92 0 132 -17t40 -53t-29 -52t-91 -16q-98 0 -194 48l-62 -164q122 -58 280 -58q137 0 216.5 60.5t79.5 165.5
q0 66 -35.5 109.5t-94.5 62.5z" />
    <glyph glyph-name="acute" unicode="&#xb4;" horiz-adv-x="1260" 
d="M644 900l-224 164l-100 160l468 308l214 -158l158 -248q-98 -76 -239.5 -137t-276.5 -89zM898 1302l-118 186l-418 -274l72 -114q123 26 250 80.5t214 121.5z" />
    <glyph glyph-name="mu" unicode="&#xb5;" horiz-adv-x="2244" 
d="M1802 1400h-212l-468 -702l-468 702h-212l-112 -1400h296l60 900l364 -544h144l364 544l60 -900h296zM1034 326l-108 162l-48 -682h-358l-222 164l116 1460h256l218 -160l286 -434l400 594h256l224 -164l116 -1460h-358l-222 164l-26 378l-126 -186h-182z" />
    <glyph glyph-name="paragraph" unicode="&#xb6;" horiz-adv-x="1748" 
d="M778 482h80v-482h172v1234h408v166h-660q-199 0 -338.5 -133t-139.5 -327q0 -128 64 -233.5t174 -165t240 -59.5zM1334 1122h-168v-1122h168v1122zM1358 -194l-74 56v-56h-234l-222 164v348q-40 14 -100 45t-108 67l-118 88q-232 171 -232 422q0 207 147.5 348.5
t360.5 141.5h690l224 -166v-224h-170l66 -46v-1188h-230z" />
    <glyph glyph-name="periodcentered" unicode="&#xb7;" horiz-adv-x="1100" 
d="M550 856q-160 0 -160 -162t160 -162t160 162t-160 162zM550 886q80 0 142 -44l178 -132q54 -40 74 -83.5t20 -102.5q0 -186 -184 -186q-51 0 -87.5 14.5t-86.5 49.5l-186 136q-60 46 -60 156q0 192 190 192z" />
    <glyph glyph-name="cedilla" unicode="&#xb8;" horiz-adv-x="1260" 
d="M442 -318l-28 -144q70 -14 140 -14q137 0 213.5 52t76.5 148q0 60 -40.5 102.5t-109.5 57.5l66 116h-220l-96 -164l12 -22q170 -3 170 -80q0 -64 -90 -64q-52 0 -94 12zM966 -260l56 -42q76 -56 76 -144q0 -108 -83.5 -166t-230.5 -58q-92 0 -186 22l-220 162l40 208
q69 -22 106 -22h24l-110 84l-30 52l116 194h290l224 -166z" />
    <glyph glyph-name="onesuperior" unicode="&#xb9;" horiz-adv-x="1096" 
d="M366 1064l136 108v-542h200v770h-180l-262 -194zM732 1430l224 -166v-828h-262l-222 164v340l-112 82l-142 192l294 216h220z" />
    <glyph glyph-name="ordmasculine" unicode="&#xba;" horiz-adv-x="1244" 
d="M786 1056q-48 -20 -75.5 -62t-28.5 -100q47 17 75 60.5t29 101.5zM570 590l-164 120q-95 69 -140.5 152.5t-45.5 195.5q0 169 111.5 277.5t290.5 108.5q85 0 154 -24.5t140 -77.5l178 -130q154 -114 154 -324q0 -166 -110 -273t-286 -107q-91 0 -153.5 17.5t-128.5 64.5z
M994 1058q0 156 -103.5 256t-268.5 100t-268.5 -100t-103.5 -256t103.5 -256t268.5 -100t268.5 100t103.5 256zM816 1058q0 -90 -53.5 -147t-140.5 -57t-140.5 57t-53.5 147t53.5 147t140.5 57t140.5 -57t53.5 -147z" />
    <glyph glyph-name="guillemotright" unicode="&#xbb;" horiz-adv-x="1464" 
d="M648 1022l162 162l200 -146l478 -480v-68l-452 -452l-226 166l-34 32l-198 -198l-226 166l-162 162l326 328l-326 328l162 162l200 -146l382 -384l40 40zM556 694l-326 -328l122 -122l424 424v52l-424 424l-122 -122zM1014 694l-326 -328l122 -122l424 424v52l-424 424
l-122 -122z" />
    <glyph glyph-name="onequarter" unicode="&#xbc;" horiz-adv-x="2164" 
d="M554 80l160 -100l862 1340l-160 100zM1504 292l148 424l-196 60l-192 -524v-134h366v-118h190v118h84v174h-84v164h-190v-164h-126zM366 1064l136 108v-542h200v770h-180l-262 -194zM732 1430l224 -166v-504l450 702l212 -132l224 -166l-256 -398l104 -30l226 -166
l-38 -104l196 -140v-104l84 -60v-238h-84v-118h-244l-6 4l-160 114h-208l-222 164v128l-282 -438l-280 174l-160 118l234 366h-52l-222 164v340l-112 82l-142 192l294 216h220z" />
    <glyph glyph-name="onehalf" unicode="&#xbd;" horiz-adv-x="2164" 
d="M366 1064l136 108v-542h200v770h-180l-262 -194zM554 80l160 -100l862 1340l-160 100zM1350 0h550v174h-234q59 38 114 100q108 118 108 248q0 121 -75.5 191.5t-222.5 70.5q-149 0 -252 -56l66 -166q71 46 158 46q126 0 126 -84q0 -46 -23.5 -89t-72.5 -95
q-99 -104 -242 -208v-132zM2154 28v-222h-612l-222 164v176q168 123 262 228l-168 124l-462 -720l-280 174l-160 118l234 366h-52l-222 164v340l-112 82l-142 192l294 216h220l224 -166v-504l450 702l212 -132l224 -166l-226 -350q125 -6 228 -80l178 -130
q63 -46 91.5 -104.5t28.5 -147.5q0 -127 -94 -242z" />
    <glyph glyph-name="threequarters" unicode="&#xbe;" horiz-adv-x="2164" 
d="M554 80l160 -100l862 1340l-160 100zM706 1014q120 52 120 182q0 103 -79 160.5t-209 57.5q-153 0 -254 -54l62 -164q68 44 162 44q55 0 86.5 -18t31.5 -48q0 -39 -34 -56.5t-126 -17.5h-62v-172h60q92 0 132 -17t40 -53t-29 -52t-91 -16q-98 0 -194 48l-62 -164
q122 -58 280 -58q137 0 216.5 60.5t79.5 165.5q0 66 -35.5 109.5t-94.5 62.5zM952 -222l-280 174l-160 118l226 352q-173 11 -312 86l-204 150l84 222q82 -44 172 -58l-104 76v222l-42 30l-86 224q136 70 292 70q83 0 140.5 -20.5t113.5 -61.5l178 -130q110 -80 110 -206
q0 -116 -90 -180l14 -10l402 626l212 -132l224 -166l-256 -398l104 -30l226 -166l-38 -104l196 -140v-104l84 -60v-238h-84v-118h-244l-6 4l-160 114h-208l-222 164v128zM1504 292l148 424l-196 60l-192 -524v-134h366v-118h190v118h84v174h-84v164h-190v-164h-126z" />
    <glyph glyph-name="questiondown" unicode="&#xbf;" horiz-adv-x="1440" 
d="M920 1000h-280v-66q0 -67 -25.5 -105.5t-100.5 -90.5q-204 -140 -204 -366q0 -181 123 -288.5t323 -107.5q217 0 384 82l-88 228q-115 -64 -250 -64q-89 0 -144.5 38t-55.5 114q0 67 38.5 120.5t119.5 109.5q86 61 123 130t37 176v90zM780 1424q-160 0 -160 -162
t160 -162t160 162t-160 162zM780 1454q80 0 142 -44l178 -132q54 -40 74 -83.5t20 -102.5q0 -128 -96 -168l76 -54v-128q0 -113 -39 -187t-131 -139q-116 -81 -142 -160q110 17 206 72l220 -160l112 -290q-191 -94 -414 -94q-215 0 -364 108l-140 102q-202 149 -202 378
q0 242 216 390q66 45 90 80t24 92v96h144l-104 76q-60 46 -60 156q0 192 190 192z" />
    <glyph glyph-name="Agrave" unicode="&#xc0;" horiz-adv-x="1784" 
d="M682 448l210 544l210 -544h-420zM1194 208l80 -208h300l-566 1400h-232l-566 -1400h300l80 208h604zM1254 -30l-18 44h-400l-80 -208h-368l-222 164l590 1460h272l218 -160l592 -1464h-362zM1058 478l-22 54l-22 -54h44zM694 1936l-118 -186q87 -67 214 -121.5t250 -80.5
l72 114zM536 1744l150 236l468 -308l224 -166l-98 -156q-172 38 -315.5 109.5t-318.5 202.5z" />
    <glyph glyph-name="Aacute" unicode="&#xc1;" horiz-adv-x="1784" 
d="M1254 -30l-18 44h-400l-80 -208h-368l-222 164l590 1460h86l-112 82l-100 160l468 308l214 -158l158 -248q-149 -116 -380 -190l156 -114l592 -1464h-362zM1208 1750l-118 186l-418 -274l72 -114q123 26 250 80.5t214 121.5zM682 448l210 544l210 -544h-420zM1194 208
l80 -208h300l-566 1400h-232l-566 -1400h300l80 208h604zM1058 478l-22 54l-22 -54h44z" />
    <glyph glyph-name="Acircumflex" unicode="&#xc2;" horiz-adv-x="1784" 
d="M678 1506l-138 130q135 188 300 308h104l140 -102q121 -88 219.5 -186.5t162.5 -189.5l-134 -126l-230 168l-92 -78h18l218 -160l592 -1464h-362l-222 164l-18 44h-400l-80 -208h-368l-222 164l590 1460h24zM934 1914h-84q-150 -108 -270 -276l98 -92l214 178l214 -178
l98 92q-120 168 -270 276zM682 448l210 544l210 -544h-420zM1194 208l80 -208h300l-566 1400h-232l-566 -1400h300l80 208h604zM1058 478l-22 54l-22 -54h44z" />
    <glyph glyph-name="Atilde" unicode="&#xc3;" horiz-adv-x="1784" 
d="M514 1648q100 226 258 226q76 0 156 -56q53 -38 82 -38q19 0 37 19.5t51 72.5l174 -96l226 -166q-101 -224 -254 -224q-74 0 -152 54q-54 40 -86 40t-68 -50h90l218 -160l592 -1464h-362l-222 164l-18 44h-400l-80 -208h-368l-222 164l590 1460h86l-132 74zM554 1662
l122 -70q28 46 49.5 64t50.5 18q38 0 100 -44q71 -50 138 -50q137 0 218 182l-122 70q-28 -46 -49.5 -64t-50.5 -18q-38 0 -100 44q-71 50 -138 50q-137 0 -218 -182zM682 448l210 544l210 -544h-420zM1194 208l80 -208h300l-566 1400h-232l-566 -1400h300l80 208h604z
M1058 478l-22 54l-22 -54h44z" />
    <glyph glyph-name="Adieresis" unicode="&#xc4;" horiz-adv-x="1784" 
d="M1206 1444l-136 96q-9 -80 -66 -110h24l218 -160l592 -1464h-362l-222 164l-18 44h-400l-80 -208h-368l-222 164l590 1460h54q-17 7 -24 14l-194 138q-41 30 -58.5 65.5t-17.5 90.5q0 82 43 124t123 42q73 0 128 -40l128 -94q7 66 49.5 100t114.5 34q73 0 128 -40
l202 -146q60 -44 60 -148q0 -160 -160 -160q-77 0 -126 34zM1102 1602q136 0 136 136t-136 136t-136 -136t136 -136zM682 1602q136 0 136 136t-136 136t-136 -136t136 -136zM682 448l210 544l210 -544h-420zM1194 208l80 -208h300l-566 1400h-232l-566 -1400h300l80 208h604
zM1058 478l-22 54l-22 -54h44z" />
    <glyph glyph-name="Aring" unicode="&#xc5;" horiz-adv-x="1784" 
d="M1090 1920l174 -126q60 -44 87 -95.5t27 -124.5q0 -94 -60.5 -162t-155.5 -82l84 -60l592 -1464h-362l-222 164l-18 44h-400l-80 -208h-368l-222 164l590 1460h120l-110 80q-67 50 -101.5 102t-34.5 130q0 107 75 179.5t187 72.5q57 0 102.5 -18.5t95.5 -55.5zM892 1964
q-99 0 -165.5 -64.5t-66.5 -157.5t66.5 -157.5t165.5 -64.5t165.5 64.5t66.5 157.5t-66.5 157.5t-165.5 64.5zM892 1660q-33 0 -56.5 24t-23.5 58t23.5 58t56.5 24t56.5 -24t23.5 -58t-23.5 -58t-56.5 -24zM682 448l210 544l210 -544h-420zM1194 208l80 -208h300l-566 1400
h-232l-566 -1400h300l80 208h604zM1058 478l-22 54l-22 -54h44z" />
    <glyph glyph-name="AE" unicode="&#xc6;" horiz-adv-x="2254" 
d="M754 448l312 608v-608h-312zM1926 1400h-994l-742 -1400h336l106 208h434v-208h878v244h-590v292h480v244h-480v376h572v244zM1956 1430l224 -166v-302h-572v-152h256l224 -166v-302h-480v-68h366l224 -166v-302h-940l-222 164v44h-158l-108 -208h-410l-222 164l774 1460
h1044z" />
    <glyph glyph-name="Ccedilla" unicode="&#xc7;" horiz-adv-x="1702" 
d="M1322 -260l56 -42q76 -56 76 -144q0 -108 -83.5 -166t-230.5 -58q-92 0 -186 22l-220 162l40 208q69 -22 106 -22h24l-110 84l-30 52l38 64q-10 6 -46 32l-240 182q-131 100 -203.5 252t-72.5 334q0 166 62 308.5t167 239.5t244.5 151.5t292.5 54.5q232 0 424 -88
l226 -166l-110 -284q-135 66 -304 66q-182 0 -304 -127t-122 -325q0 -144 66 -254q63 -22 146 -22q164 0 302 72l220 -162l112 -292q-133 -69 -314 -86zM798 -318l-28 -144q70 -14 140 -14q137 0 213.5 52t76.5 148q0 60 -40.5 102.5t-109.5 57.5l54 94q175 13 298 76
l-88 230q-117 -60 -286 -60q-90 0 -172.5 31.5t-148.5 89.5t-105.5 150.5t-39.5 204.5q0 208 129 342t321 134q180 0 292 -56l88 228q-169 76 -386 76q-147 0 -281 -52.5t-235 -145.5t-160.5 -230t-59.5 -296q0 -146 48 -271.5t132 -215t196 -147.5t242 -78l-88 -152l12 -22
q170 -3 170 -80q0 -64 -90 -64q-52 0 -94 12z" />
    <glyph glyph-name="Egrave" unicode="&#xc8;" horiz-adv-x="1558" 
d="M466 1744l150 236l468 -308l224 -166l-48 -76l224 -166v-302h-572v-152h256l224 -166v-302h-480v-68h366l224 -166v-302h-940l-222 164v1460h618q-176 76 -382 232zM624 1936l-118 -186q87 -67 214 -121.5t250 -80.5l72 114zM370 1400v-1400h878v244h-590v292h480v244
h-480v376h572v244h-860z" />
    <glyph glyph-name="Eacute" unicode="&#xc9;" horiz-adv-x="1558" 
d="M340 -30v1460h378l-112 82l-100 160l468 308l214 -158l158 -248q-105 -81 -256 -144h170l224 -166v-302h-572v-152h256l224 -166v-302h-480v-68h366l224 -166v-302h-940zM1084 1750l-118 186l-418 -274l72 -114q123 26 250 80.5t214 121.5zM370 1400v-1400h878v244h-590
v292h480v244h-480v376h572v244h-860z" />
    <glyph glyph-name="Ecircumflex" unicode="&#xca;" horiz-adv-x="1558" 
d="M586 1506l-138 130q135 188 300 308h104l140 -102q121 -88 219.5 -186.5t162.5 -189.5l-72 -68l182 -134v-302h-572v-152h256l224 -166v-302h-480v-68h366l224 -166v-302h-940l-222 164v1460h348zM842 1914h-84q-150 -108 -270 -276l98 -92l214 178l214 -178l98 92
q-120 168 -270 276zM1010 1508l-92 -78h198zM370 1400v-1400h878v244h-590v292h480v244h-480v376h572v244h-860z" />
    <glyph glyph-name="Edieresis" unicode="&#xcb;" horiz-adv-x="1558" 
d="M370 1400v-1400h878v244h-590v292h480v244h-480v376h572v244h-860zM340 -30v1460h920l224 -166v-302h-572v-152h256l224 -166v-302h-480v-68h366l224 -166v-302h-940zM1114 1444l-136 96q-15 -130 -158 -130q-77 0 -126 34l-194 138q-41 30 -58.5 65.5t-17.5 90.5
q0 82 43 124t123 42q73 0 128 -40l128 -94q7 66 49.5 100t114.5 34q73 0 128 -40l202 -146q60 -44 60 -148q0 -160 -160 -160q-77 0 -126 34zM590 1602q136 0 136 136t-136 136t-136 -136t136 -136zM1010 1602q136 0 136 136t-136 136t-136 -136t136 -136z" />
    <glyph glyph-name="Igrave" unicode="&#xcc;" horiz-adv-x="1048" 
d="M668 1400h-288v-1400h288v1400zM350 -30v1460h348l224 -166v-1458h-350zM326 1936l-118 -186q87 -67 214 -121.5t250 -80.5l72 114zM168 1744l150 236l468 -308l224 -166l-98 -156q-172 38 -315.5 109.5t-318.5 202.5z" />
    <glyph glyph-name="Iacute" unicode="&#xcd;" horiz-adv-x="1048" 
d="M350 -30v1460h124l-112 82l-100 160l468 308l214 -158l158 -248q-139 -109 -354 -182l174 -128v-1458h-350zM840 1750l-118 186l-418 -274l72 -114q123 26 250 80.5t214 121.5zM668 1400h-288v-1400h288v1400z" />
    <glyph glyph-name="Icircumflex" unicode="&#xce;" horiz-adv-x="1048" 
d="M310 1506l-138 130q135 188 300 308h104l140 -102q121 -88 219.5 -186.5t162.5 -189.5l-134 -126l-230 168l-92 -78h56l224 -166v-1458h-350l-222 164v1460h62zM566 1914h-84q-150 -108 -270 -276l98 -92l214 178l214 -178l98 92q-120 168 -270 276zM668 1400h-288v-1400
h288v1400z" />
    <glyph glyph-name="Idieresis" unicode="&#xcf;" horiz-adv-x="1048" 
d="M668 1400h-288v-1400h288v1400zM350 -30v1460h348l224 -166v-1458h-350zM838 1444l-136 96q-15 -130 -158 -130q-77 0 -126 34l-194 138q-41 30 -58.5 65.5t-17.5 90.5q0 82 43 124t123 42q73 0 128 -40l128 -94q7 66 49.5 100t114.5 34q73 0 128 -40l202 -146
q60 -44 60 -148q0 -160 -160 -160q-77 0 -126 34zM314 1602q136 0 136 136t-136 136t-136 -136t136 -136zM734 1602q136 0 136 136t-136 136t-136 -136t136 -136z" />
    <glyph glyph-name="Eth" unicode="&#xd0;" horiz-adv-x="1902" 
d="M200 510v242h174v678h498q166 0 301.5 -42.5t256.5 -133.5l176 -132q280 -212 280 -592q0 -227 -98.5 -391.5t-274.5 -248.5t-411 -84h-506l-222 164v410zM1310 698q0 140 -64 246q-66 18 -142 18h-158v-210h28l224 -166v-192q112 112 112 304zM946 278q108 12 192 68
h-192v-68zM1632 700q0 218 -95.5 377.5t-266.5 241t-398 81.5h-468v-678h-174v-182h174v-540h468q228 0 398.5 81t266 240.5t95.5 378.5zM1340 698q0 -218 -130.5 -336t-335.5 -118h-182v296h252v182h-252v434h182q99 0 183.5 -29t147.5 -85t99 -144t36 -200z" />
    <glyph glyph-name="Ntilde" unicode="&#xd1;" horiz-adv-x="1906" 
d="M574 1648q100 226 258 226q76 0 156 -56q53 -38 82 -38q19 0 37 19.5t51 72.5l174 -96l226 -166q-55 -123 -130 -180h138l224 -166v-1458h-258l-222 164l-398 526v-690h-350l-222 164v1460h256l214 -158l408 -538v668q-37 17 -66 38q-54 40 -86 40q-22 0 -41.5 -19.5
t-50.5 -70.5l-204 114zM614 1662l122 -70q28 46 49.5 64t50.5 18q38 0 100 -44q71 -50 138 -50q137 0 218 182l-122 70q-28 -46 -49.5 -64t-50.5 -18q-38 0 -100 44q-71 50 -138 50q-137 0 -218 -182zM370 1400v-1400h288v880l666 -880h212v1400h-288v-878l-666 878h-212z
" />
    <glyph glyph-name="Ograve" unicode="&#xd2;" 
d="M816 530q0 -145 70 -256q60 -20 134 -20q180 0 304 125.5t124 320.5q0 149 -80 264q-57 18 -118 18q-183 0 -308.5 -127t-125.5 -325zM240 700q0 217 103.5 390t281.5 268.5t395 95.5q288 0 506 -166l196 -150q163 -125 232.5 -269t69.5 -339q0 -161 -60 -301
t-164 -237.5t-246.5 -153.5t-303.5 -56q-294 0 -504 158l-228 170q-128 96 -203 251.5t-75 338.5zM562 700q0 208 132 342t326 134t326 -134t132 -342t-132 -342t-326 -134t-326 134t-132 342zM270 700q0 -156 58.5 -291.5t159 -230t238.5 -148.5t294 -54t294 54
t238.5 148.5t159 230t58.5 291.5t-58.5 291.5t-159 230t-238.5 148.5t-294 54t-294 -54t-238.5 -148.5t-159 -230t-58.5 -291.5zM848 1936l-118 -186q87 -67 214 -121.5t250 -80.5l72 114zM690 1744l150 236l468 -308l224 -166l-98 -156q-172 38 -315.5 109.5t-318.5 202.5z
" />
    <glyph glyph-name="Oacute" unicode="&#xd3;" 
d="M240 700q0 149 51.5 281t141.5 228.5t214.5 159t268.5 79.5l-86 64l-100 160l468 308l214 -158l158 -248q-117 -91 -290 -158q131 -43 246 -128l196 -150q164 -123 233 -267.5t69 -340.5q0 -161 -60 -301t-164 -237.5t-246.5 -153.5t-303.5 -56q-294 0 -504 158l-228 170
q-127 97 -202.5 252.5t-75.5 337.5zM1308 1750l-118 186l-418 -274l72 -114q123 26 250 80.5t214 121.5zM816 530q0 -145 70 -256q60 -20 134 -20q180 0 304 125.5t124 320.5q0 149 -80 264q-57 18 -118 18q-183 0 -308.5 -127t-125.5 -325zM562 700q0 208 132 342t326 134
t326 -134t132 -342t-132 -342t-326 -134t-326 134t-132 342zM270 700q0 -156 58.5 -291.5t159 -230t238.5 -148.5t294 -54t294 54t238.5 148.5t159 230t58.5 291.5t-58.5 291.5t-159 230t-238.5 148.5t-294 54t-294 -54t-238.5 -148.5t-159 -230t-58.5 -291.5z" />
    <glyph glyph-name="Ocircumflex" unicode="&#xd4;" 
d="M806 1506l-138 130q135 188 300 308h104l140 -102q121 -88 219.5 -186.5t162.5 -189.5l-134 -126l-230 168l-76 -64q210 -32 372 -156l196 -150q164 -123 233 -267.5t69 -340.5q0 -161 -60 -301t-164 -237.5t-246.5 -153.5t-303.5 -56q-294 0 -504 158l-228 170
q-127 97 -202.5 252.5t-75.5 337.5q0 293 183 498t467 246zM1062 1914h-84q-150 -108 -270 -276l98 -92l214 178l214 -178l98 92q-120 168 -270 276zM816 530q0 -145 70 -256q60 -20 134 -20q180 0 304 125.5t124 320.5q0 149 -80 264q-57 18 -118 18q-183 0 -308.5 -127
t-125.5 -325zM562 700q0 208 132 342t326 134t326 -134t132 -342t-132 -342t-326 -134t-326 134t-132 342zM270 700q0 -156 58.5 -291.5t159 -230t238.5 -148.5t294 -54t294 54t238.5 148.5t159 230t58.5 291.5t-58.5 291.5t-159 230t-238.5 148.5t-294 54t-294 -54
t-238.5 -148.5t-159 -230t-58.5 -291.5z" />
    <glyph glyph-name="Otilde" unicode="&#xd5;" 
d="M642 1648q100 226 258 226q76 0 156 -56q53 -38 82 -38q19 0 37 19.5t51 72.5l174 -96l226 -166q-101 -224 -254 -224h-14q90 -41 168 -98l196 -150q164 -123 233 -267.5t69 -340.5q0 -161 -60 -301t-164 -237.5t-246.5 -153.5t-303.5 -56q-294 0 -504 158l-228 170
q-127 97 -202.5 252.5t-75.5 337.5q0 202 91 367.5t248.5 264.5t354.5 118l-96 54zM682 1662l122 -70q28 46 49.5 64t50.5 18q38 0 100 -44q71 -50 138 -50q137 0 218 182l-122 70q-28 -46 -49.5 -64t-50.5 -18q-38 0 -100 44q-71 50 -138 50q-137 0 -218 -182zM1084 1452
q84 -6 154 -26q-12 8 -18 14q-54 40 -86 40q-28 0 -50 -28zM816 530q0 -145 70 -256q60 -20 134 -20q180 0 304 125.5t124 320.5q0 149 -80 264q-57 18 -118 18q-183 0 -308.5 -127t-125.5 -325zM562 700q0 208 132 342t326 134t326 -134t132 -342t-132 -342t-326 -134
t-326 134t-132 342zM270 700q0 -156 58.5 -291.5t159 -230t238.5 -148.5t294 -54t294 54t238.5 148.5t159 230t58.5 291.5t-58.5 291.5t-159 230t-238.5 148.5t-294 54t-294 -54t-238.5 -148.5t-159 -230t-58.5 -291.5z" />
    <glyph glyph-name="Odieresis" unicode="&#xd6;" 
d="M1334 1444l-136 96q-9 -65 -46 -96q208 -31 374 -156l196 -150q164 -123 233 -267.5t69 -340.5q0 -161 -60 -301t-164 -237.5t-246.5 -153.5t-303.5 -56q-294 0 -504 158l-228 170q-127 97 -202.5 252.5t-75.5 337.5q0 198 87.5 360.5t238.5 262t342 123.5l-188 136
q-41 30 -58.5 65.5t-17.5 90.5q0 82 43 124t123 42q73 0 128 -40l128 -94q7 66 49.5 100t114.5 34q73 0 128 -40l202 -146q60 -44 60 -148q0 -160 -160 -160q-77 0 -126 34zM1230 1602q136 0 136 136t-136 136t-136 -136t136 -136zM810 1602q136 0 136 136t-136 136
t-136 -136t136 -136zM816 530q0 -145 70 -256q60 -20 134 -20q180 0 304 125.5t124 320.5q0 149 -80 264q-57 18 -118 18q-183 0 -308.5 -127t-125.5 -325zM562 700q0 208 132 342t326 134t326 -134t132 -342t-132 -342t-326 -134t-326 134t-132 342zM270 700
q0 -156 58.5 -291.5t159 -230t238.5 -148.5t294 -54t294 54t238.5 148.5t159 230t58.5 291.5t-58.5 291.5t-159 230t-238.5 148.5t-294 54t-294 -54t-238.5 -148.5t-159 -230t-58.5 -291.5z" />
    <glyph glyph-name="multiply" unicode="&#xd7;" horiz-adv-x="1668" 
d="M834 522l282 -284l174 174l-284 282l284 282l-174 174l-282 -284l-282 284l-174 -174l284 -282l-284 -282l174 -174zM1114 196l-86 88l-250 -252l-226 166l-214 214l284 282l-284 282l214 214l200 -148l108 -110l256 258l200 -146l236 -238l-284 -282l284 -282l-212 -212
z" />
    <glyph glyph-name="Oslash" unicode="&#xd8;" 
d="M240 700q0 217 103.5 390t281.5 268.5t395 95.5q259 0 462 -136l222 222l200 -146l178 -180l-212 -214q82 -96 118 -211t36 -259q0 -161 -60 -301t-164 -237.5t-246.5 -153.5t-303.5 -56q-270 0 -468 132l-220 -222l-226 168l-156 156l216 216q-156 202 -156 468z
M836 672l294 294q-107 -30 -185 -107.5t-109 -186.5zM1428 558l-288 -288q103 29 179 105t109 183zM270 700q0 -270 166 -468l-216 -216l116 -116l220 220q200 -144 464 -144q156 0 294 54t238.5 148.5t159 230t58.5 291.5q0 273 -168 466l218 218l-116 116l-222 -222
q-196 146 -462 146q-156 0 -294 -54t-238.5 -148.5t-159 -230t-58.5 -291.5zM562 700q0 208 132 342t326 134q153 0 272 -88l-656 -656q-74 114 -74 268zM1478 700q0 -208 -132 -342t-326 -134q-157 0 -274 86l658 658q74 -119 74 -268z" />
    <glyph glyph-name="Ugrave" unicode="&#xd9;" horiz-adv-x="1916" 
d="M590 1744l150 236l468 -308l224 -166l-48 -76h192l224 -166v-842q0 -160 -48 -284.5t-133 -201t-194 -115.5t-237 -39q-125 0 -228 31t-216 115l-176 130q-109 81 -168.5 220.5t-59.5 313.5v838h348l224 -166v-860q0 -78 24 -150h22q115 0 192.5 80.5t77.5 239.5v802
q-135 41 -257.5 108t-270.5 178zM748 1936l-118 -186q87 -67 214 -121.5t250 -80.5l72 114zM958 -24q123 0 227.5 37.5t186 111t128 193.5t46.5 274v808h-288v-826q0 -89 -24.5 -158t-67 -110t-95.5 -61.5t-113 -20.5t-113 20.5t-95.5 61.5t-67 110t-24.5 158v826h-288v-808
q0 -154 46.5 -274t128 -193.5t186 -111t227.5 -37.5z" />
    <glyph glyph-name="Uacute" unicode="&#xda;" horiz-adv-x="1916" 
d="M340 1430h348l224 -166v-860q0 -78 24 -150h22q115 0 192.5 80.5t77.5 239.5v856h348l224 -166v-842q0 -160 -48 -284.5t-133 -201t-194 -115.5t-237 -39q-125 0 -228 31t-216 115l-176 130q-109 81 -168.5 220.5t-59.5 313.5v838zM958 -24q123 0 227.5 37.5t186 111
t128 193.5t46.5 274v808h-288v-826q0 -89 -24.5 -158t-67 -110t-95.5 -61.5t-113 -20.5t-113 20.5t-95.5 61.5t-67 110t-24.5 158v826h-288v-808q0 -154 46.5 -274t128 -193.5t186 -111t227.5 -37.5zM1032 1348l-224 164l-100 160l468 308l214 -158l158 -248
q-98 -76 -239.5 -137t-276.5 -89zM1286 1750l-118 186l-418 -274l72 -114q123 26 250 80.5t214 121.5z" />
    <glyph glyph-name="Ucircumflex" unicode="&#xdb;" horiz-adv-x="1916" 
d="M744 1506l-138 130q135 188 300 308h104l140 -102q121 -88 219.5 -186.5t162.5 -189.5l-38 -36h82l224 -166v-842q0 -160 -48 -284.5t-133 -201t-194 -115.5t-237 -39q-125 0 -228 31t-216 115l-176 130q-109 81 -168.5 220.5t-59.5 313.5v838h348l224 -166v-860
q0 -78 24 -150h22q115 0 192.5 80.5t77.5 239.5v856h46l-106 78l-198 -168zM1000 1914h-84q-150 -108 -270 -276l98 -92l214 178l214 -178l98 92q-120 168 -270 276zM958 -24q123 0 227.5 37.5t186 111t128 193.5t46.5 274v808h-288v-826q0 -89 -24.5 -158t-67 -110
t-95.5 -61.5t-113 -20.5t-113 20.5t-95.5 61.5t-67 110t-24.5 158v826h-288v-808q0 -154 46.5 -274t128 -193.5t186 -111t227.5 -37.5z" />
    <glyph glyph-name="Udieresis" unicode="&#xdc;" horiz-adv-x="1916" 
d="M340 1430h348l224 -166v-860q0 -78 24 -150h22q115 0 192.5 80.5t77.5 239.5v856h348l224 -166v-842q0 -160 -48 -284.5t-133 -201t-194 -115.5t-237 -39q-125 0 -228 31t-216 115l-176 130q-109 81 -168.5 220.5t-59.5 313.5v838zM958 -24q123 0 227.5 37.5t186 111
t128 193.5t46.5 274v808h-288v-826q0 -89 -24.5 -158t-67 -110t-95.5 -61.5t-113 -20.5t-113 20.5t-95.5 61.5t-67 110t-24.5 158v826h-288v-808q0 -154 46.5 -274t128 -193.5t186 -111t227.5 -37.5zM1272 1444l-136 96q-15 -130 -158 -130q-77 0 -126 34l-194 138
q-41 30 -58.5 65.5t-17.5 90.5q0 82 43 124t123 42q73 0 128 -40l128 -94q7 66 49.5 100t114.5 34q73 0 128 -40l202 -146q60 -44 60 -148q0 -160 -160 -160q-77 0 -126 34zM748 1602q136 0 136 136t-136 136t-136 -136t136 -136zM1168 1602q136 0 136 136t-136 136
t-136 -136t136 -136z" />
    <glyph glyph-name="Yacute" unicode="&#xdd;" horiz-adv-x="1816" 
d="M574 1430l220 -162l182 -360l266 522h378l234 -166l-548 -1014v-444h-350l-222 164v448l-546 1012h386zM764 0h288v428l524 972h-316l-352 -688l-352 688h-316l524 -972v-428zM970 1348l-224 164l-100 160l468 308l214 -158l158 -248q-98 -76 -239.5 -137t-276.5 -89z
M1224 1750l-118 186l-418 -274l72 -114q123 26 250 80.5t214 121.5z" />
    <glyph glyph-name="Thorn" unicode="&#xde;" horiz-adv-x="1668" 
d="M1086 700q0 52 -16 100h-158v-352q79 22 126.5 85.5t47.5 166.5zM688 1430l222 -168q188 -14 370 -150l142 -104q240 -177 240 -478q0 -177 -82.5 -305.5t-222.5 -192.5t-321 -64h-124v-162h-350l-222 164v1460h348zM1408 700q0 169 -79 292t-214 184.5t-309 61.5h-148
v162h-288v-1400h288v162h148q174 0 309 61.5t214 184.5t79 292zM1116 700q0 -144 -83 -219t-207 -75h-168v588h168q124 0 207 -75t83 -219z" />
    <glyph glyph-name="germandbls" unicode="&#xdf;" horiz-adv-x="1706" 
d="M824 260l-88 -230q140 -54 284 -54q201 0 313.5 84.5t112.5 239.5q0 113 -86.5 208.5t-221.5 143.5q98 49 155 132.5t57 197.5q0 193 -138.5 317.5t-351.5 124.5q-244 0 -372 -146t-128 -426v-852h288v912q0 131 54.5 199.5t157.5 68.5q89 0 143.5 -58.5t54.5 -147.5
q0 -87 -55 -153t-151 -101v-168q130 -15 216 -75.5t86 -142.5q0 -54 -40.5 -84t-121.5 -30q-91 0 -168 40zM902 474v-210q45 -14 90 -14q132 0 132 84q0 8 -2 14q-20 4 -64 12zM1028 976q-117 -35 -126 -198q126 78 126 198zM1250 -218q-153 0 -306 58l-42 30v-64h-350
l-222 164v882q0 295 135.5 448.5t394.5 153.5q205 0 374 -124l138 -102q232 -172 232 -416q0 -201 -170 -318q34 -20 98 -68q168 -134 168 -296q0 -167 -119 -257.5t-331 -90.5z" />
    <glyph glyph-name="agrave" unicode="&#xe0;" horiz-adv-x="1784" 
d="M694 1936l-118 -186q87 -67 214 -121.5t250 -80.5l72 114zM536 1744l150 236l468 -308l224 -166l-98 -156q-172 38 -315.5 109.5t-318.5 202.5zM682 448l210 544l210 -544h-420zM1194 208l80 -208h300l-566 1400h-232l-566 -1400h300l80 208h604zM1254 -30l-18 44h-400
l-80 -208h-368l-222 164l590 1460h272l218 -160l592 -1464h-362zM1058 478l-22 54l-22 -54h44z" />
    <glyph glyph-name="aacute" unicode="&#xe1;" horiz-adv-x="1784" 
d="M1254 -30l-18 44h-400l-80 -208h-368l-222 164l590 1460h86l-112 82l-100 160l468 308l214 -158l158 -248q-149 -116 -380 -190l156 -114l592 -1464h-362zM1208 1750l-118 186l-418 -274l72 -114q123 26 250 80.5t214 121.5zM682 448l210 544l210 -544h-420zM1194 208
l80 -208h300l-566 1400h-232l-566 -1400h300l80 208h604zM1058 478l-22 54l-22 -54h44z" />
    <glyph glyph-name="acircumflex" unicode="&#xe2;" horiz-adv-x="1784" 
d="M678 1506l-138 130q135 188 300 308h104l140 -102q121 -88 219.5 -186.5t162.5 -189.5l-134 -126l-230 168l-92 -78h18l218 -160l592 -1464h-362l-222 164l-18 44h-400l-80 -208h-368l-222 164l590 1460h24zM934 1914h-84q-150 -108 -270 -276l98 -92l214 178l214 -178
l98 92q-120 168 -270 276zM682 448l210 544l210 -544h-420zM1194 208l80 -208h300l-566 1400h-232l-566 -1400h300l80 208h604zM1058 478l-22 54l-22 -54h44z" />
    <glyph glyph-name="atilde" unicode="&#xe3;" horiz-adv-x="1784" 
d="M1254 -30l-18 44h-400l-80 -208h-368l-222 164l590 1460h86l-132 74l-196 144q100 226 258 226q76 0 156 -56q53 -38 82 -38q19 0 37 19.5t51 72.5l174 -96l226 -166q-101 -224 -254 -224q-74 0 -152 54q-54 40 -86 40t-68 -50h90l218 -160l592 -1464h-362zM554 1662
l122 -70q28 46 49.5 64t50.5 18q38 0 100 -44q71 -50 138 -50q137 0 218 182l-122 70q-28 -46 -49.5 -64t-50.5 -18q-38 0 -100 44q-71 50 -138 50q-137 0 -218 -182zM682 448l210 544l210 -544h-420zM1194 208l80 -208h300l-566 1400h-232l-566 -1400h300l80 208h604z
M1058 478l-22 54l-22 -54h44z" />
    <glyph glyph-name="adieresis" unicode="&#xe4;" horiz-adv-x="1784" 
d="M1206 1444l-136 96q-15 -130 -158 -130q-77 0 -126 34l-194 138q-41 30 -58.5 65.5t-17.5 90.5q0 82 43 124t123 42q73 0 128 -40l128 -94q7 66 49.5 100t114.5 34q73 0 128 -40l202 -146q60 -44 60 -148q0 -160 -160 -160q-77 0 -126 34zM682 1602q136 0 136 136
t-136 136t-136 -136t136 -136zM1102 1602q136 0 136 136t-136 136t-136 -136t136 -136zM682 448l210 544l210 -544h-420zM1194 208l80 -208h300l-566 1400h-232l-566 -1400h300l80 208h604zM1254 -30l-18 44h-400l-80 -208h-368l-222 164l590 1460h272l218 -160l592 -1464
h-362zM1058 478l-22 54l-22 -54h44z" />
    <glyph glyph-name="aring" unicode="&#xe5;" horiz-adv-x="1784" 
d="M1090 1920l174 -126q60 -44 87 -95.5t27 -124.5q0 -94 -60.5 -162t-155.5 -82l84 -60l592 -1464h-362l-222 164l-18 44h-400l-80 -208h-368l-222 164l590 1460h120l-110 80q-67 50 -101.5 102t-34.5 130q0 107 75 179.5t187 72.5q57 0 102.5 -18.5t95.5 -55.5zM892 1964
q-99 0 -165.5 -64.5t-66.5 -157.5t66.5 -157.5t165.5 -64.5t165.5 64.5t66.5 157.5t-66.5 157.5t-165.5 64.5zM892 1660q-33 0 -56.5 24t-23.5 58t23.5 58t56.5 24t56.5 -24t23.5 -58t-23.5 -58t-56.5 -24zM682 448l210 544l210 -544h-420zM1194 208l80 -208h300l-566 1400
h-232l-566 -1400h300l80 208h604zM1058 478l-22 54l-22 -54h44z" />
    <glyph glyph-name="ae" unicode="&#xe6;" horiz-adv-x="2254" 
d="M754 448l312 608v-608h-312zM1926 1400h-994l-742 -1400h336l106 208h434v-208h878v244h-590v292h480v244h-480v376h572v244zM1956 1430l224 -166v-302h-572v-152h256l224 -166v-302h-480v-68h366l224 -166v-302h-940l-222 164v44h-158l-108 -208h-410l-222 164l774 1460
h1044z" />
    <glyph glyph-name="ccedilla" unicode="&#xe7;" horiz-adv-x="2010" 
d="M1374 -260l56 -42q76 -56 76 -144q0 -108 -83.5 -166t-230.5 -58q-92 0 -186 22l-220 162l40 208q69 -22 106 -22h24l-110 84l-30 52l28 46q-52 32 -76 48l-196 138q-332 234 -332 632q0 219 105 392.5t282.5 267.5t392.5 94q288 0 506 -166l162 -124q252 -192 314 -442
h-368l-222 164q-19 38 -48 80q-58 16 -114 16q-118 0 -216.5 -55.5t-158 -160t-59.5 -236.5q0 -145 70 -256q60 -20 134 -20q124 0 229.5 69.5t162.5 190.5h368l226 -166q-62 -213 -223.5 -359.5t-374.5 -190.5zM850 -318l-28 -144q70 -14 140 -14q137 0 213.5 52t76.5 148
q0 60 -40.5 102.5t-109.5 57.5l58 104q209 35 365.5 167t214.5 329h-308q-57 -121 -168 -190.5t-244 -69.5q-124 0 -228 58.5t-167 168.5t-63 249t63 249t167 168.5t228 58.5q133 0 244 -69.5t168 -190.5h308q-67 231 -265.5 369.5t-454.5 138.5q-154 0 -291.5 -53
t-239 -147t-160.5 -230t-59 -294q0 -148 51.5 -276.5t140.5 -221t211.5 -151t262.5 -71.5l-84 -144l12 -22q170 -3 170 -80q0 -64 -90 -64q-52 0 -94 12z" />
    <glyph glyph-name="egrave" unicode="&#xe8;" horiz-adv-x="1558" 
d="M466 1744l150 236l468 -308l224 -166l-48 -76l224 -166v-302h-572v-152h256l224 -166v-302h-480v-68h366l224 -166v-302h-940l-222 164v1460h618q-176 76 -382 232zM624 1936l-118 -186q87 -67 214 -121.5t250 -80.5l72 114zM370 1400v-1400h878v244h-590v292h480v244
h-480v376h572v244h-860z" />
    <glyph glyph-name="eacute" unicode="&#xe9;" horiz-adv-x="1558" 
d="M340 -30v1460h378l-112 82l-100 160l468 308l214 -158l158 -248q-105 -81 -256 -144h170l224 -166v-302h-572v-152h256l224 -166v-302h-480v-68h366l224 -166v-302h-940zM1084 1750l-118 186l-418 -274l72 -114q123 26 250 80.5t214 121.5zM370 1400v-1400h878v244h-590
v292h480v244h-480v376h572v244h-860z" />
    <glyph glyph-name="ecircumflex" unicode="&#xea;" horiz-adv-x="1558" 
d="M586 1506l-138 130q135 188 300 308h104l140 -102q121 -88 219.5 -186.5t162.5 -189.5l-72 -68l182 -134v-302h-572v-152h256l224 -166v-302h-480v-68h366l224 -166v-302h-940l-222 164v1460h348zM842 1914h-84q-150 -108 -270 -276l98 -92l214 178l214 -178l98 92
q-120 168 -270 276zM1010 1508l-92 -78h198zM370 1400v-1400h878v244h-590v292h480v244h-480v376h572v244h-860z" />
    <glyph glyph-name="edieresis" unicode="&#xeb;" horiz-adv-x="1558" 
d="M370 1400v-1400h878v244h-590v292h480v244h-480v376h572v244h-860zM340 -30v1460h920l224 -166v-302h-572v-152h256l224 -166v-302h-480v-68h366l224 -166v-302h-940zM1104 1444l-136 96q-15 -130 -158 -130q-77 0 -126 34l-194 138q-41 30 -58.5 65.5t-17.5 90.5
q0 82 43 124t123 42q73 0 128 -40l128 -94q7 66 49.5 100t114.5 34q73 0 128 -40l202 -146q60 -44 60 -148q0 -160 -160 -160q-77 0 -126 34zM580 1602q136 0 136 136t-136 136t-136 -136t136 -136zM1000 1602q136 0 136 136t-136 136t-136 -136t136 -136z" />
    <glyph glyph-name="igrave" unicode="&#xec;" horiz-adv-x="1048" 
d="M326 1936l-118 -186q87 -67 214 -121.5t250 -80.5l72 114zM168 1744l150 236l468 -308l224 -166l-98 -156q-172 38 -315.5 109.5t-318.5 202.5zM668 1400h-288v-1400h288v1400zM350 -30v1460h348l224 -166v-1458h-350z" />
    <glyph glyph-name="iacute" unicode="&#xed;" horiz-adv-x="1048" 
d="M350 -30v1460h124l-112 82l-100 160l468 308l214 -158l158 -248q-139 -109 -354 -182l174 -128v-1458h-350zM840 1750l-118 186l-418 -274l72 -114q123 26 250 80.5t214 121.5zM668 1400h-288v-1400h288v1400z" />
    <glyph glyph-name="icircumflex" unicode="&#xee;" horiz-adv-x="1048" 
d="M310 1506l-138 130q135 188 300 308h104l140 -102q121 -88 219.5 -186.5t162.5 -189.5l-134 -126l-230 168l-92 -78h56l224 -166v-1458h-350l-222 164v1460h62zM566 1914h-84q-150 -108 -270 -276l98 -92l214 178l214 -178l98 92q-120 168 -270 276zM668 1400h-288v-1400
h288v1400z" />
    <glyph glyph-name="idieresis" unicode="&#xef;" horiz-adv-x="1048" 
d="M838 1444l-136 96q-15 -130 -158 -130q-77 0 -126 34l-194 138q-41 30 -58.5 65.5t-17.5 90.5q0 82 43 124t123 42q73 0 128 -40l128 -94q7 66 49.5 100t114.5 34q73 0 128 -40l202 -146q60 -44 60 -148q0 -160 -160 -160q-77 0 -126 34zM314 1602q136 0 136 136
t-136 136t-136 -136t136 -136zM734 1602q136 0 136 136t-136 136t-136 -136t136 -136zM668 1400h-288v-1400h288v1400zM350 -30v1460h348l224 -166v-1458h-350z" />
    <glyph glyph-name="eth" unicode="&#xf0;" horiz-adv-x="1902" 
d="M200 510v242h174v678h498q166 0 301.5 -42.5t256.5 -133.5l176 -132q280 -212 280 -592q0 -227 -98.5 -391.5t-274.5 -248.5t-411 -84h-506l-222 164v410zM1310 698q0 140 -64 246q-66 18 -142 18h-158v-210h28l224 -166v-192q112 112 112 304zM946 278q108 12 192 68
h-192v-68zM1632 700q0 218 -95.5 377.5t-266.5 241t-398 81.5h-468v-678h-174v-182h174v-540h468q228 0 398.5 81t266 240.5t95.5 378.5zM1340 698q0 -218 -130.5 -336t-335.5 -118h-182v296h252v182h-252v434h182q99 0 183.5 -29t147.5 -85t99 -144t36 -200z" />
    <glyph glyph-name="ntilde" unicode="&#xf1;" horiz-adv-x="1906" 
d="M574 1648q100 226 258 226q76 0 156 -56q53 -38 82 -38q19 0 37 19.5t51 72.5l174 -96l226 -166q-55 -123 -130 -180h138l224 -166v-1458h-258l-222 164l-398 526v-690h-350l-222 164v1460h256l214 -158l408 -538v668q-37 17 -66 38q-54 40 -86 40q-22 0 -41.5 -19.5
t-50.5 -70.5l-204 114zM614 1662l122 -70q28 46 49.5 64t50.5 18q38 0 100 -44q71 -50 138 -50q137 0 218 182l-122 70q-28 -46 -49.5 -64t-50.5 -18q-38 0 -100 44q-71 50 -138 50q-137 0 -218 -182zM370 1400v-1400h288v880l666 -880h212v1400h-288v-878l-666 878h-212z
" />
    <glyph glyph-name="ograve" unicode="&#xf2;" 
d="M848 1936l-118 -186q87 -67 214 -121.5t250 -80.5l72 114zM690 1744l150 236l468 -308l224 -166l-98 -156q-172 38 -315.5 109.5t-318.5 202.5zM816 530q0 -145 70 -256q60 -20 134 -20q180 0 304 125.5t124 320.5q0 149 -80 264q-57 18 -118 18q-183 0 -308.5 -127
t-125.5 -325zM240 700q0 217 103.5 390t281.5 268.5t395 95.5q288 0 506 -166l196 -150q163 -125 232.5 -269t69.5 -339q0 -161 -60 -301t-164 -237.5t-246.5 -153.5t-303.5 -56q-294 0 -504 158l-228 170q-128 96 -203 251.5t-75 338.5zM562 700q0 208 132 342t326 134
t326 -134t132 -342t-132 -342t-326 -134t-326 134t-132 342zM270 700q0 -156 58.5 -291.5t159 -230t238.5 -148.5t294 -54t294 54t238.5 148.5t159 230t58.5 291.5t-58.5 291.5t-159 230t-238.5 148.5t-294 54t-294 -54t-238.5 -148.5t-159 -230t-58.5 -291.5z" />
    <glyph glyph-name="oacute" unicode="&#xf3;" 
d="M240 700q0 149 51.5 281t141.5 228.5t214.5 159t268.5 79.5l-86 64l-100 160l468 308l214 -158l158 -248q-117 -91 -290 -158q131 -43 246 -128l196 -150q164 -123 233 -267.5t69 -340.5q0 -161 -60 -301t-164 -237.5t-246.5 -153.5t-303.5 -56q-294 0 -504 158l-228 170
q-127 97 -202.5 252.5t-75.5 337.5zM1308 1750l-118 186l-418 -274l72 -114q123 26 250 80.5t214 121.5zM816 530q0 -145 70 -256q60 -20 134 -20q180 0 304 125.5t124 320.5q0 149 -80 264q-57 18 -118 18q-183 0 -308.5 -127t-125.5 -325zM562 700q0 208 132 342t326 134
t326 -134t132 -342t-132 -342t-326 -134t-326 134t-132 342zM270 700q0 -156 58.5 -291.5t159 -230t238.5 -148.5t294 -54t294 54t238.5 148.5t159 230t58.5 291.5t-58.5 291.5t-159 230t-238.5 148.5t-294 54t-294 -54t-238.5 -148.5t-159 -230t-58.5 -291.5z" />
    <glyph glyph-name="ocircumflex" unicode="&#xf4;" 
d="M806 1506l-138 130q135 188 300 308h104l140 -102q121 -88 219.5 -186.5t162.5 -189.5l-134 -126l-230 168l-76 -64q210 -32 372 -156l196 -150q164 -123 233 -267.5t69 -340.5q0 -161 -60 -301t-164 -237.5t-246.5 -153.5t-303.5 -56q-294 0 -504 158l-228 170
q-127 97 -202.5 252.5t-75.5 337.5q0 293 183 498t467 246zM1062 1914h-84q-150 -108 -270 -276l98 -92l214 178l214 -178l98 92q-120 168 -270 276zM816 530q0 -145 70 -256q60 -20 134 -20q180 0 304 125.5t124 320.5q0 149 -80 264q-57 18 -118 18q-183 0 -308.5 -127
t-125.5 -325zM562 700q0 208 132 342t326 134t326 -134t132 -342t-132 -342t-326 -134t-326 134t-132 342zM270 700q0 -156 58.5 -291.5t159 -230t238.5 -148.5t294 -54t294 54t238.5 148.5t159 230t58.5 291.5t-58.5 291.5t-159 230t-238.5 148.5t-294 54t-294 -54
t-238.5 -148.5t-159 -230t-58.5 -291.5z" />
    <glyph glyph-name="otilde" unicode="&#xf5;" 
d="M642 1648q100 226 258 226q76 0 156 -56q53 -38 82 -38q19 0 37 19.5t51 72.5l174 -96l226 -166q-101 -224 -254 -224h-14q90 -41 168 -98l196 -150q164 -123 233 -267.5t69 -340.5q0 -161 -60 -301t-164 -237.5t-246.5 -153.5t-303.5 -56q-294 0 -504 158l-228 170
q-127 97 -202.5 252.5t-75.5 337.5q0 202 91 367.5t248.5 264.5t354.5 118l-96 54zM682 1662l122 -70q28 46 49.5 64t50.5 18q38 0 100 -44q71 -50 138 -50q137 0 218 182l-122 70q-28 -46 -49.5 -64t-50.5 -18q-38 0 -100 44q-71 50 -138 50q-137 0 -218 -182zM1084 1452
q84 -6 154 -26q-12 8 -18 14q-54 40 -86 40q-28 0 -50 -28zM816 530q0 -145 70 -256q60 -20 134 -20q180 0 304 125.5t124 320.5q0 149 -80 264q-57 18 -118 18q-183 0 -308.5 -127t-125.5 -325zM562 700q0 208 132 342t326 134t326 -134t132 -342t-132 -342t-326 -134
t-326 134t-132 342zM270 700q0 -156 58.5 -291.5t159 -230t238.5 -148.5t294 -54t294 54t238.5 148.5t159 230t58.5 291.5t-58.5 291.5t-159 230t-238.5 148.5t-294 54t-294 -54t-238.5 -148.5t-159 -230t-58.5 -291.5z" />
    <glyph glyph-name="odieresis" unicode="&#xf6;" 
d="M1334 1444l-136 96q-9 -65 -46 -96q208 -31 374 -156l196 -150q164 -123 233 -267.5t69 -340.5q0 -161 -60 -301t-164 -237.5t-246.5 -153.5t-303.5 -56q-294 0 -504 158l-228 170q-127 97 -202.5 252.5t-75.5 337.5q0 198 87.5 360.5t238.5 262t342 123.5l-188 136
q-41 30 -58.5 65.5t-17.5 90.5q0 82 43 124t123 42q73 0 128 -40l128 -94q7 66 49.5 100t114.5 34q73 0 128 -40l202 -146q60 -44 60 -148q0 -160 -160 -160q-77 0 -126 34zM1230 1602q136 0 136 136t-136 136t-136 -136t136 -136zM810 1602q136 0 136 136t-136 136
t-136 -136t136 -136zM816 530q0 -145 70 -256q60 -20 134 -20q180 0 304 125.5t124 320.5q0 149 -80 264q-57 18 -118 18q-183 0 -308.5 -127t-125.5 -325zM562 700q0 208 132 342t326 134t326 -134t132 -342t-132 -342t-326 -134t-326 134t-132 342zM270 700
q0 -156 58.5 -291.5t159 -230t238.5 -148.5t294 -54t294 54t238.5 148.5t159 230t58.5 291.5t-58.5 291.5t-159 230t-238.5 148.5t-294 54t-294 -54t-238.5 -148.5t-159 -230t-58.5 -291.5z" />
    <glyph glyph-name="divide" unicode="&#xf7;" horiz-adv-x="1668" 
d="M926 32l-184 134q-43 32 -61.5 66.5t-18.5 97.5q0 33 6 60h-126l-222 164v282h502l-80 58q-43 32 -61.5 66.5t-18.5 97.5q0 174 172 174q47 0 76 -11t62 -35l184 -134q74 -52 74 -164q0 -28 -6 -52h124l224 -166v-280h-508l92 -66q74 -52 74 -164q0 -168 -166 -168
q-85 0 -138 40zM834 1202q-142 0 -142 -144t142 -144t142 144t-142 144zM834 474q-142 0 -142 -144t142 -144t142 144t-142 144zM350 582h968v224h-968v-224z" />
    <glyph glyph-name="oslash" unicode="&#xf8;" 
d="M240 700q0 217 103.5 390t281.5 268.5t395 95.5q259 0 462 -136l222 222l200 -146l178 -180l-212 -214q82 -96 118 -211t36 -259q0 -161 -60 -301t-164 -237.5t-246.5 -153.5t-303.5 -56q-270 0 -468 132l-220 -222l-226 168l-156 156l216 216q-156 202 -156 468z
M836 672l294 294q-107 -30 -185 -107.5t-109 -186.5zM1428 558l-288 -288q103 29 179 105t109 183zM270 700q0 -270 166 -468l-216 -216l116 -116l220 220q200 -144 464 -144q156 0 294 54t238.5 148.5t159 230t58.5 291.5q0 273 -168 466l218 218l-116 116l-222 -222
q-196 146 -462 146q-156 0 -294 -54t-238.5 -148.5t-159 -230t-58.5 -291.5zM562 700q0 208 132 342t326 134q153 0 272 -88l-656 -656q-74 114 -74 268zM1478 700q0 -208 -132 -342t-326 -134q-157 0 -274 86l658 658q74 -119 74 -268z" />
    <glyph glyph-name="ugrave" unicode="&#xf9;" horiz-adv-x="1916" 
d="M590 1744l150 236l468 -308l224 -166l-48 -76h192l224 -166v-842q0 -160 -48 -284.5t-133 -201t-194 -115.5t-237 -39q-125 0 -228 31t-216 115l-176 130q-109 81 -168.5 220.5t-59.5 313.5v838h348l224 -166v-860q0 -78 24 -150h22q115 0 192.5 80.5t77.5 239.5v802
q-135 41 -257.5 108t-270.5 178zM748 1936l-118 -186q87 -67 214 -121.5t250 -80.5l72 114zM958 -24q123 0 227.5 37.5t186 111t128 193.5t46.5 274v808h-288v-826q0 -89 -24.5 -158t-67 -110t-95.5 -61.5t-113 -20.5t-113 20.5t-95.5 61.5t-67 110t-24.5 158v826h-288v-808
q0 -154 46.5 -274t128 -193.5t186 -111t227.5 -37.5z" />
    <glyph glyph-name="uacute" unicode="&#xfa;" horiz-adv-x="1916" 
d="M1032 1348l-224 164l-100 160l468 308l214 -158l158 -248q-98 -76 -239.5 -137t-276.5 -89zM1286 1750l-118 186l-418 -274l72 -114q123 26 250 80.5t214 121.5zM340 1430h348l224 -166v-860q0 -78 24 -150h22q115 0 192.5 80.5t77.5 239.5v856h348l224 -166v-842
q0 -160 -48 -284.5t-133 -201t-194 -115.5t-237 -39q-125 0 -228 31t-216 115l-176 130q-109 81 -168.5 220.5t-59.5 313.5v838zM958 -24q123 0 227.5 37.5t186 111t128 193.5t46.5 274v808h-288v-826q0 -89 -24.5 -158t-67 -110t-95.5 -61.5t-113 -20.5t-113 20.5
t-95.5 61.5t-67 110t-24.5 158v826h-288v-808q0 -154 46.5 -274t128 -193.5t186 -111t227.5 -37.5z" />
    <glyph glyph-name="ucircumflex" unicode="&#xfb;" horiz-adv-x="1916" 
d="M744 1506l-138 130q135 188 300 308h104l140 -102q121 -88 219.5 -186.5t162.5 -189.5l-38 -36h82l224 -166v-842q0 -160 -48 -284.5t-133 -201t-194 -115.5t-237 -39q-125 0 -228 31t-216 115l-176 130q-109 81 -168.5 220.5t-59.5 313.5v838h348l224 -166v-860
q0 -78 24 -150h22q115 0 192.5 80.5t77.5 239.5v856h46l-106 78l-198 -168zM1000 1914h-84q-150 -108 -270 -276l98 -92l214 178l214 -178l98 92q-120 168 -270 276zM958 -24q123 0 227.5 37.5t186 111t128 193.5t46.5 274v808h-288v-826q0 -89 -24.5 -158t-67 -110
t-95.5 -61.5t-113 -20.5t-113 20.5t-95.5 61.5t-67 110t-24.5 158v826h-288v-808q0 -154 46.5 -274t128 -193.5t186 -111t227.5 -37.5z" />
    <glyph glyph-name="udieresis" unicode="&#xfc;" horiz-adv-x="1916" 
d="M1272 1444l-136 96q-15 -130 -158 -130q-77 0 -126 34l-194 138q-41 30 -58.5 65.5t-17.5 90.5q0 82 43 124t123 42q73 0 128 -40l128 -94q7 66 49.5 100t114.5 34q73 0 128 -40l202 -146q60 -44 60 -148q0 -160 -160 -160q-77 0 -126 34zM748 1602q136 0 136 136
t-136 136t-136 -136t136 -136zM1168 1602q136 0 136 136t-136 136t-136 -136t136 -136zM340 1430h348l224 -166v-860q0 -78 24 -150h22q115 0 192.5 80.5t77.5 239.5v856h348l224 -166v-842q0 -160 -48 -284.5t-133 -201t-194 -115.5t-237 -39q-125 0 -228 31t-216 115
l-176 130q-109 81 -168.5 220.5t-59.5 313.5v838zM958 -24q123 0 227.5 37.5t186 111t128 193.5t46.5 274v808h-288v-826q0 -89 -24.5 -158t-67 -110t-95.5 -61.5t-113 -20.5t-113 20.5t-95.5 61.5t-67 110t-24.5 158v826h-288v-808q0 -154 46.5 -274t128 -193.5t186 -111
t227.5 -37.5z" />
    <glyph glyph-name="yacute" unicode="&#xfd;" horiz-adv-x="1816" 
d="M970 1348l-224 164l-100 160l468 308l214 -158l158 -248q-98 -76 -239.5 -137t-276.5 -89zM1224 1750l-118 186l-418 -274l72 -114q123 26 250 80.5t214 121.5zM574 1430l220 -162l182 -360l266 522h378l234 -166l-548 -1014v-444h-350l-222 164v448l-546 1012h386z
M764 0h288v428l524 972h-316l-352 -688l-352 688h-316l524 -972v-428z" />
    <glyph glyph-name="thorn" unicode="&#xfe;" horiz-adv-x="1668" 
d="M1086 700q0 52 -16 100h-158v-352q79 22 126.5 85.5t47.5 166.5zM688 1430l222 -168q188 -14 370 -150l142 -104q240 -177 240 -478q0 -177 -82.5 -305.5t-222.5 -192.5t-321 -64h-124v-162h-350l-222 164v1460h348zM1408 700q0 169 -79 292t-214 184.5t-309 61.5h-148
v162h-288v-1400h288v162h148q174 0 309 61.5t214 184.5t79 292zM1116 700q0 -144 -83 -219t-207 -75h-168v588h168q124 0 207 -75t83 -219z" />
    <glyph glyph-name="ydieresis" unicode="&#xff;" horiz-adv-x="1816" 
d="M1222 1444l-136 96q-15 -130 -158 -130q-77 0 -126 34l-194 138q-41 30 -58.5 65.5t-17.5 90.5q0 82 43 124t123 42q73 0 128 -40l128 -94q7 66 49.5 100t114.5 34q73 0 128 -40l202 -146q60 -44 60 -148q0 -160 -160 -160q-77 0 -126 34zM698 1602q136 0 136 136
t-136 136t-136 -136t136 -136zM1118 1602q136 0 136 136t-136 136t-136 -136t136 -136zM574 1430l220 -162l182 -360l266 522h378l234 -166l-548 -1014v-444h-350l-222 164v448l-546 1012h386zM764 0h288v428l524 972h-316l-352 -688l-352 688h-316l524 -972v-428z" />
    <glyph glyph-name="Abreve" unicode="&#x102;" horiz-adv-x="1784" 
d="M728 1916l204 -150q78 25 124 150l202 -68l224 -166q-35 -152 -132 -234t-228 -82h-8l132 -96l592 -1464h-362l-222 164l-18 44h-400l-80 -208h-368l-222 164l590 1460h136q-2 1 -22 16l-158 116q-72 53 -117.5 120.5t-68.5 165.5zM892 1560q121 0 209 70.5t119 199.5
l-146 48q-53 -148 -182 -148t-182 148l-146 -48q31 -129 119 -199.5t209 -70.5zM682 448l210 544l210 -544h-420zM1194 208l80 -208h300l-566 1400h-232l-566 -1400h300l80 208h604zM1058 478l-22 54l-22 -54h44z" />
    <glyph glyph-name="abreve" unicode="&#x103;" horiz-adv-x="1784" 
d="M728 1916l204 -150q78 25 124 150l202 -68l224 -166q-35 -152 -132 -234t-228 -82h-8l132 -96l592 -1464h-362l-222 164l-18 44h-400l-80 -208h-368l-222 164l590 1460h136q-2 1 -22 16l-158 116q-72 53 -117.5 120.5t-68.5 165.5zM892 1560q121 0 209 70.5t119 199.5
l-146 48q-53 -148 -182 -148t-182 148l-146 -48q31 -129 119 -199.5t209 -70.5zM682 448l210 544l210 -544h-420zM1194 208l80 -208h300l-566 1400h-232l-566 -1400h300l80 208h604zM1058 478l-22 54l-22 -54h44z" />
    <glyph glyph-name="Aogonek" unicode="&#x104;" horiz-adv-x="1784" 
d="M1854 -360l62 -232q-111 -40 -220 -40q-147 0 -242 72l-158 118q-60 45 -88 90t-28 110q0 110 82 212h-8l-18 44h-400l-80 -208h-368l-222 164l590 1460h272l218 -160l586 -1448q-46 -42 -94 -94zM1526 -258q-80 0 -80 68q0 43 29 85t99 105l-566 1400h-232l-566 -1400
h300l80 208h604l80 -208h62q-55 -45 -90.5 -109.5t-35.5 -132.5q0 -90 68 -143t188 -53q109 0 190 30l-44 170q-31 -20 -86 -20zM682 448l210 544l210 -544h-420zM1058 478q-16 36 -22 54l-22 -54h44z" />
    <glyph glyph-name="aogonek" unicode="&#x105;" horiz-adv-x="1784" 
d="M1854 -360l62 -232q-111 -40 -220 -40q-147 0 -242 72l-158 118q-60 45 -88 90t-28 110q0 110 82 212h-8l-18 44h-400l-80 -208h-368l-222 164l590 1460h272l218 -160l586 -1448q-46 -42 -94 -94zM1526 -258q-80 0 -80 68q0 43 29 85t99 105l-566 1400h-232l-566 -1400
h300l80 208h604l80 -208h62q-55 -45 -90.5 -109.5t-35.5 -132.5q0 -90 68 -143t188 -53q109 0 190 30l-44 170q-31 -20 -86 -20zM682 448l210 544l210 -544h-420zM1058 478q-16 36 -22 54l-22 -54h44z" />
    <glyph glyph-name="Cacute" unicode="&#x106;" horiz-adv-x="1702" 
d="M1330 326l220 -162l112 -292q-172 -90 -410 -90q-139 0 -268.5 38t-227.5 112l-240 182q-131 100 -203.5 252t-72.5 334q0 143 46 269t126.5 219.5t189 157.5t234.5 90l-104 76l-100 160l468 308l214 -158l158 -248q-95 -76 -248 -142q103 -21 206 -66l226 -166
l-110 -284q-135 66 -304 66q-182 0 -304 -127t-122 -325q0 -144 66 -254q63 -22 146 -22q164 0 302 72zM1210 1750l-118 186l-418 -274l72 -114q123 26 250 80.5t214 121.5zM270 700q0 -164 61 -301.5t164.5 -229t239.5 -142.5t287 -51q229 0 380 78l-88 230
q-117 -60 -286 -60q-90 0 -172.5 31.5t-148.5 89.5t-105.5 150.5t-39.5 204.5q0 208 129 342t321 134q180 0 292 -56l88 228q-169 76 -386 76q-147 0 -281 -52.5t-235 -145.5t-160.5 -230t-59.5 -296z" />
    <glyph glyph-name="cacute" unicode="&#x107;" horiz-adv-x="2010" 
d="M1412 886q-19 38 -48 80q-58 16 -114 16q-118 0 -216.5 -55.5t-158 -160t-59.5 -236.5q0 -145 70 -256q60 -20 134 -20q124 0 229.5 69.5t162.5 190.5h368l226 -166q-48 -168 -161 -297t-267.5 -199t-327.5 -70q-271 0 -482 148l-196 138q-332 234 -332 632q0 151 52 284
t142.5 228.5t214.5 157.5t267 78l-86 64l-100 160l468 308l214 -158l158 -248q-120 -93 -292 -160q130 -39 248 -126l162 -124q252 -192 314 -442h-368zM1308 1750l-118 186l-418 -274l72 -114q123 26 250 80.5t214 121.5zM270 700q0 -158 59 -294t160.5 -230t239 -147
t291.5 -53q256 0 454.5 138.5t265.5 369.5h-308q-57 -121 -168 -190.5t-244 -69.5q-124 0 -228 58.5t-167 168.5t-63 249t63 249t167 168.5t228 58.5q133 0 244 -69.5t168 -190.5h308q-67 231 -265.5 369.5t-454.5 138.5q-154 0 -291.5 -53t-239 -147t-160.5 -230t-59 -294z
" />
    <glyph glyph-name="Ccaron" unicode="&#x10c;" horiz-adv-x="1702" 
d="M854 1520q-75 54 -154.5 138t-145.5 176l138 130l90 -76l130 -98l208 174l230 -180l130 -122q-95 -134 -214 -238q73 -19 164 -58l226 -166l-110 -284q-135 66 -304 66q-182 0 -304 -127t-122 -325q0 -144 66 -254q63 -22 146 -22q164 0 302 72l220 -162l112 -292
q-172 -90 -410 -90q-139 0 -268.5 38t-227.5 112l-240 182q-131 100 -203.5 252t-72.5 334q0 158 56.5 295.5t153.5 233.5t225.5 154.5t272.5 68.5zM864 1556h84q150 108 270 276l-98 92l-214 -178l-214 178l-98 -92q120 -168 270 -276zM270 700q0 -164 61 -301.5
t164.5 -229t239.5 -142.5t287 -51q229 0 380 78l-88 230q-117 -60 -286 -60q-90 0 -172.5 31.5t-148.5 89.5t-105.5 150.5t-39.5 204.5q0 208 129 342t321 134q180 0 292 -56l88 228q-169 76 -386 76q-147 0 -281 -52.5t-235 -145.5t-160.5 -230t-59.5 -296z" />
    <glyph glyph-name="ccaron" unicode="&#x10d;" horiz-adv-x="2010" 
d="M952 1520q-75 54 -154.5 138t-145.5 176l138 130l90 -76l130 -98l208 174l230 -180l130 -122q-109 -151 -246 -266q100 -38 194 -108l162 -124q252 -192 314 -442h-368l-222 164q-19 38 -48 80q-58 16 -114 16q-118 0 -216.5 -55.5t-158 -160t-59.5 -236.5
q0 -145 70 -256q60 -20 134 -20q124 0 229.5 69.5t162.5 190.5h368l226 -166q-48 -168 -161 -297t-267.5 -199t-327.5 -70q-271 0 -482 148l-196 138q-332 234 -332 632q0 219 105 392.5t282.5 267.5t392.5 94h24zM962 1556h84q150 108 270 276l-98 92l-214 -178l-214 178
l-98 -92q120 -168 270 -276zM270 700q0 -158 59 -294t160.5 -230t239 -147t291.5 -53q256 0 454.5 138.5t265.5 369.5h-308q-57 -121 -168 -190.5t-244 -69.5q-124 0 -228 58.5t-167 168.5t-63 249t63 249t167 168.5t228 58.5q133 0 244 -69.5t168 -190.5h308
q-67 231 -265.5 369.5t-454.5 138.5q-154 0 -291.5 -53t-239 -147t-160.5 -230t-59 -294z" />
    <glyph glyph-name="Dcaron" unicode="&#x10e;" horiz-adv-x="1868" 
d="M832 1520q-75 54 -154.5 138t-145.5 176l138 130l90 -76l130 -98l208 174l230 -180l130 -122q-124 -174 -276 -290q110 -42 214 -118l176 -132q280 -212 280 -592q0 -227 -98.5 -391.5t-274.5 -248.5t-411 -84h-506l-222 164v1460h498q75 0 128 -8zM842 1556h84
q150 108 270 276l-98 92l-214 -178l-214 178l-98 -92q120 -168 270 -276zM1598 700q0 218 -95.5 377.5t-266.5 241t-398 81.5h-468v-1400h468q228 0 398.5 81t266 240.5t95.5 378.5zM1306 698q0 -218 -130.5 -336t-335.5 -118h-182v912h182q99 0 183.5 -29t147.5 -85
t99 -144t36 -200zM1276 698q0 140 -64 246q-66 18 -142 18h-158v-684q163 20 263.5 128t100.5 292z" />
    <glyph glyph-name="dcaron" unicode="&#x10f;" horiz-adv-x="1868" 
d="M832 1520q-75 54 -154.5 138t-145.5 176l138 130l90 -76l130 -98l208 174l230 -180l130 -122q-124 -174 -276 -290q110 -42 214 -118l176 -132q280 -212 280 -592q0 -227 -98.5 -391.5t-274.5 -248.5t-411 -84h-506l-222 164v1460h498q75 0 128 -8zM842 1556h84
q150 108 270 276l-98 92l-214 -178l-214 178l-98 -92q120 -168 270 -276zM1598 700q0 218 -95.5 377.5t-266.5 241t-398 81.5h-468v-1400h468q228 0 398.5 81t266 240.5t95.5 378.5zM1306 698q0 -218 -130.5 -336t-335.5 -118h-182v912h182q99 0 183.5 -29t147.5 -85
t99 -144t36 -200zM1276 698q0 140 -64 246q-66 18 -142 18h-158v-684q163 20 263.5 128t100.5 292z" />
    <glyph glyph-name="Dcroat" unicode="&#x110;" horiz-adv-x="1902" 
d="M200 510v242h174v678h498q166 0 301.5 -42.5t256.5 -133.5l176 -132q280 -212 280 -592q0 -227 -98.5 -391.5t-274.5 -248.5t-411 -84h-506l-222 164v410zM1310 698q0 140 -64 246q-66 18 -142 18h-158v-210h28l224 -166v-192q112 112 112 304zM946 278q108 12 192 68
h-192v-68zM1632 700q0 218 -95.5 377.5t-266.5 241t-398 81.5h-468v-678h-174v-182h174v-540h468q228 0 398.5 81t266 240.5t95.5 378.5zM1340 698q0 -218 -130.5 -336t-335.5 -118h-182v296h252v182h-252v434h182q99 0 183.5 -29t147.5 -85t99 -144t36 -200z" />
    <glyph glyph-name="dcroat" unicode="&#x111;" horiz-adv-x="1902" 
d="M200 510v242h174v678h498q166 0 301.5 -42.5t256.5 -133.5l176 -132q280 -212 280 -592q0 -227 -98.5 -391.5t-274.5 -248.5t-411 -84h-506l-222 164v410zM1310 698q0 140 -64 246q-66 18 -142 18h-158v-210h28l224 -166v-192q112 112 112 304zM946 278q108 12 192 68
h-192v-68zM1632 700q0 218 -95.5 377.5t-266.5 241t-398 81.5h-468v-678h-174v-182h174v-540h468q228 0 398.5 81t266 240.5t95.5 378.5zM1340 698q0 -218 -130.5 -336t-335.5 -118h-182v296h252v182h-252v434h182q99 0 183.5 -29t147.5 -85t99 -144t36 -200z" />
    <glyph glyph-name="Eogonek" unicode="&#x118;" horiz-adv-x="1558" 
d="M340 -30v1460h920l224 -166v-302h-572v-152h256l224 -166v-302h-480v-68h366l224 -166v-302h-154q-52 -49 -76 -78l116 -88l62 -232q-111 -40 -220 -40q-147 0 -242 72l-158 118q-60 45 -88 90t-28 110q0 32 4 48h-156zM1108 0h140v244h-590v292h480v244h-480v376h572
v244h-860v-1400h500q-55 -45 -90.5 -109.5t-35.5 -132.5q0 -90 68 -143t188 -53q109 0 190 30l-44 170q-31 -20 -86 -20q-80 0 -80 68q0 43 29 85t99 105z" />
    <glyph glyph-name="eogonek" unicode="&#x119;" horiz-adv-x="1558" 
d="M340 -30v1460h920l224 -166v-302h-572v-152h256l224 -166v-302h-480v-68h366l224 -166v-302h-154q-52 -49 -76 -78l116 -88l62 -232q-111 -40 -220 -40q-147 0 -242 72l-158 118q-60 45 -88 90t-28 110q0 32 4 48h-156zM1108 0h140v244h-590v292h480v244h-480v376h572
v244h-860v-1400h500q-55 -45 -90.5 -109.5t-35.5 -132.5q0 -90 68 -143t188 -53q109 0 190 30l-44 170q-31 -20 -86 -20q-80 0 -80 68q0 43 29 85t99 105z" />
    <glyph glyph-name="Ecaron" unicode="&#x11a;" horiz-adv-x="1558" 
d="M748 1520q-75 54 -154.5 138t-145.5 176l138 130l90 -76l130 -98l208 174l230 -180l130 -122q-86 -123 -208 -232h94l224 -166v-302h-572v-152h256l224 -166v-302h-480v-68h366l224 -166v-302h-940l-222 164v1460h534zM758 1556h84q150 108 270 276l-98 92l-214 -178
l-214 178l-98 -92q120 -168 270 -276zM370 1400v-1400h878v244h-590v292h480v244h-480v376h572v244h-860z" />
    <glyph glyph-name="ecaron" unicode="&#x11b;" horiz-adv-x="1558" 
d="M748 1520q-75 54 -154.5 138t-145.5 176l138 130l90 -76l130 -98l208 174l230 -180l130 -122q-86 -123 -208 -232h94l224 -166v-302h-572v-152h256l224 -166v-302h-480v-68h366l224 -166v-302h-940l-222 164v1460h534zM758 1556h84q150 108 270 276l-98 92l-214 -178
l-214 178l-98 -92q120 -168 270 -276zM370 1400v-1400h878v244h-590v292h480v244h-480v376h572v244h-860z" />
    <glyph glyph-name="Lacute" unicode="&#x139;" horiz-adv-x="1480" 
d="M340 -30v1460h134l-112 82l-100 160l468 308l214 -158l158 -248q-146 -113 -360 -184l170 -126v-990h338l224 -166v-302h-912zM840 1750l-118 186l-418 -274l72 -114q123 26 250 80.5t214 121.5zM370 1400v-1400h850v244h-562v1156h-288z" />
    <glyph glyph-name="lacute" unicode="&#x13a;" horiz-adv-x="1480" 
d="M340 -30v1460h134l-112 82l-100 160l468 308l214 -158l158 -248q-146 -113 -360 -184l170 -126v-990h338l224 -166v-302h-912zM840 1750l-118 186l-418 -274l72 -114q123 26 250 80.5t214 121.5zM370 1400v-1400h850v244h-562v1156h-288z" />
    <glyph glyph-name="Lcaron" unicode="&#x13d;" horiz-adv-x="1500" 
d="M340 -30v1460h348l204 -152v6q0 170 170 170q42 0 72 -10t66 -36l182 -132q72 -53 72 -162q0 -149 -86.5 -272t-243.5 -200l-212 156v-524h338l224 -166v-302h-912zM984 1126q-47 18 -72 64v-178q56 53 72 114zM370 1400v-1400h850v244h-562v1156h-288zM1200 1284
q0 140 -138 140q-140 0 -140 -140q0 -118 98 -136q-7 -61 -50.5 -118.5t-113.5 -99.5l54 -82q137 68 213.5 181.5t76.5 254.5z" />
    <glyph glyph-name="lcaron" unicode="&#x13e;" horiz-adv-x="1500" 
d="M340 -30v1460h348l204 -152v6q0 170 170 170q42 0 72 -10t66 -36l182 -132q72 -53 72 -162q0 -149 -86.5 -272t-243.5 -200l-212 156v-524h338l224 -166v-302h-912zM984 1126q-47 18 -72 64v-178q56 53 72 114zM370 1400v-1400h850v244h-562v1156h-288zM1200 1284
q0 140 -138 140q-140 0 -140 -140q0 -118 98 -136q-7 -61 -50.5 -118.5t-113.5 -99.5l54 -82q137 68 213.5 181.5t76.5 254.5z" />
    <glyph glyph-name="Lslash" unicode="&#x141;" horiz-adv-x="1480" 
d="M370 412v-412h850v244h-562v342l378 228l-78 128l-300 -182v640h-288v-814l-184 -110l78 -128zM340 -30v274l-86 64l-110 178l196 116v828h348l224 -166v-314l56 34l216 -158l114 -190l-386 -232v-130h338l224 -166v-302h-912z" />
    <glyph glyph-name="lslash" unicode="&#x142;" horiz-adv-x="1480" 
d="M370 412v-412h850v244h-562v342l378 228l-78 128l-300 -182v640h-288v-814l-184 -110l78 -128zM340 -30v274l-86 64l-110 178l196 116v828h348l224 -166v-314l56 34l216 -158l114 -190l-386 -232v-130h338l224 -166v-302h-912z" />
    <glyph glyph-name="Nacute" unicode="&#x143;" horiz-adv-x="1906" 
d="M370 1400v-1400h288v880l666 -880h212v1400h-288v-878l-666 878h-212zM596 1430l214 -158l408 -538v696h348l224 -166v-1458h-258l-222 164l-398 526v-690h-350l-222 164v1460h256zM990 1348l-224 164l-100 160l468 308l214 -158l158 -248q-98 -76 -239.5 -137
t-276.5 -89zM1244 1750l-118 186l-418 -274l72 -114q123 26 250 80.5t214 121.5z" />
    <glyph glyph-name="nacute" unicode="&#x144;" horiz-adv-x="1906" 
d="M990 1348l-224 164l-100 160l468 308l214 -158l158 -248q-98 -76 -239.5 -137t-276.5 -89zM1244 1750l-118 186l-418 -274l72 -114q123 26 250 80.5t214 121.5zM370 1400v-1400h288v880l666 -880h212v1400h-288v-878l-666 878h-212zM596 1430l214 -158l408 -538v696h348
l224 -166v-1458h-258l-222 164l-398 526v-690h-350l-222 164v1460h256z" />
    <glyph glyph-name="Ncaron" unicode="&#x147;" horiz-adv-x="1906" 
d="M900 1520q-75 54 -154.5 138t-145.5 176l138 130l90 -76l130 -98l208 174l230 -180l130 -122q-86 -123 -208 -232h248l224 -166v-1458h-258l-222 164l-398 526v-690h-350l-222 164v1460h256l214 -158l408 -538v626h-94zM910 1556h84q150 108 270 276l-98 92l-214 -178
l-214 178l-98 -92q120 -168 270 -276zM370 1400v-1400h288v880l666 -880h212v1400h-288v-878l-666 878h-212z" />
    <glyph glyph-name="ncaron" unicode="&#x148;" horiz-adv-x="1906" 
d="M900 1520q-75 54 -154.5 138t-145.5 176l138 130l90 -76l130 -98l208 174l230 -180l130 -122q-86 -123 -208 -232h248l224 -166v-1458h-258l-222 164l-398 526v-690h-350l-222 164v1460h256l214 -158l408 -538v626h-94zM910 1556h84q150 108 270 276l-98 92l-214 -178
l-214 178l-98 -92q120 -168 270 -276zM370 1400v-1400h288v880l666 -880h212v1400h-288v-878l-666 878h-212z" />
    <glyph glyph-name="Ohungarumlaut" unicode="&#x150;" 
d="M850 1438l-158 116l-100 158q75 109 187.5 214.5t222.5 167.5l216 -160l36 -58l158 104l214 -158l158 -248q-79 -61 -187 -113.5t-217 -84.5q87 -42 146 -88l196 -150q164 -123 233 -267.5t69 -340.5q0 -161 -60 -301t-164 -237.5t-246.5 -153.5t-303.5 -56
q-294 0 -504 158l-228 170q-127 97 -202.5 252.5t-75.5 337.5q0 282 170 483.5t440 254.5zM1522 1750l-118 186l-418 -274l72 -114q123 26 250 80.5t214 121.5zM1112 1868l-118 186q-99 -55 -199.5 -149.5t-166.5 -192.5l72 -114zM1072 1492l-58 -38q70 0 118 -8zM816 530
q0 -145 70 -256q60 -20 134 -20q180 0 304 125.5t124 320.5q0 149 -80 264q-57 18 -118 18q-183 0 -308.5 -127t-125.5 -325zM562 700q0 208 132 342t326 134t326 -134t132 -342t-132 -342t-326 -134t-326 134t-132 342zM270 700q0 -156 58.5 -291.5t159 -230t238.5 -148.5
t294 -54t294 54t238.5 148.5t159 230t58.5 291.5t-58.5 291.5t-159 230t-238.5 148.5t-294 54t-294 -54t-238.5 -148.5t-159 -230t-58.5 -291.5z" />
    <glyph glyph-name="ohungarumlaut" unicode="&#x151;" 
d="M850 1438l-158 116l-100 158q75 109 187.5 214.5t222.5 167.5l216 -160l36 -58l158 104l214 -158l158 -248q-79 -61 -187 -113.5t-217 -84.5q87 -42 146 -88l196 -150q164 -123 233 -267.5t69 -340.5q0 -161 -60 -301t-164 -237.5t-246.5 -153.5t-303.5 -56
q-294 0 -504 158l-228 170q-127 97 -202.5 252.5t-75.5 337.5q0 282 170 483.5t440 254.5zM1522 1750l-118 186l-418 -274l72 -114q123 26 250 80.5t214 121.5zM1112 1868l-118 186q-99 -55 -199.5 -149.5t-166.5 -192.5l72 -114zM1072 1492l-58 -38q70 0 118 -8zM816 530
q0 -145 70 -256q60 -20 134 -20q180 0 304 125.5t124 320.5q0 149 -80 264q-57 18 -118 18q-183 0 -308.5 -127t-125.5 -325zM562 700q0 208 132 342t326 134t326 -134t132 -342t-132 -342t-326 -134t-326 134t-132 342zM270 700q0 -156 58.5 -291.5t159 -230t238.5 -148.5
t294 -54t294 54t238.5 148.5t159 230t58.5 291.5t-58.5 291.5t-159 230t-238.5 148.5t-294 54t-294 -54t-238.5 -148.5t-159 -230t-58.5 -291.5z" />
    <glyph glyph-name="OE" unicode="&#x152;" horiz-adv-x="2270" 
d="M1114 0h846v244h-590v292h480v244h-480v376h572v244h-828q-195 0 -355 -53t-266.5 -147t-164.5 -222t-58 -278t58 -278t164.5 -222t266.5 -147t355 -53zM1080 1156v-912q-246 0 -382 128t-136 328t136 328t382 128zM1990 274l224 -166v-302h-870q-192 0 -358 52.5
t-288 141.5l-136 100q-161 119 -241.5 264.5t-80.5 335.5q0 157 60 290.5t170 231t276 153t368 55.5h858l224 -166v-302h-572v-152h256l224 -166v-302h-480v-68h366zM1050 274v630q-113 -55 -173.5 -153t-60.5 -221q0 -131 56 -228q82 -25 178 -28z" />
    <glyph glyph-name="oe" unicode="&#x153;" horiz-adv-x="2270" 
d="M1114 0h846v244h-590v292h480v244h-480v376h572v244h-828q-195 0 -355 -53t-266.5 -147t-164.5 -222t-58 -278t58 -278t164.5 -222t266.5 -147t355 -53zM1080 1156v-912q-246 0 -382 128t-136 328t136 328t382 128zM1990 274l224 -166v-302h-870q-192 0 -358 52.5
t-288 141.5l-136 100q-161 119 -241.5 264.5t-80.5 335.5q0 157 60 290.5t170 231t276 153t368 55.5h858l224 -166v-302h-572v-152h256l224 -166v-302h-480v-68h366zM1050 274v630q-113 -55 -173.5 -153t-60.5 -221q0 -131 56 -228q82 -25 178 -28z" />
    <glyph glyph-name="Racute" unicode="&#x154;" horiz-adv-x="1704" 
d="M340 1430h406l-112 82l-100 160l468 308l214 -158l158 -248q-121 -96 -320 -170q114 -31 206 -102l162 -130q236 -189 236 -432q0 -179 -104.5 -306.5t-285.5 -179.5l456 -448h-446l-222 164l-144 148v-312h-350l-222 164v1460zM1112 1750l-118 186l-418 -274l72 -114
q123 26 250 80.5t214 121.5zM658 648v512h188q122 0 194 -66.5t72 -189.5q0 -127 -78.5 -191.5t-227.5 -64.5h-148zM1404 910q0 211 -150 350.5t-402 139.5h-482v-1400h288v424l410 -424h366l-444 436q191 43 302.5 168t111.5 306zM912 966v-278q170 40 170 216q0 32 -6 62
h-164z" />
    <glyph glyph-name="racute" unicode="&#x155;" horiz-adv-x="1704" 
d="M340 -30v1460h406l-112 82l-100 160l468 308l214 -158l158 -248q-119 -94 -318 -169q114 -32 226 -113l138 -102q123 -92 180.5 -202t57.5 -248q0 -139 -62 -248t-176 -172l6 -4q96 -70 152.5 -185.5t65.5 -266.5l4 -58h-342l-222 164q-10 163 -56 244h-116v-408h-350z
M658 0v408h102q147 0 239.5 -98.5t110.5 -271.5l4 -38h280l-4 42q-30 317 -246 452q123 57 191.5 166t68.5 250q0 211 -150 350.5t-402 139.5h-482v-1400h288zM658 648v512h188q122 0 194 -66.5t72 -189.5t-72 -189.5t-194 -66.5h-188zM1112 1750l-118 186l-418 -274
l72 -114q123 26 250 80.5t214 121.5zM912 966v-282q79 15 124.5 72t45.5 148q0 32 -6 62h-164z" />
    <glyph glyph-name="Rcaron" unicode="&#x158;" horiz-adv-x="1704" 
d="M768 1520q-75 54 -154.5 138t-145.5 176l138 130l90 -76l130 -98l208 174l230 -180l130 -122q-124 -172 -268 -282q73 -29 134 -78l162 -130q236 -189 236 -432q0 -179 -104.5 -306.5t-285.5 -179.5l456 -448h-446l-222 164l-144 148v-312h-350l-222 164v1460h512
q28 0 42 -2zM778 1556h84q150 108 270 276l-98 92l-214 -178l-214 178l-98 -92q120 -168 270 -276zM658 648v512h188q122 0 194 -66.5t72 -189.5q0 -127 -78.5 -191.5t-227.5 -64.5h-148zM1404 910q0 211 -150 350.5t-402 139.5h-482v-1400h288v424l410 -424h366l-444 436
q191 43 302.5 168t111.5 306zM912 966v-278q170 40 170 216q0 32 -6 62h-164z" />
    <glyph glyph-name="rcaron" unicode="&#x159;" horiz-adv-x="1704" 
d="M340 -30v1460h551l-123 90q-75 54 -154.5 138t-145.5 176l138 130l90 -76l130 -98l208 174l230 -180l130 -122q-124 -171 -267 -281q77 -32 155 -89l138 -102q123 -92 180.5 -202t57.5 -248q0 -139 -62 -248t-176 -172l6 -4q96 -70 152.5 -185.5t65.5 -266.5l4 -58h-342
l-222 164q-10 163 -56 244h-116v-408h-350zM658 0v408h102q147 0 239.5 -98.5t110.5 -271.5l4 -38h280l-4 42q-30 317 -246 452q123 57 191.5 166t68.5 250q0 211 -150 350.5t-402 139.5h-482v-1400h288zM658 648v512h188q122 0 194 -66.5t72 -189.5t-72 -189.5t-194 -66.5
h-188zM778 1556h84q150 108 270 276l-98 92l-214 -178l-214 178l-98 -92q120 -168 270 -276zM912 966v-282q79 15 124.5 72t45.5 148q0 32 -6 62h-164z" />
    <glyph glyph-name="Sacute" unicode="&#x15a;" horiz-adv-x="1476" 
d="M869 888q0 -13 1 -18q209 -103 395 -262q110 -94 157.5 -178.5t47.5 -199.5q0 -209 -137 -329.5t-393 -120.5q-114 0 -233.5 34t-219.5 95l-234 168l109 293q78 -54 168.5 -85t167.5 -31q91 0 143.5 32.5t52.5 90.5q0 23 -8 45q-125 66 -185 109l-181 129
q-126 77 -178 169t-52 215q0 156 90 261.5t256 136.5l-94 70l-100 160l468 308l214 -158l158 -248q-115 -89 -282 -156q90 -25 182 -78l226 -169l-107 -281q-134 90 -273 90q-79 0 -119 -24.5t-40 -67.5zM1020 1750l-118 186l-418 -274l72 -114q123 26 250 80.5t214 121.5z
M1058 1098l88 228q-164 98 -376 98q-214 0 -332 -103.5t-118 -276.5q0 -142 79 -243t280 -188q134 -58 189.5 -109.5t55.5 -126.5q0 -72 -60 -112.5t-166 -40.5q-82 0 -167.5 26t-152.5 72l-88 -232q88 -54 199 -84t221 -30q244 0 375 113.5t131 310.5q0 154 -86.5 257
t-275.5 189q-142 65 -192 109t-50 103q0 56 47 87t139 31q143 0 260 -78z" />
    <glyph glyph-name="sacute" unicode="&#x15b;" horiz-adv-x="1494" 
d="M655 538l-190 135q-78 56 -119 123q-68 110 -68 248q0 158 92 264t255 135l-93 69l-100 160l468 308l214 -158l158 -248q-119 -93 -302 -163q51 -22 106 -61l176 -128q186 -134 186 -382h-341l-183 134q-60 -25 -60 -96v-15q178 -78 260 -143l191 -149
q93 -73 133.5 -156.5t40.5 -195.5q0 -198 -130.5 -316.5t-352.5 -118.5q-200 0 -340 101l-147 106q-126 91 -179 186t-62 225h352l194 -143q38 4 63 36.5t25 76.5q0 22 -5 37q-121 42 -242 129zM766 -24q210 0 334 113t124 300q0 151 -82.5 252.5t-287.5 189.5
q-147 63 -200.5 108.5t-53.5 108.5q0 56 36.5 92t105.5 36q70 0 110 -39.5t40 -104.5h292q0 179 -123 285.5t-315 106.5q-202 0 -320 -103.5t-118 -276.5q0 -156 86 -261.5t292 -190.5q142 -58 194 -105t52 -115q0 -67 -44 -107.5t-118 -40.5q-76 0 -123.5 37.5t-54.5 110.5
h-292q12 -174 136 -285t330 -111zM1010 1750l-118 186l-418 -274l72 -114q123 26 250 80.5t214 121.5z" />
    <glyph glyph-name="Scedilla" unicode="&#x15e;" horiz-adv-x="1476" 
d="M869 888q0 -13 1 -18q209 -103 395 -262q110 -94 157.5 -179.5t47.5 -200.5q0 -159 -82 -268t-238 -154l-38 -66l56 -42q76 -56 76 -144q0 -108 -83.5 -166t-230.5 -58q-92 0 -186 22l-220 162l40 208q69 -22 106 -22h24l-110 84l-30 52l16 28q-71 33 -130 76l-186 136
l108 294q78 -54 168.5 -85t167.5 -31q91 0 143.5 32.5t52.5 90.5q0 23 -8 45q-125 66 -185 109l-181 129q-126 77 -178 169t-52 215q0 187 126 298.5t354 111.5q105 0 214 -30t199 -84l225 -169l-107 -281q-134 90 -273 90q-79 0 -119 -24.5t-40 -67.5zM679 613
q134 -58 189.5 -109.5t55.5 -126.5q0 -72 -60 -112.5t-166 -40.5q-82 0 -167.5 26t-152.5 72l-88 -232q165 -102 381 -113l-81 -141l12 -22q170 -3 170 -80q0 -64 -90 -64q-52 0 -94 12l-28 -144q70 -14 140 -14q137 0 213.5 52t76.5 148q0 60 -40.5 102.5t-109.5 57.5
l66 116q151 40 230.5 144t79.5 256q0 154 -86.5 257t-275.5 189q-142 65 -192 109t-50 103q0 56 47 87t139 31q143 0 260 -78l88 228q-164 98 -376 98q-214 0 -332 -103.5t-118 -276.5q0 -142 79 -243t280 -188z" />
    <glyph glyph-name="scedilla" unicode="&#x15f;" horiz-adv-x="1494" 
d="M268 402h352l194 -143q38 4 63 36.5t25 76.5q0 22 -5 37q-121 42 -242 129l-190 135q-78 56 -119 123q-68 110 -68 248q0 187 126 298.5t342 111.5q186 0 330 -104l176 -128q186 -134 186 -382h-341l-183 134q-60 -25 -60 -96v-15q178 -78 260 -143l191 -149
q93 -73 133.5 -157.5t40.5 -199.5q0 -155 -83.5 -262t-231.5 -146l-38 -66l56 -42q76 -56 76 -144q0 -108 -83.5 -166t-230.5 -58q-92 0 -186 22l-220 162l40 208q69 -22 106 -22h24l-110 84l-30 52l46 80l-130 98q-199 147 -216 388zM1224 389q0 151 -82.5 252.5
t-287.5 189.5q-147 63 -200.5 108.5t-53.5 108.5q0 56 36.5 92t105.5 36q70 0 110 -39.5t40 -104.5h292q0 179 -123 285.5t-315 106.5q-202 0 -320 -103.5t-118 -276.5q0 -156 86 -261.5t292 -190.5q142 -58 194 -105t52 -115q0 -67 -44 -107.5t-118 -40.5
q-76 0 -123.5 37.5t-54.5 110.5h-292q11 -156 113 -263t274 -128l-83 -145l12 -22q170 -3 170 -80q0 -64 -90 -64q-52 0 -94 12l-28 -144q70 -14 140 -14q137 0 213.5 52t76.5 148q0 60 -40.5 102.5t-109.5 57.5l62 110q145 36 226.5 140.5t81.5 254.5z" />
    <glyph glyph-name="Scaron" unicode="&#x160;" horiz-adv-x="1476" 
d="M869 888q0 -13 1 -18q209 -103 395 -262q110 -94 157.5 -178.5t47.5 -199.5q0 -209 -137 -329.5t-393 -120.5q-114 0 -233.5 34t-219.5 95l-234 168l109 293q78 -54 168.5 -85t167.5 -31q91 0 143.5 32.5t52.5 90.5q0 23 -8 45q-125 66 -185 109l-181 129
q-126 77 -178 169t-52 215q0 187 126 298.5t354 111.5l-92 66q-75 54 -154.5 138t-145.5 176l138 130l90 -76l130 -98l208 174l230 -180l130 -122q-106 -152 -244 -264q64 -24 122 -58l226 -169l-107 -281q-134 90 -273 90q-79 0 -119 -24.5t-40 -67.5zM688 1556h84
q150 108 270 276l-98 92l-214 -178l-214 178l-98 -92q120 -168 270 -276zM320 1044q0 -142 79 -243t280 -188q134 -58 189.5 -109.5t55.5 -126.5q0 -72 -60 -112.5t-166 -40.5q-82 0 -167.5 26t-152.5 72l-88 -232q88 -54 199 -84t221 -30q244 0 375 113.5t131 310.5
q0 154 -86.5 257t-275.5 189q-142 65 -192 109t-50 103q0 56 47 87t139 31q143 0 260 -78l88 228q-164 98 -376 98q-214 0 -332 -103.5t-118 -276.5z" />
    <glyph glyph-name="scaron" unicode="&#x161;" horiz-adv-x="1494" 
d="M655 538l-190 135q-78 56 -119 123q-68 110 -68 248q0 187 126 298.5t342 111.5h24l-92 66q-75 54 -154.5 138t-145.5 176l138 130l90 -76l130 -98l208 174l230 -180l130 -122q-116 -163 -270 -284q28 -18 42 -28l176 -128q186 -134 186 -382h-341l-183 134
q-60 -25 -60 -96v-15q178 -78 260 -143l191 -149q93 -73 133.5 -156.5t40.5 -195.5q0 -198 -130.5 -316.5t-352.5 -118.5q-200 0 -340 101l-147 106q-126 91 -179 186t-62 225h352l194 -143q38 4 63 36.5t25 76.5q0 22 -5 37q-121 42 -242 129zM766 -24q210 0 334 113
t124 300q0 151 -82.5 252.5t-287.5 189.5q-147 63 -200.5 108.5t-53.5 108.5q0 56 36.5 92t105.5 36q70 0 110 -39.5t40 -104.5h292q0 179 -123 285.5t-315 106.5q-202 0 -320 -103.5t-118 -276.5q0 -156 86 -261.5t292 -190.5q142 -58 194 -105t52 -115q0 -67 -44 -107.5
t-118 -40.5q-76 0 -123.5 37.5t-54.5 110.5h-292q12 -174 136 -285t330 -111zM688 1556h84q150 108 270 276l-98 92l-214 -178l-214 178l-98 -92q120 -168 270 -276z" />
    <glyph glyph-name="Tcommaaccent" unicode="&#x162;" horiz-adv-x="1576" 
d="M614 -30v992h-152l-222 164v304h1096l224 -166v-302h-374v-1156h-30l-38 -66l56 -42q76 -56 76 -144q0 -108 -83.5 -166t-230.5 -58q-92 0 -186 22l-220 162l40 208q69 -22 106 -22h24l-110 84l-30 52l72 122zM594 -318l-28 -144q70 -14 140 -14q137 0 213.5 52t76.5 148
q0 60 -40.5 102.5t-109.5 57.5l66 116h20v1156h374v244h-1036v-244h374v-1156h48l-96 -164l12 -22q170 -3 170 -80q0 -64 -90 -64q-52 0 -94 12z" />
    <glyph glyph-name="tcommaaccent" unicode="&#x163;" horiz-adv-x="1576" 
d="M614 -30v992h-152l-222 164v304h1096l224 -166v-302h-374v-1156h-30l-38 -66l56 -42q76 -56 76 -144q0 -108 -83.5 -166t-230.5 -58q-92 0 -186 22l-220 162l40 208q69 -22 106 -22h24l-110 84l-30 52l72 122zM594 -318l-28 -144q70 -14 140 -14q137 0 213.5 52t76.5 148
q0 60 -40.5 102.5t-109.5 57.5l66 116h20v1156h374v244h-1036v-244h374v-1156h48l-96 -164l12 -22q170 -3 170 -80q0 -64 -90 -64q-52 0 -94 12z" />
    <glyph glyph-name="Tcaron" unicode="&#x164;" horiz-adv-x="1576" 
d="M736 1520q-75 54 -154.5 138t-145.5 176l138 130l90 -76l130 -98l208 174l230 -180l130 -122q-86 -123 -208 -232h182l224 -166v-302h-374v-1156h-350l-222 164v992h-152l-222 164v304h622zM746 1556h84q150 108 270 276l-98 92l-214 -178l-214 178l-98 -92
q120 -168 270 -276zM644 1156v-1156h288v1156h374v244h-1036v-244h374z" />
    <glyph glyph-name="tcaron" unicode="&#x165;" horiz-adv-x="1576" 
d="M736 1520q-75 54 -154.5 138t-145.5 176l138 130l90 -76l130 -98l208 174l230 -180l130 -122q-86 -123 -208 -232h182l224 -166v-302h-374v-1156h-350l-222 164v992h-152l-222 164v304h622zM746 1556h84q150 108 270 276l-98 92l-214 -178l-214 178l-98 -92
q120 -168 270 -276zM644 1156v-1156h288v1156h374v244h-1036v-244h374z" />
    <glyph glyph-name="Uring" unicode="&#x16e;" horiz-adv-x="1916" 
d="M1156 1920l174 -126q60 -44 87 -95.5t27 -124.5q0 -80 -48 -144h180l224 -166v-842q0 -160 -48 -284.5t-133 -201t-194 -115.5t-237 -39q-125 0 -228 31t-216 115l-176 130q-109 81 -168.5 220.5t-59.5 313.5v838h348l224 -166v-860q0 -78 24 -150h22q115 0 192.5 80.5
t77.5 239.5v756q-14 -2 -40 -2q-110 0 -186 58l-170 124q-67 50 -101.5 102t-34.5 130q0 107 75 179.5t187 72.5q57 0 102.5 -18.5t95.5 -55.5zM958 1964q-99 0 -165.5 -64.5t-66.5 -157.5t66.5 -157.5t165.5 -64.5t165.5 64.5t66.5 157.5t-66.5 157.5t-165.5 64.5z
M958 1660q-33 0 -56.5 24t-23.5 58t23.5 58t56.5 24t56.5 -24t23.5 -58t-23.5 -58t-56.5 -24zM958 -24q123 0 227.5 37.5t186 111t128 193.5t46.5 274v808h-288v-826q0 -89 -24.5 -158t-67 -110t-95.5 -61.5t-113 -20.5t-113 20.5t-95.5 61.5t-67 110t-24.5 158v826h-288
v-808q0 -154 46.5 -274t128 -193.5t186 -111t227.5 -37.5z" />
    <glyph glyph-name="uring" unicode="&#x16f;" horiz-adv-x="1916" 
d="M1156 1920l174 -126q60 -44 87 -95.5t27 -124.5q0 -80 -48 -144h180l224 -166v-842q0 -160 -48 -284.5t-133 -201t-194 -115.5t-237 -39q-125 0 -228 31t-216 115l-176 130q-109 81 -168.5 220.5t-59.5 313.5v838h348l224 -166v-860q0 -78 24 -150h22q115 0 192.5 80.5
t77.5 239.5v756q-14 -2 -40 -2q-110 0 -186 58l-170 124q-67 50 -101.5 102t-34.5 130q0 107 75 179.5t187 72.5q57 0 102.5 -18.5t95.5 -55.5zM958 1964q-99 0 -165.5 -64.5t-66.5 -157.5t66.5 -157.5t165.5 -64.5t165.5 64.5t66.5 157.5t-66.5 157.5t-165.5 64.5z
M958 1660q-33 0 -56.5 24t-23.5 58t23.5 58t56.5 24t56.5 -24t23.5 -58t-23.5 -58t-56.5 -24zM958 -24q123 0 227.5 37.5t186 111t128 193.5t46.5 274v808h-288v-826q0 -89 -24.5 -158t-67 -110t-95.5 -61.5t-113 -20.5t-113 20.5t-95.5 61.5t-67 110t-24.5 158v826h-288
v-808q0 -154 46.5 -274t128 -193.5t186 -111t227.5 -37.5z" />
    <glyph glyph-name="Uhungarumlaut" unicode="&#x170;" horiz-adv-x="1916" 
d="M870 1390l-224 164l-100 158q75 109 187.5 214.5t222.5 167.5l216 -160l36 -58l158 104l214 -158l158 -248q-104 -80 -254 -144h92l224 -166v-842q0 -160 -48 -284.5t-133 -201t-194 -115.5t-237 -39q-125 0 -228 31t-216 115l-176 130q-109 81 -168.5 220.5t-59.5 313.5
v838h348l224 -166v-860q0 -78 24 -150h22q115 0 192.5 80.5t77.5 239.5v774h-6l-196 144zM1476 1750l-118 186l-418 -274l72 -114q123 26 250 80.5t214 121.5zM1066 1868l-118 186q-99 -55 -199.5 -149.5t-166.5 -192.5l72 -114zM958 -24q123 0 227.5 37.5t186 111
t128 193.5t46.5 274v808h-288v-826q0 -89 -24.5 -158t-67 -110t-95.5 -61.5t-113 -20.5t-113 20.5t-95.5 61.5t-67 110t-24.5 158v826h-288v-808q0 -154 46.5 -274t128 -193.5t186 -111t227.5 -37.5z" />
    <glyph glyph-name="uhungarumlaut" unicode="&#x171;" horiz-adv-x="1916" 
d="M870 1390l-224 164l-100 158q75 109 187.5 214.5t222.5 167.5l216 -160l36 -58l158 104l214 -158l158 -248q-104 -80 -254 -144h92l224 -166v-842q0 -160 -48 -284.5t-133 -201t-194 -115.5t-237 -39q-125 0 -228 31t-216 115l-176 130q-109 81 -168.5 220.5t-59.5 313.5
v838h348l224 -166v-860q0 -78 24 -150h22q115 0 192.5 80.5t77.5 239.5v774h-6l-196 144zM1476 1750l-118 186l-418 -274l72 -114q123 26 250 80.5t214 121.5zM1066 1868l-118 186q-99 -55 -199.5 -149.5t-166.5 -192.5l72 -114zM958 -24q123 0 227.5 37.5t186 111
t128 193.5t46.5 274v808h-288v-826q0 -89 -24.5 -158t-67 -110t-95.5 -61.5t-113 -20.5t-113 20.5t-95.5 61.5t-67 110t-24.5 158v826h-288v-808q0 -154 46.5 -274t128 -193.5t186 -111t227.5 -37.5z" />
    <glyph glyph-name="Ydieresis" unicode="&#x178;" horiz-adv-x="1816" 
d="M574 1430l220 -162l182 -360l266 522h378l234 -166l-548 -1014v-444h-350l-222 164v448l-546 1012h386zM764 0h288v428l524 972h-316l-352 -688l-352 688h-316l524 -972v-428zM1222 1444l-136 96q-15 -130 -158 -130q-77 0 -126 34l-194 138q-41 30 -58.5 65.5
t-17.5 90.5q0 82 43 124t123 42q73 0 128 -40l128 -94q7 66 49.5 100t114.5 34q73 0 128 -40l202 -146q60 -44 60 -148q0 -160 -160 -160q-77 0 -126 34zM698 1602q136 0 136 136t-136 136t-136 -136t136 -136zM1118 1602q136 0 136 136t-136 136t-136 -136t136 -136z" />
    <glyph glyph-name="Zacute" unicode="&#x179;" horiz-adv-x="1608" 
d="M260 194l490 768h-238l-222 164v304h436l-112 82l-100 160l468 308l214 -158l158 -248q-105 -81 -256 -144h210l224 -166v-224l-490 -766h286l224 -166v-302h-1070l-222 164v224zM1092 1750l-118 186l-418 -274l72 -114q123 26 250 80.5t214 121.5zM910 1156l-620 -972
v-184h1008v244h-640l620 972v184h-958v-244h590z" />
    <glyph glyph-name="zacute" unicode="&#x17a;" horiz-adv-x="1608" 
d="M260 194l490 768h-238l-222 164v304h436l-112 82l-100 160l468 308l214 -158l158 -248q-105 -81 -256 -144h210l224 -166v-224l-490 -766h286l224 -166v-302h-1070l-222 164v224zM1092 1750l-118 186l-418 -274l72 -114q123 26 250 80.5t214 121.5zM910 1156l-620 -972
v-184h1008v244h-640l620 972v184h-958v-244h590z" />
    <glyph glyph-name="Zdotaccent" unicode="&#x17b;" horiz-adv-x="1608" 
d="M260 194l490 768h-238l-222 164v304h580l-166 124q-43 31 -59.5 66.5t-16.5 91.5q0 172 170 172q44 0 73 -10t67 -38l192 -142q37 -28 49.5 -60.5t12.5 -91.5q0 -71 -32 -112h148l224 -166v-224l-490 -766h286l224 -166v-302h-1070l-222 164v224zM938 1712
q0 142 -140 142t-140 -142t140 -142t140 142zM910 1156l-620 -972v-184h1008v244h-640l620 972v184h-958v-244h590z" />
    <glyph glyph-name="zdotaccent" unicode="&#x17c;" horiz-adv-x="1608" 
d="M260 194l490 768h-238l-222 164v304h580l-166 124q-43 31 -59.5 66.5t-16.5 91.5q0 172 170 172q44 0 73 -10t67 -38l192 -142q37 -28 49.5 -60.5t12.5 -91.5q0 -71 -32 -112h148l224 -166v-224l-490 -766h286l224 -166v-302h-1070l-222 164v224zM938 1712
q0 142 -140 142t-140 -142t140 -142t140 142zM910 1156l-620 -972v-184h1008v244h-640l620 972v184h-958v-244h590z" />
    <glyph glyph-name="Zcaron" unicode="&#x17d;" horiz-adv-x="1608" 
d="M750 1520q-75 54 -154.5 138t-145.5 176l138 130l90 -76l130 -98l208 174l230 -180l130 -122q-86 -123 -208 -232h140l224 -166v-224l-490 -766h286l224 -166v-302h-1070l-222 164v224l490 768h-238l-222 164v304h586zM760 1556h84q150 108 270 276l-98 92l-214 -178
l-214 178l-98 -92q120 -168 270 -276zM910 1156l-620 -972v-184h1008v244h-640l620 972v184h-958v-244h590z" />
    <glyph glyph-name="zcaron" unicode="&#x17e;" horiz-adv-x="1608" 
d="M750 1520q-75 54 -154.5 138t-145.5 176l138 130l90 -76l130 -98l208 174l230 -180l130 -122q-86 -123 -208 -232h140l224 -166v-224l-490 -766h286l224 -166v-302h-1070l-222 164v224l490 768h-238l-222 164v304h586zM760 1556h84q150 108 270 276l-98 92l-214 -178
l-214 178l-98 -92q120 -168 270 -276zM910 1156l-620 -972v-184h1008v244h-640l620 972v184h-958v-244h590z" />
    <glyph glyph-name="florin" unicode="&#x192;" horiz-adv-x="1506" 
d="M416 620h168l-42 -436q-9 -93 -41 -132.5t-91 -39.5q-60 0 -104 28l-86 -224q108 -48 240 -48q184 0 278 94.5t112 281.5l46 476h246v244h-222l14 144q9 93 41 132.5t91 39.5q60 0 104 -28l86 224q-108 48 -240 48q-184 0 -278 -94.5t-112 -281.5l-18 -184h-192v-244z
M386 590v304h194l16 156q20 193 125 298.5t295 105.5q146 0 278 -60l226 -166l-108 -282q-62 40 -116 40q-42 0 -67 -25.5t-35 -82.5l202 -150v-302h-248l-44 -454q-20 -198 -120 -298t-294 -100q-64 0 -148 18.5t-154 51.5l-206 154l110 288q69 -44 118 -44q46 0 70.5 31
t31.5 113l26 288z" />
    <glyph glyph-name="apostrophe" unicode="&#x2bc;" horiz-adv-x="1260" 
d="M802 1360q0 140 -138 140q-140 0 -140 -140q0 -118 98 -136q-7 -61 -50.5 -118.5t-113.5 -99.5l54 -82q137 68 213.5 181.5t76.5 254.5zM500 884l-86 130q69 36 114.5 85.5t57.5 102.5q-92 35 -92 158q0 170 170 170q42 0 72 -10t66 -36l182 -132q72 -53 72 -162
q0 -149 -86.5 -272t-243.5 -200z" />
    <glyph glyph-name="circumflex" unicode="&#x2c6;" horiz-adv-x="1260" 
d="M416 1058l-138 130q135 188 300 308h104l140 -102q121 -88 219.5 -186.5t162.5 -189.5l-134 -126l-230 168l-198 -168zM672 1466h-84q-150 -108 -270 -276l98 -92l214 178l214 -178l98 92q-120 168 -270 276z" />
    <glyph glyph-name="caron" unicode="&#x2c7;" horiz-adv-x="1260" 
d="M588 1108h84q150 108 270 276l-98 92l-214 -178l-214 178l-98 -92q120 -168 270 -276zM578 1072q-75 54 -154.5 138t-145.5 176l138 130l90 -76l130 -98l208 174l230 -180l130 -122q-132 -185 -294 -302h-108z" />
    <glyph glyph-name="uni02C9" unicode="&#x2c9;" horiz-adv-x="1260" 
d="M328 1354v-180h604v180h-604zM298 1144v240h664l224 -166v-238h-666z" />
    <glyph glyph-name="breve" unicode="&#x2d8;" horiz-adv-x="1260" 
d="M630 1112q121 0 209 70.5t119 199.5l-146 48q-53 -148 -182 -148t-182 148l-146 -48q31 -129 119 -199.5t209 -70.5zM466 1468l204 -150q78 25 124 150l202 -68l224 -166q-35 -152 -132 -234t-228 -82q-143 0 -252 80l-158 116q-72 53 -117.5 120.5t-68.5 165.5z" />
    <glyph glyph-name="dotaccent" unicode="&#x2d9;" horiz-adv-x="1260" 
d="M770 1264q0 142 -140 142t-140 -142t140 -142t140 142zM718 970l-182 136q-43 31 -59.5 66.5t-16.5 91.5q0 172 170 172q44 0 73 -10t67 -38l192 -142q37 -28 49.5 -60.5t12.5 -91.5q0 -166 -164 -166q-87 0 -142 42z" />
    <glyph glyph-name="ring" unicode="&#x2da;" horiz-adv-x="1260" 
d="M630 1182q-33 0 -56.5 24t-23.5 58t23.5 58t56.5 24t56.5 -24t23.5 -58t-23.5 -58t-56.5 -24zM630 1486q-99 0 -165.5 -64.5t-66.5 -157.5t66.5 -157.5t165.5 -64.5t165.5 64.5t66.5 157.5t-66.5 157.5t-165.5 64.5zM828 1442l174 -126q60 -44 87 -95.5t27 -124.5
q0 -104 -73.5 -175t-182.5 -71q-110 0 -186 58l-170 124q-67 50 -101.5 102t-34.5 130q0 107 75 179.5t187 72.5q57 0 102.5 -18.5t95.5 -55.5z" />
    <glyph glyph-name="ogonek" unicode="&#x2db;" horiz-adv-x="1260" 
d="M770 0h-238q-55 -45 -90.5 -109.5t-35.5 -132.5q0 -90 68 -143t188 -53q109 0 190 30l-44 170q-31 -20 -86 -20q-80 0 -80 68q0 43 29 85t99 105zM826 30l250 -166q-91 -77 -142 -134l116 -90l62 -232q-111 -40 -220 -40q-147 0 -242 72l-158 118q-60 45 -88 90t-28 110
q0 75 41.5 147.5t104.5 124.5h304z" />
    <glyph glyph-name="tilde" unicode="&#x2dc;" horiz-adv-x="1260" 
d="M290 1214l122 -70q28 46 49.5 64t50.5 18q38 0 100 -44q71 -50 138 -50q137 0 218 182l-122 70q-28 -46 -49.5 -64t-50.5 -18q-38 0 -100 44q-71 50 -138 50q-137 0 -218 -182zM250 1200q100 226 258 226q76 0 156 -56q53 -38 82 -38q19 0 37 19.5t51 72.5l174 -96
l226 -166q-101 -224 -254 -224q-74 0 -152 54q-54 40 -86 40q-22 0 -41.5 -19.5t-50.5 -70.5l-204 114z" />
    <glyph glyph-name="hungarumlaut" unicode="&#x2dd;" horiz-adv-x="1260" 
d="M470 942l-224 164l-100 158q75 109 187.5 214.5t222.5 167.5l216 -160l36 -58l158 104l214 -158l158 -248q-99 -77 -241 -138.5t-275 -87.5l-196 144zM1076 1302l-118 186l-418 -274l72 -114q123 26 250 80.5t214 121.5zM666 1420l-118 186q-99 -55 -199.5 -149.5
t-166.5 -192.5l72 -114z" />
    <glyph glyph-name="uni2010" unicode="&#x2010;" horiz-adv-x="1202" 
d="M310 572h582v244h-582v-244zM280 542v304h642l224 -166v-302h-644z" />
    <glyph glyph-name="figuredash" unicode="&#x2012;" horiz-adv-x="1684" 
d="M310 572h1064v244h-1064v-244zM1404 846l224 -166v-302h-1126l-222 164v304h1124z" />
    <glyph glyph-name="endash" unicode="&#x2013;" horiz-adv-x="1620" 
d="M310 572h1000v244h-1000v-244zM280 542v304h1060l224 -166v-302h-1062z" />
    <glyph glyph-name="emdash" unicode="&#x2014;" horiz-adv-x="2620" 
d="M310 572h2000v244h-2000v-244zM2340 846l224 -166v-302h-2062l-222 164v304h2060z" />
    <glyph glyph-name="afii00208" unicode="&#x2015;" horiz-adv-x="2260" 
d="M310 572h1640v244h-1640v-244zM280 542v304h1700l224 -166v-302h-1702z" />
    <glyph glyph-name="quoteleft" unicode="&#x2018;" horiz-adv-x="1100" 
d="M390 922q0 -162 160 -162t160 162q0 135 -112 156q9 71 58.5 136t129.5 114l-62 96q-157 -77 -245.5 -208.5t-88.5 -293.5zM606 624l-156 114q-48 35 -69 75t-21 109q0 171 99.5 312.5t276.5 227.5l214 -156l98 -156q-161 -98 -190 -200l48 -34q58 -41 58 -158
q0 -99 -45.5 -145.5t-138.5 -46.5q-53 0 -89.5 11t-84.5 47z" />
    <glyph glyph-name="quoteright" unicode="&#x2019;" horiz-adv-x="1100" 
d="M550 1424q-160 0 -160 -162q0 -135 112 -156q-9 -71 -59 -136t-129 -114l62 -96q157 77 245.5 208.5t88.5 293.5t-160 162zM870 1278q54 -40 74 -83.5t20 -102.5q0 -171 -100.5 -314t-277.5 -222l-222 166l-92 144q75 38 127 97.5t67 122.5q-56 21 -81 62.5t-25 113.5
q0 192 190 192q80 0 142 -44z" />
    <glyph glyph-name="quotesinglbase" unicode="&#x201a;" horiz-adv-x="1100" 
d="M550 300q-160 0 -160 -162q0 -135 112 -156q-9 -71 -59 -136t-129 -114l62 -96q157 77 245.5 208.5t88.5 293.5t-160 162zM870 154q54 -40 74 -83.5t20 -102.5q0 -171 -100.5 -314t-277.5 -222l-222 166l-92 144q75 38 127 97.5t67 122.5q-56 21 -81 62.5t-25 113.5
q0 192 190 192q80 0 142 -44z" />
    <glyph glyph-name="quotereversed" unicode="&#x201b;" horiz-adv-x="1100" 
d="M390 1262q0 -162 88.5 -293.5t245.5 -208.5l62 96q-80 49 -129.5 114t-58.5 136q112 21 112 156q0 162 -160 162t-160 -162zM706 1402l172 -130q86 -64 86 -180q0 -143 -110 -176q8 -35 32.5 -66t71.5 -74l96 -70l-92 -146q-153 86 -294 198q-147 89 -227.5 219.5
t-80.5 284.5q0 192 190 192q84 0 156 -52z" />
    <glyph glyph-name="quotedblleft" unicode="&#x201c;" horiz-adv-x="1540" 
d="M1046 624l-88 64q-27 -122 -178 -122q-53 0 -89.5 11t-84.5 47l-156 114q-48 35 -69 75t-21 109q0 171 99.5 312.5t276.5 227.5l214 -156l2 -6q88 94 224 162l214 -156l98 -156q-74 -45 -124 -101t-66 -113l48 -34q58 -41 58 -150q0 -186 -184 -186q-53 0 -89.5 11
t-84.5 47zM390 922q0 -162 160 -162t160 162q0 135 -112 156q9 71 58.5 136t129.5 114l-62 96q-157 -77 -245.5 -208.5t-88.5 -293.5zM830 922q0 -162 160 -162t160 162q0 135 -112 156q9 71 58.5 136t129.5 114l-62 96q-157 -77 -245.5 -208.5t-88.5 -293.5z" />
    <glyph glyph-name="quotedblright" unicode="&#x201d;" horiz-adv-x="1540" 
d="M364 722l-92 144q74 45 126.5 104.5t67.5 115.5q-58 16 -82 58.5t-24 117.5q0 192 190 192q80 0 142 -44l114 -84q27 128 184 128q80 0 142 -44l178 -132q54 -40 74 -83.5t20 -102.5q0 -171 -100.5 -314t-277.5 -222l-214 160q-91 -100 -226 -160zM550 1424
q-160 0 -160 -162q0 -135 112 -156q-9 -71 -59 -136t-129 -114l62 -96q157 77 245.5 208.5t88.5 293.5t-160 162zM990 1424q-160 0 -160 -162q0 -135 112 -156q-9 -71 -58.5 -136t-129.5 -114l62 -96q157 77 245.5 208.5t88.5 293.5t-160 162z" />
    <glyph glyph-name="quotedblbase" unicode="&#x201e;" horiz-adv-x="1540" 
d="M364 -402l-92 144q74 45 126.5 104.5t67.5 115.5q-58 16 -82 58.5t-24 117.5q0 192 190 192q80 0 142 -44l114 -84q27 128 184 128q80 0 142 -44l178 -132q54 -40 74 -83.5t20 -102.5q0 -171 -100.5 -314t-277.5 -222l-214 160q-96 -102 -226 -160zM550 300
q-160 0 -160 -162q0 -135 112 -156q-9 -71 -59 -136t-129 -114l62 -96q157 77 245.5 208.5t88.5 293.5t-160 162zM990 300q-160 0 -160 -162q0 -135 112 -156q-9 -71 -58.5 -136t-129.5 -114l62 -96q157 77 245.5 208.5t88.5 293.5t-160 162z" />
    <glyph glyph-name="uni201F" unicode="&#x201f;" horiz-adv-x="1540" 
d="M1146 1402l172 -130q86 -64 86 -180q0 -143 -110 -176q8 -35 32.5 -66t71.5 -74l96 -70l-92 -146q-153 86 -294 198q-123 73 -204 182q-22 -16 -50 -24q8 -35 32.5 -66t71.5 -74l96 -70l-92 -146q-153 86 -294 198q-147 89 -227.5 219.5t-80.5 284.5q0 192 190 192
q84 0 156 -52l100 -76q27 128 184 128q84 0 156 -52zM390 1262q0 -162 88.5 -293.5t245.5 -208.5l62 96q-80 49 -129.5 114t-58.5 136q112 21 112 156q0 162 -160 162t-160 -162zM830 1262q0 -162 88.5 -293.5t245.5 -208.5l62 96q-80 49 -129.5 114t-58.5 136
q112 21 112 156q0 162 -160 162t-160 -162z" />
    <glyph glyph-name="dagger" unicode="&#x2020;" horiz-adv-x="1496" 
d="M892 1096v318h-288v-318h-274v-244h274v-866h288v866h274v244h-274zM574 -44v702h-52l-222 164v304h274v318h348l224 -166v-152h50l224 -166v-302h-274v-866h-350z" />
    <glyph glyph-name="daggerdbl" unicode="&#x2021;" horiz-adv-x="1496" 
d="M892 -14v318h274v244h-274v304h274v244h-274v318h-288v-318h-274v-244h274v-304h-274v-244h274v-318h288zM300 822v304h274v318h348l224 -166v-152h50l224 -166v-302h-274v-80h50l224 -166v-302h-274v-318h-350l-222 164v154h-52l-222 164v304h274v80h-52z" />
    <glyph glyph-name="bullet" unicode="&#x2022;" horiz-adv-x="1124" 
d="M330 664q0 -112 60.5 -175t171.5 -63t171.5 63t60.5 175t-60.5 175t-171.5 63t-171.5 -63t-60.5 -175zM300 664q0 126 68 197t194 71q61 0 102.5 -15t93.5 -53l188 -138q102 -74 102 -232q0 -123 -66.5 -192.5t-189.5 -69.5q-112 0 -198 60l-176 128q-59 43 -88.5 100
t-29.5 144z" />
    <glyph glyph-name="onedotenleader" unicode="&#x2024;" horiz-adv-x="1100" 
d="M550 300q-160 0 -160 -162t160 -162t160 162t-160 162zM550 330q80 0 142 -44l178 -132q54 -40 74 -83.5t20 -102.5q0 -186 -184 -186q-51 0 -87.5 14.5t-86.5 49.5l-186 136q-60 46 -60 156q0 192 190 192z" />
    <glyph glyph-name="twodotenleader" unicode="&#x2025;" horiz-adv-x="1940" 
d="M550 300q-160 0 -160 -162t160 -162t160 162t-160 162zM550 330q80 0 142 -44l178 -132q54 -40 74 -83.5t20 -102.5q0 -186 -184 -186q-51 0 -87.5 14.5t-86.5 49.5l-186 136q-60 46 -60 156q0 192 190 192zM1390 300q-160 0 -160 -162t160 -162t160 162t-160 162z
M1390 330q80 0 142 -44l178 -132q54 -40 74 -83.5t20 -102.5q0 -186 -184 -186q-51 0 -87.5 14.5t-86.5 49.5l-186 136q-60 46 -60 156q0 192 190 192z" />
    <glyph glyph-name="ellipsis" unicode="&#x2026;" horiz-adv-x="2780" 
d="M550 300q-160 0 -160 -162t160 -162t160 162t-160 162zM550 330q80 0 142 -44l178 -132q54 -40 74 -83.5t20 -102.5q0 -186 -184 -186q-51 0 -87.5 14.5t-86.5 49.5l-186 136q-60 46 -60 156q0 192 190 192zM1390 300q-160 0 -160 -162t160 -162t160 162t-160 162z
M1390 330q80 0 142 -44l178 -132q54 -40 74 -83.5t20 -102.5q0 -186 -184 -186q-51 0 -87.5 14.5t-86.5 49.5l-186 136q-60 46 -60 156q0 192 190 192zM2230 300q-160 0 -160 -162t160 -162t160 162t-160 162zM2230 330q80 0 142 -44l178 -132q54 -40 74 -83.5t20 -102.5
q0 -186 -184 -186q-51 0 -87.5 14.5t-86.5 49.5l-186 136q-60 46 -60 156q0 192 190 192z" />
    <glyph glyph-name="perthousand" unicode="&#x2030;" horiz-adv-x="2778" 
d="M2444 544l202 -154q136 -102 136 -266q0 -139 -99 -233.5t-245 -94.5q-120 0 -230 78l-202 144q-33 -100 -122 -161t-204 -61q-120 0 -230 78l-190 136q-42 31 -70 58.5t-48 65.5l-230 -356l-440 292l346 538q-110 6 -208 78l-190 136q-42 31 -70 58.5t-48 65.5
q-42 75 -42 160q0 141 103.5 237.5t246.5 96.5q68 0 122 -20t114 -64l202 -154q60 -46 90 -96l228 356l212 -132l224 -166l-344 -536q69 -3 119 -21.5t109 -62.5l188 -144q36 101 128.5 164.5t205.5 63.5q127 0 236 -84zM930 1106q0 128 -94.5 216t-225.5 88t-225.5 -88
t-94.5 -216t94.5 -216t225.5 -88t225.5 88t94.5 216zM514 80l160 -100l862 1340l-160 100zM494 1106q0 50 34 84t82 34t82 -34t34 -84t-34 -84t-82 -34t-82 34t-34 84zM1770 294q0 128 -94.5 216t-225.5 88t-225.5 -88t-94.5 -216t94.5 -216t225.5 -88t225.5 88t94.5 216z
M1334 294q0 50 34 84t82 34t82 -34t34 -84t-34 -84t-82 -34t-82 34t-34 84zM2092 294q0 50 34 84t82 34t82 -34t34 -84t-34 -84t-82 -34t-82 34t-34 84zM2208 -10q131 0 225.5 88t94.5 216t-94.5 216t-225.5 88t-225.5 -88t-94.5 -216t94.5 -216t225.5 -88z" />
    <glyph glyph-name="minute" unicode="&#x2032;" horiz-adv-x="938" 
d="M402 1424l-132 -580l174 -40q77 115 137.5 265t86.5 297zM232 822l148 638l324 -70l224 -164q-29 -166 -94.5 -331.5t-147.5 -288.5l-234 54z" />
    <glyph glyph-name="second" unicode="&#x2033;" horiz-adv-x="1358" 
d="M232 822l148 638l324 -70l70 -52l26 110l324 -70l224 -164q-29 -166 -94.5 -331.5t-147.5 -288.5l-234 54l-114 82q-24 -48 -72 -124l-234 54zM402 1424l-132 -580l174 -40q77 115 137.5 265t86.5 297zM822 1412l-132 -580l174 -40q77 115 137.5 265t86.5 297z" />
    <glyph glyph-name="guilsinglleft" unicode="&#x2039;" horiz-adv-x="1006" 
d="M776 366l-326 328l326 328l-122 122l-424 -424v-52l424 -424zM654 204l-454 454v72l454 454l200 -146l184 -186l-326 -328l326 -328l-158 -158z" />
    <glyph glyph-name="guilsinglright" unicode="&#x203a;" horiz-adv-x="1006" 
d="M190 1022l162 162l200 -146l478 -480v-68l-452 -452l-226 166l-162 162l326 328l-160 162zM556 694l-326 -328l122 -122l424 424v52l-424 424l-122 -122z" />
    <glyph glyph-name="uni203E" unicode="&#x203e;" horiz-adv-x="1260" 
d="M318 1388v-198h624v198h-624zM288 1160v258h684l224 -166v-256h-686z" />
    <glyph glyph-name="fraction" unicode="&#x2044;" horiz-adv-x="1362" 
d="M170 80l160 -100l862 1340l-160 100zM128 70l894 1392l212 -132l224 -166l-890 -1386l-280 174z" />
    <glyph glyph-name="uni20A9" unicode="&#x20a9;" horiz-adv-x="2692" 
d="M914 468l-64 210h134zM1778 468l-72 210h136zM1660 814l-46 138h310l-42 -138h-222zM808 814l-42 138h312l-48 -138h-222zM436 1088h-206v-136h250l46 -138h-296v-136h342l226 -678h232l316 948l316 -948h232l226 678h342v136h-298l46 138h252v136h-206l104 312h-300
l-94 -312h-398l-106 312h-232l-106 -312h-398l-94 312h-300zM778 -30l-172 514h-184l-222 164v196h106l-106 78v196h194l-102 312h362l222 -164l46 -148h178l110 312h272l222 -164l50 -148h186l98 312h362l226 -166l-66 -194l156 -112v-200h-102l102 -74v-200h-348
l-228 -678h-276l-222 164l-156 466l-210 -630h-276z" />
    <glyph glyph-name="Euro" unicode="&#x20ac;" horiz-adv-x="1852" 
d="M422 640h-132v-136h154q42 -162 150.5 -283t257.5 -183t320 -62q229 0 380 78l-88 230q-117 -60 -286 -60q-140 0 -258 73t-172 207h426v136h-458q-4 20 -4 60q0 36 4 60h458v136h-426q51 130 161.5 205t252.5 75q180 0 292 -56l88 228q-169 76 -386 76q-252 0 -450 -144
t-262 -384h-154v-136h132q-2 -16 -2 -60t2 -60zM898 -58l-148 106q-90 64 -147 119.5t-105 132.5l-238 174v196h80l-80 60v196h162q47 160 156.5 280.5t258.5 184t319 63.5q232 0 424 -88l226 -166l-110 -284q-135 66 -304 66q-118 0 -214 -56h26l224 -166v-194h-78l78 -56
v-200h-414q6 -17 16 -34q75 -22 148 -22q164 0 302 72l220 -162l112 -292q-172 -90 -410 -90q-133 0 -268 44.5t-236 115.5z" />
    <glyph glyph-name="afii61289" unicode="&#x2113;" horiz-adv-x="1654" 
d="M692 808q0 176 51 272t133 96q60 0 98 -53t38 -155q0 -148 -68 -257.5t-220 -186.5q-32 134 -32 284zM1354 92l-88 230q-99 -108 -246 -108q-103 0 -180 80q476 219 476 658q0 210 -115 340t-307 130q-225 0 -365.5 -163.5t-140.5 -460.5q0 -194 62 -374
q-56 -15 -150 -32l90 -236q93 18 180 42q166 -222 426 -222q217 0 358 116zM908 -116l-148 108q-89 -22 -166 -36l-222 164l-112 294q94 17 150 32q-52 165 -52 352q0 157 40.5 282t112.5 206t169.5 123.5t213.5 42.5q93 0 166 -27t146 -81l158 -118q104 -76 155 -181
t51 -263q0 -145 -46 -261t-144 -217l106 -76l6 -4l120 -310q-157 -132 -386 -132q-178 0 -318 102z" />
    <glyph glyph-name="afii61352" unicode="&#x2116;" horiz-adv-x="2338" 
d="M1586 614q0 72 37.5 114t94.5 42t94.5 -42t37.5 -114t-37.5 -114t-94.5 -42t-94.5 42t-37.5 114zM2088 614q0 154 -105 253t-265 99t-265 -99t-105 -253t105 -253t265 -99t265 99t105 253zM2034 0v194h-632v-194h632zM370 1400v-1400h248v820l450 -820h172v1400h-248
v-818l-450 818h-172zM1494 224h226q-67 3 -127.5 21t-98.5 47v-68zM2014 892l172 -126q156 -116 156 -322q0 -97 -41 -176.5t-115 -129.5l102 -74v-258h-686l-108 78v-78h-224l-222 164l-176 322v-486h-310l-222 164v1460h222l218 -160l182 -334v494h308l224 -166v-328
q98 60 224 60q89 0 157.5 -26t138.5 -78z" />
    <glyph glyph-name="uni2117" unicode="&#x2117;" horiz-adv-x="2028" 
d="M758 -48l-162 118q-165 121 -250.5 273.5t-85.5 356.5q0 154 59.5 293.5t160.5 240.5t240.5 160.5t293.5 59.5q260 0 520 -188l146 -106q312 -225 312 -630q0 -153 -59 -291.5t-159 -238.5t-238.5 -159t-291.5 -59q-255 0 -486 170zM290 700q0 -197 97 -363.5
t263.5 -263.5t363.5 -97t363.5 97t263.5 263.5t97 363.5t-97 363.5t-263.5 263.5t-363.5 97t-363.5 -97t-263.5 -263.5t-97 -363.5zM402 700q0 169 82 312t223 225.5t307 82.5t307 -82.5t223 -225.5t82 -312t-82 -312t-223 -225.5t-307 -82.5t-307 82.5t-223 225.5t-82 312z
M968 512h50q144 0 229 73.5t85 196.5q0 122 -85 195t-229 73h-238v-726h188v188zM1292 992l166 -124q128 -97 128 -256q0 -13 -1 -19q11 57 11 107q0 218 -142 386q-110 40 -210 40q-113 0 -228 -46h2q155 0 274 -88zM750 294v558q-94 -147 -94 -322q0 -209 128 -372
q105 -48 230 -48q81 0 150 20h-192zM1144 782q0 -64 -37 -93t-97 -29h-42v242h42q134 0 134 -120zM1222 318v-170q107 42 191.5 123t130.5 187q-41 -67 -117.5 -103.5t-178.5 -36.5h-26z" />
    <glyph glyph-name="uni2120" unicode="&#x2120;" horiz-adv-x="1678" 
d="M704 1092q-29 0 -36 -14l50 -38l4 50q-6 2 -18 2zM1050 934h64l144 208l26 -366h150l-50 624h-94l-208 -294l-210 294h-94l-52 -624h152l28 366zM428 1042q48 -19 67 -39.5t19 -50.5q0 -28 -20.5 -43t-57.5 -15q-69 0 -140 44l-46 -122q81 -50 188 -50q108 0 167 50.5
t59 137.5q0 71 -39.5 119.5t-124.5 84.5q-53 23 -70.5 40t-17.5 40q0 20 16.5 33t45.5 13q61 0 110 -36l48 120q-75 44 -168 44t-147.5 -46.5t-54.5 -123.5q0 -72 39.5 -118.5t126.5 -81.5zM1472 584l-322 236l-20 -236h-214l-64 46q-65 -56 -184 -56q-138 0 -266 92
l-188 136l66 182q99 -60 156 -60q21 0 33.5 8t12.5 22q0 36 -74 66q-85 34 -130.5 84t-45.5 138q0 90 63 145t169 55q95 0 206 -62l72 -52l8 102h136l216 -158l30 -42l142 200h138l224 -162l54 -684h-218z" />
    <glyph glyph-name="trademark" unicode="&#x2122;" horiz-adv-x="1714" 
d="M200 1242v188h522l26 -20l2 20h136l216 -158l30 -42l142 200h138l224 -162l54 -684h-208l-332 244l-20 -244h-214l-128 92v-92h-208l-222 162v380zM388 1272v-496h146v496h158v128h-462v-128h158zM1050 934h64l144 208l26 -366h150l-50 624h-94l-208 -294l-210 294h-94
l-52 -624h152l28 366z" />
    <glyph glyph-name="Omega" unicode="&#x2126;" horiz-adv-x="2120" 
d="M1060 1424q-170 0 -313 -56.5t-237.5 -152.5t-147 -221.5t-52.5 -263.5q0 -292 224 -486h-184v-244h590v196q-157 70 -247.5 198.5t-90.5 305.5q0 201 127 338.5t331 137.5t331 -137.5t127 -338.5q0 -177 -90.5 -305.5t-247.5 -198.5v-196h590v244h-184q224 194 224 486
q0 138 -52.5 263.5t-147 221.5t-237.5 152.5t-313 56.5zM992 190l158 -116v142q157 70 247.5 193.5t90.5 290.5q0 149 -80 266q-58 16 -118 16q-129 0 -229 -61.5t-152.5 -164t-52.5 -226.5q0 -101 35 -196.5t101 -143.5zM1180 -52v-142h-638l-222 164v304h140
q-180 190 -180 456q0 144 54.5 275t153 231t247.5 159t325 59q171 0 305 -48.5t259 -141.5l122 -90q318 -235 318 -614q0 -226 -122 -386l82 -60v-308h-652z" />
    <glyph glyph-name="partialdiff" unicode="&#x2202;" horiz-adv-x="1708" 
d="M842 270v-22q161 46 214 298q-94 -19 -154 -91t-60 -185zM670 1094l-108 284q159 76 336 76q113 0 199 -30t169 -92l166 -124q107 -80 163.5 -219t56.5 -323q0 -414 -169 -649t-489 -235q-93 0 -183 28.5t-157 77.5l-172 126q-110 81 -166 184.5t-56 261.5
q0 230 147 381.5t379 166.5zM890 748q136 0 212 -88q-23 -235 -109.5 -342.5t-220.5 -107.5q-81 0 -132.5 60.5t-51.5 169.5q0 144 87.5 226t214.5 82zM872 1180q112 0 169 -60.5t67 -217.5q-92 80 -270 80q-239 0 -393.5 -147t-154.5 -375q0 -225 135 -354.5t339 -129.5
q308 0 471 228.5t163 631.5q0 286 -133 437t-367 151q-164 0 -298 -62l86 -226q85 44 186 44z" />
    <glyph glyph-name="Delta" unicode="&#x2206;" horiz-adv-x="1716" 
d="M1106 274l-104 256l-102 -256h206zM220 -30v238l502 1222h272l222 -162l504 -1232v-230h-1278zM1148 244h-580l290 732zM1466 0v200l-492 1200h-232l-492 -1200v-200h1216z" />
    <glyph glyph-name="product" unicode="&#x220f;" horiz-adv-x="2062" 
d="M1230 1156v-1156h288v1156h214v244h-1402v-244h214v-1156h288v1156h398zM1200 -30v992h-114v-1156h-350l-222 164v998l-214 158v304h1462l224 -166v-302h-214v-1156h-350z" />
    <glyph glyph-name="summation" unicode="&#x2211;" horiz-adv-x="1720" 
d="M1390 244h-670l310 352v128l-316 432h676v244h-1050v-200l402 -540l-402 -460v-200h1050v244zM310 -30v242l392 450l-392 528v240h1110l224 -166v-302h-652l292 -400v-146l-128 -142h264l224 -166v-302h-1112z" />
    <glyph glyph-name="minus" unicode="&#x2212;" horiz-adv-x="1668" 
d="M350 572h968v244h-968v-244zM320 542v304h1028l224 -166v-302h-1030z" />
    <glyph glyph-name="uni2215" unicode="&#x2215;" horiz-adv-x="1362" 
d="M170 80l160 -100l862 1340l-160 100zM128 70l894 1392l212 -132l224 -166l-890 -1386l-280 174z" />
    <glyph glyph-name="uni2219" unicode="&#x2219;" horiz-adv-x="1100" 
d="M550 856q-160 0 -160 -162t160 -162t160 162t-160 162zM550 886q80 0 142 -44l178 -132q54 -40 74 -83.5t20 -102.5q0 -186 -184 -186q-51 0 -87.5 14.5t-86.5 49.5l-186 136q-60 46 -60 156q0 192 190 192z" />
    <glyph glyph-name="radical" unicode="&#x221a;" horiz-adv-x="1666" 
d="M632 760h-342v-264h192l262 -496h222l400 1540l-246 52l-304 -1184zM724 -30l-176 332h-66l-222 164v324h392l192 -142l116 446l138 534l306 -66l224 -166l-412 -1590h-270z" />
    <glyph glyph-name="infinity" unicode="&#x221e;" horiz-adv-x="1816" 
d="M532 694q0 60 39 98t97 38t97 -38t39 -98t-39 -98t-97 -38t-97 38t-39 98zM1012 694q0 60 39 98t97 38t97 -38t39 -98t-39 -98t-97 -38t-97 38t-39 98zM1496 694q0 138 -98 231t-240 93q-76 0 -142 -29.5t-108 -80.5q-42 51 -108 80.5t-142 29.5q-142 0 -240 -93
t-98 -231t98 -231t240 -93q76 0 142 29.5t108 80.5q42 -51 108 -80.5t142 -29.5q142 0 240 93t98 231zM1602 822q69 -51 108.5 -131t39.5 -167q0 -149 -104.5 -248.5t-257.5 -99.5q-125 0 -220 72l-32 24q-90 -96 -248 -96q-65 0 -132.5 21t-113.5 55l-176 128
q-86 63 -131 137.5t-45 176.5q0 152 106 253t262 101q70 0 136 -26t114 -70q93 96 250 96q80 0 141.5 -24t126.5 -72z" />
    <glyph glyph-name="orthogonal" unicode="&#x221f;" horiz-adv-x="1666" 
d="M1426 0v246h-788v904h-288v-1150h1076zM320 -30v1210h348l224 -166v-738h564l224 -166v-304h-1138z" />
    <glyph glyph-name="intersection" unicode="&#x2229;" horiz-adv-x="1840" 
d="M920 1174q-251 0 -410.5 -157.5t-159.5 -404.5v-612h288v636q0 130 80 210t202 80t202 -80t80 -210v-636h288v612q0 247 -159.5 404.5t-410.5 157.5zM1172 -30v666q0 48 -16 96q-116 0 -190 -73t-74 -193v-660h-350l-222 164v642q0 261 168 426.5t432 165.5
q128 0 222.5 -33t189.5 -103l130 -96q282 -207 282 -530v-636h-350z" />
    <glyph glyph-name="integral" unicode="&#x222b;" horiz-adv-x="1444" 
d="M578 1076v-984q0 -162 -126 -162q-68 0 -116 24l-86 -224q101 -44 226 -44q196 0 293 109.5t97 320.5v984q0 162 126 162q68 0 116 -24l86 224q-101 44 -226 44q-196 0 -293 -109.5t-97 -320.5zM212 -288l108 284q72 -36 132 -36q96 0 96 132v984q0 226 104.5 343
t315.5 117q136 0 264 -56l226 -166l-108 -280q-71 34 -128 34q-102 0 -102 -138v-984q0 -223 -103 -338.5t-311 -115.5q-64 0 -143 17.5t-143 48.5z" />
    <glyph glyph-name="approxequal" unicode="&#x2248;" horiz-adv-x="1668" 
d="M1424 540l226 -166q-171 -296 -396 -296q-114 0 -212 76q-60 45 -92.5 64.5t-61.5 19.5q-40 0 -74.5 -35t-93.5 -127l-238 146l-238 168q114 197 254 264l-254 180q173 298 400 298q119 0 232 -90q45 -36 74.5 -53t59.5 -17q37 0 71 35.5t95 130.5l248 -154l226 -166
q-112 -195 -252 -262zM888 682q-43 0 -80 -40q24 -12 68 -44q45 -36 74.5 -53t59.5 -17q39 0 76 40q-33 21 -44 30q-60 45 -92.5 64.5t-61.5 19.5zM1024 716q213 0 360 258l-198 122q-56 -88 -91.5 -121t-84.5 -33q-35 0 -67 18t-85 60q-105 82 -214 82q-213 0 -360 -258
l198 -122q56 88 91.5 121t84.5 33q35 0 67 -18t85 -60q105 -82 214 -82zM1024 272q213 0 360 258l-198 122q-56 -88 -91.5 -121t-84.5 -33q-35 0 -67 18t-85 60q-105 82 -214 82q-213 0 -360 -258l198 -122q56 88 91.5 121t84.5 33q35 0 67 -18t85 -60q105 -82 214 -82z" />
    <glyph glyph-name="notequal" unicode="&#x2260;" horiz-adv-x="1668" 
d="M732 356h586v222h-454l138 230h316v222h-182l154 256l-148 86l-206 -342h-586v-222h452l-138 -230h-314v-222h182l-154 -256l148 -86zM1348 608l224 -166v-280h-596l-212 -350l-250 148l-178 130l96 154l-112 82v282h328l4 6h-110l-222 164v282h598l214 354l200 -118
l224 -166l-92 -152l108 -78v-286h-328l-4 -6h108z" />
    <glyph glyph-name="equivalence" unicode="&#x2261;" horiz-adv-x="1668" 
d="M320 940v282h1028l224 -166v-280h-146l146 -108v-280h-146l146 -108v-280h-1030l-222 164v282h142l-142 106v282h142zM350 970h968v222h-968v-222zM350 582h968v222h-968v-222zM350 194h968v222h-968v-222z" />
    <glyph glyph-name="lessequal" unicode="&#x2264;" horiz-adv-x="1668" 
d="M360 886v-112l848 -470l100 194l-588 332l588 332l-100 194zM1318 224h-968v-224h968v224zM330 754v152l890 492l220 -162l130 -254l-530 -300l308 -172l226 -166l-96 -184l94 -66v-288h-1030l-222 164v284h906z" />
    <glyph glyph-name="greaterequal" unicode="&#x2265;" horiz-adv-x="1668" 
d="M1308 774v112l-848 470l-100 -194l588 -332l-588 -332l100 -194zM1318 224h-968v-224h968v224zM320 -30v284h140l-12 8l-128 248l536 302l-340 194l-196 144l128 248l890 -492l224 -166v-152l-606 -334h392l224 -166v-282h-1030z" />
    <glyph glyph-name="house" unicode="&#x2302;" horiz-adv-x="1896" 
d="M912 524v-250h296v418l-76 84zM1034 1430l210 -154l536 -618v-852h-1218l-222 164v860l524 600h170zM1238 244h-580v460l290 332l290 -332v-460zM1526 0v818l-506 582h-142l-508 -582v-818h1156z" />
    <glyph glyph-name="revlogicalnot" unicode="&#x2310;" horiz-adv-x="1668" 
d="M280 322v654h1108l224 -166v-282h-784v-370h-326zM1358 722v224h-1048v-594h264v370h784z" />
    <glyph glyph-name="dollar.alt1" unicode="&#xe000;" horiz-adv-x="1494" 
d="M1122 1316l130 -94q186 -134 186 -382h-341l-183 134q-60 -25 -60 -96v-15q178 -78 260 -143l191 -149q93 -73 133.5 -156.5t40.5 -195.5q0 -168 -95 -280t-262 -144v-219h-284l-222 164v175l-107 76q-126 91 -179 186t-62 225h352l194 -143q38 4 63 36.5t25 76.5
q0 22 -5 37q-121 42 -242 129l-190 135q-78 56 -119 123q-68 110 -68 248q0 156 89.5 261t248.5 137v218h282l224 -166v-178zM646 -230h222v214q166 26 261 134.5t95 270.5q0 151 -82.5 252.5t-287.5 189.5q-147 63 -200.5 108.5t-53.5 108.5q0 56 36.5 92t105.5 36
q70 0 110 -39.5t40 -104.5h292q0 148 -86 247.5t-230 131.5v219h-222v-214q-158 -25 -248 -123.5t-90 -248.5q0 -156 86 -261.5t292 -190.5q142 -58 194 -105t52 -115q0 -67 -44 -107.5t-118 -40.5q-76 0 -123.5 37.5t-54.5 110.5h-292q10 -146 101 -250t245 -135v-217z" />
    <glyph glyph-name="two.alt1" unicode="&#xe003;" horiz-adv-x="1642" 
d="M1342 274l224 -166v-302h-1064l-222 164v230q227 151 492 404q103 100 148.5 182t45.5 168q0 12 -2 18q-55 -19 -88 -72.5t-36 -125.5h-354l-222 164q17 233 162 374.5t368 141.5q113 0 200 -33t172 -97l154 -112q110 -82 166 -187t56 -245q0 -142 -62.5 -259
t-195.5 -247h58zM792 1176q91 0 147.5 -63.5t56.5 -158.5q0 -98 -45 -180.5t-159 -191.5q-267 -255 -482 -398v-184h1002v244h-554q148 95 244 184q154 141 220 256.5t66 265.5q0 134 -60 241.5t-173 170t-261 62.5q-211 0 -347 -125t-151 -331h292q5 92 60 150t144 58z" />
    <glyph glyph-name="three.alt1" unicode="&#xe004;" horiz-adv-x="1658" 
d="M1402 552l58 -44q82 -61 112 -134t30 -164q0 -189 -152 -309.5t-402 -120.5q-115 0 -225.5 34t-194.5 94l-150 110q-214 158 -230 380h350l190 -144h22q96 0 152 35t62 93q-54 6 -122 6h-108l-222 166v282h-46l-222 166q15 202 157 327t363 125q216 0 378 -122l174 -130
q83 -62 134.5 -150.5t51.5 -195.5q0 -191 -160 -304zM810 224q-89 0 -157.5 40t-80.5 104h-292q15 -174 163.5 -283t374.5 -109q239 0 384.5 113.5t145.5 292.5q0 117 -69 204t-185 120q214 99 214 322q0 169 -138.5 282.5t-345.5 113.5t-340.5 -108.5t-147.5 -283.5h292
q12 65 65.5 104.5t126.5 39.5q80 0 138 -44t58 -128q0 -192 -340 -192h-74v-228h70q384 0 384 -188q0 -78 -65 -125t-181 -47z" />
    <glyph glyph-name="five.alt1" unicode="&#xe006;" horiz-adv-x="1662" 
d="M878 -24q127 0 228 37.5t165 103.5t97.5 153.5t33.5 189.5q0 211 -129.5 342.5t-324.5 131.5q-160 0 -262 -70v292h650v244h-938v-774h292q69 72 186 72q104 0 169 -65t65 -171q0 -108 -65 -173t-169 -65q-82 0 -142 38t-82 106h-292q15 -172 157 -282t361 -110zM672 398
l192 -144h12q91 0 147.5 56.5t56.5 151.5q0 12 -4 40q-89 -9 -146 -70h-340l-222 164v834h998l224 -166v-302h-592q85 -8 151.5 -38t144.5 -86l128 -94q113 -83 173.5 -201.5t60.5 -252.5q0 -108 -35 -199.5t-102 -161t-172.5 -108.5t-238.5 -39q-213 0 -408 136l-142 100
q-106 75 -163 165.5t-67 214.5h344z" />
    <glyph glyph-name="six.alt1" unicode="&#xe007;" horiz-adv-x="1710" 
d="M608 802q0 195 65 284.5t191 89.5q170 0 224 -144h292q-39 176 -173.5 284t-336.5 108q-242 0 -383 -148t-163 -436q-4 -76 -4 -132q0 -178 32 -306q54 -206 197 -316t353 -110q145 0 265 59t191.5 171.5t71.5 257.5q0 91 -27.5 170.5t-74.5 136t-109.5 97t-133.5 60.5
t-145 20q-108 0 -196.5 -41t-135.5 -105zM1250 1324l152 -114q187 -140 238 -374h-330q5 -8 182 -140q90 -68 141 -170t51 -234q0 -152 -74.5 -270t-200 -180t-277.5 -62q-232 0 -406 130l-146 108q-100 74 -162.5 161t-95.5 215q-32 128 -32 314q0 58 4 134
q22 302 170.5 457t405.5 155q117 0 204 -32t176 -98zM892 294q0 -28 2 -40q88 2 151 60.5t63 151.5q0 25 -6 46q-87 -5 -148.5 -65t-61.5 -153zM638 466q0 107 74 174.5t176 67.5t176 -67.5t74 -174.5t-74 -174.5t-176 -67.5t-176 67.5t-74 174.5z" />
    <glyph glyph-name="seven.alt1" unicode="&#xe008;" horiz-adv-x="1626" 
d="M320 1400v-448h288v204h426l-444 -1156h310l456 1216v184h-1036zM546 -30l302 788h-336l-222 164v508h1096l224 -166v-220l-464 -1238h-378zM862 962v-170l64 170h-64z" />
    <glyph glyph-name="nine.alt1" unicode="&#xe00a;" horiz-adv-x="1710" 
d="M1102 598q0 -195 -65 -284.5t-191 -89.5q-170 0 -224 144h-292q39 -176 173.5 -284t336.5 -108q242 0 383 148t163 436q4 76 4 132q0 178 -32 306q-54 206 -197 316t-353 110q-145 0 -265 -59t-191.5 -171.5t-71.5 -257.5q0 -91 27.5 -170.5t74.5 -136t109.5 -97
t133.5 -60.5t145 -20q108 0 196.5 41t135.5 105zM1072 934q0 -107 -74 -174.5t-176 -67.5t-176 67.5t-74 174.5t74 174.5t176 67.5t176 -67.5t74 -174.5zM684 -90l-146 106q-194 139 -246 382h322l-126 92q-115 85 -176.5 188.5t-61.5 257.5t75.5 273.5t202 182t280.5 62.5
q125 0 220 -33t190 -103l140 -102q191 -137 254 -382q32 -128 32 -312q0 -58 -4 -134q-22 -299 -169 -452.5t-401 -153.5q-210 0 -386 128zM1042 934q0 24 -6 48q-87 -5 -148.5 -65t-61.5 -153q0 -30 2 -42q88 2 151 60.5t63 151.5zM846 254q42 0 70 10q-114 15 -208 76
l114 -86h24z" />
    <glyph glyph-name="uniE00C" unicode="&#xe00b;" horiz-adv-x="1496" 
d="M502 838l-222 164q0 208 129.5 330t334.5 122q110 0 197 -33t169 -93l138 -102q192 -142 192 -368q0 -237 -214 -386q-68 -46 -92 -81.5t-24 -94.5v-90h-144l70 -52q54 -40 74 -83.5t20 -102.5q0 -186 -184 -186q-51 0 -87.5 14.5t-86.5 49.5l-186 136q-60 46 -60 156
q0 138 94 176l-74 56v120q0 115 39 189.5t133 140.5l24 18h-240zM894 1034q0 -73 -38 -127t-120 -111q-86 -61 -123 -130t-37 -176v-90h280v66q0 67 25.5 105.5t100.5 90.5q204 140 204 366q0 175 -121 285.5t-321 110.5q-191 0 -312.5 -106t-121.5 -286h292q0 66 39 105
t109 39q66 0 105 -41t39 -101zM716 300q-160 0 -160 -162t160 -162t160 162t-160 162z" />
    <glyph glyph-name="cent.alt1" unicode="&#xe00c;" horiz-adv-x="1738" 
d="M290 700q0 -222 139.5 -375t356.5 -185v-154h200v154q171 26 300 131t172 261h-282q-43 -86 -120 -132t-170 -46q-141 0 -232.5 97.5t-91.5 248.5t91.5 248.5t232.5 97.5q93 0 170 -46t120 -132h282q-43 155 -172 259.5t-300 130.5v156h-200v-156q-217 -32 -356.5 -184.5
t-139.5 -373.5zM1156 838q-4 8 -6 10q-20 4 -34 4q-131 0 -215.5 -90.5t-84.5 -231.5q0 -83 26 -144q14 -2 44 -2q84 0 155.5 46t114.5 132h342l226 -166q-45 -173 -180 -291.5t-304 -156.5v-156h-262l-222 164v86l-192 128q-149 99 -226.5 227t-77.5 303q0 227 139 385.5
t357 198.5v160h260l224 -166v-92q12 -8 102 -74l152 -118q175 -134 226 -320h-342z" />
    <glyph glyph-name="sterling.alt1" unicode="&#xe00d;" horiz-adv-x="1664" 
d="M1154 682h-398v350q0 63 38.5 103.5t101.5 40.5t101.5 -40.5t38.5 -103.5h292q0 116 -59.5 206.5t-157.5 138t-215 47.5q-194 0 -313 -114t-119 -294v-334h-154v-136h154v-64q0 -159 -146 -264v-218h1086v244h-748q100 94 100 268v34h398v136zM1220 1342l150 -112
q110 -83 161 -176.5t51 -215.5h-340l-176 130q-56 -31 -56 -106v-150h174l224 -166v-194h-398v-10q0 -28 -4 -68h428l224 -166v-302h-1148l-222 164v262q109 79 136 180l-144 104v196h154v304q0 193 127.5 315.5t334.5 122.5q175 0 324 -112z" />
    <glyph glyph-name="section.alt1" unicode="&#xe00e;" horiz-adv-x="1594" 
d="M716 770l-176 118q-103 69 -147.5 139.5t-44.5 174.5q0 153 119.5 246.5t306.5 93.5q184 0 344 -116l152 -112q164 -119 200 -318h-340l258 -190q72 -53 106 -115t34 -143q0 -132 -118 -230l-256 122q2 -2 14 -10l138 -104q90 -66 127 -137.5t37 -160.5q0 -150 -118 -242
t-302 -92q-194 0 -334 104l-152 112q-88 65 -143 143.5t-75 186.5h350l-54 36l-166 112q-62 42 -99.5 78.5t-62 91.5t-24.5 124q0 137 124 238l242 -116l226 -166q-17 -35 -24 -58q141 -43 240 -104l-160 120q18 39 20 58q-131 41 -242 116zM820 -112q173 0 284.5 85.5
t111.5 224.5q0 130 -87.5 213.5t-280.5 140.5q-134 39 -190 77.5t-56 90.5q0 34 14 68l-198 96q-98 -81 -98 -202q0 -59 18 -106.5t46.5 -80.5t78.5 -62t99 -49t124 -44q164 -54 206 -76t42 -64q0 -31 -33.5 -52.5t-84.5 -21.5q-58 0 -95 22.5t-45 61.5h-292
q28 -149 147.5 -235.5t288.5 -86.5zM774 1512q-173 0 -284.5 -85.5t-111.5 -224.5q0 -130 87.5 -213.5t280.5 -140.5q134 -39 190 -77.5t56 -90.5q0 -34 -14 -68l198 -96q98 81 98 202q0 59 -18 106.5t-46.5 80.5t-78.5 62t-99 49t-124 44q-164 54 -206 76t-42 64
q0 31 33.5 52.5t84.5 21.5q58 0 95 -22.5t45 -61.5h292q-28 149 -147.5 235.5t-288.5 86.5zM702 236l110 -80q31 0 52 6q-100 38 -162 74z" />
    <glyph glyph-name="copyright.alt1" unicode="&#xe00f;" horiz-adv-x="2028" 
d="M642 696q0 -162 110 -265t272 -103q130 0 231 71t135 187h-198q-22 -45 -67 -73.5t-101 -28.5q-83 0 -138.5 59.5t-55.5 152.5t55.5 152.5t138.5 59.5q56 0 101 -28.5t67 -73.5h198q-34 116 -135 187t-231 71q-162 0 -272 -103t-110 -265zM402 700q0 169 82 312
t223 225.5t307 82.5t307 -82.5t223 -225.5t82 -312t-82 -312t-223 -225.5t-307 -82.5t-307 82.5t-223 225.5t-82 312zM290 700q0 -197 97 -363.5t263.5 -263.5t363.5 -97t363.5 97t263.5 263.5t97 363.5t-97 363.5t-263.5 263.5t-363.5 97t-363.5 -97t-263.5 -263.5
t-97 -363.5zM1318 978l168 -134q74 -60 108 -112q-9 201 -140 354q-110 40 -210 40t-196 -34q137 -8 270 -114zM970 224l-162 120q-55 41 -91 78t-61 86q6 -195 128 -352q107 -46 230 -46q89 0 176 28q-115 9 -220 86zM1254 714q-73 0 -121.5 -52.5t-48.5 -135.5
q56 27 88 90h214zM1428 612l136 -102q19 54 24 102h-160zM758 -48l-162 118q-165 121 -250.5 273.5t-85.5 356.5q0 154 59.5 293.5t160.5 240.5t240.5 160.5t293.5 59.5q260 0 520 -188l146 -106q312 -225 312 -630q0 -153 -59 -291.5t-159 -238.5t-238.5 -159t-291.5 -59
q-255 0 -486 170z" />
    <glyph glyph-name="uniE012" unicode="&#xe010;" horiz-adv-x="1096" 
d="M550 1240q32 0 53 -24t21 -62q0 -85 -74 -164q-127 -132 -266 -224v-136h550v174h-238q51 35 116 100q60 63 87 121.5t27 128.5q0 115 -76 187.5t-198 72.5q-118 0 -193.5 -68.5t-86.5 -183.5h202q3 37 23.5 57.5t52.5 20.5zM254 600v182q104 69 220 176l-234 174
q6 144 92.5 228t219.5 84q69 0 121.5 -20.5t108.5 -61.5l172 -126q62 -45 94 -111.5t32 -140.5q0 -131 -96 -236l104 -74v-238h-612z" />
    <glyph glyph-name="uniE013" unicode="&#xe011;" horiz-adv-x="1096" 
d="M276 1198h200q17 44 74 44q32 0 53 -17.5t21 -46.5q0 -82 -140 -82h-60v-162h58q92 0 128 -19t36 -59q0 -32 -26 -52t-76 -20q-74 0 -98 48h-200q9 -96 93.5 -156t208.5 -60q132 0 215 61.5t83 162.5q0 65 -38 112.5t-102 65.5q55 22 86.5 67.5t31.5 102.5
q0 98 -73.5 162t-198.5 64q-109 0 -188 -58.5t-88 -157.5zM1100 668q0 -112 -90 -180t-232 -68q-139 0 -270 96l-142 106q-69 52 -107.5 108.5t-44.5 131.5h236l-56 42v152l-150 112q12 127 99.5 201.5t208.5 74.5q76 0 130.5 -20.5t107.5 -59.5l160 -118q66 -48 97 -103
t31 -127q0 -90 -84 -154q56 -37 81 -83.5t25 -110.5z" />
    <glyph glyph-name="onehalf.alt1" unicode="&#xe014;" horiz-adv-x="2164" 
d="M554 80l160 -100l862 1340l-160 100zM366 1064l136 108v-542h200v770h-180l-262 -194zM1616 610q32 0 53 -24t21 -62q0 -85 -74 -164q-127 -132 -266 -224v-136h550v174h-238q51 35 116 100q60 63 87 121.5t27 128.5q0 115 -76 187.5t-198 72.5q-118 0 -193.5 -68.5
t-86.5 -183.5h202q3 37 23.5 57.5t52.5 20.5zM1320 -30v182q104 69 220 176l-160 118l-428 -668l-280 174l-160 118l234 366h-52l-222 164v340l-112 82l-142 192l294 216h220l224 -166v-504l450 702l212 -132l224 -166l-226 -350q71 0 123.5 -20.5t108.5 -61.5l172 -126
q62 -45 94 -111.5t32 -140.5q0 -131 -96 -236l104 -74v-238h-612z" />
    <glyph glyph-name="threequarters.alt1" unicode="&#xe015;" horiz-adv-x="2164" 
d="M554 80l160 -100l862 1340l-160 100zM1504 292l148 424l-196 60l-192 -524v-134h366v-118h190v118h84v174h-84v164h-190v-164h-126zM276 1198h200q17 44 74 44q32 0 53 -17.5t21 -46.5q0 -82 -140 -82h-60v-162h58q92 0 128 -19t36 -59q0 -32 -26 -52t-76 -20
q-74 0 -98 48h-200q9 -96 93.5 -156t208.5 -60q132 0 215 61.5t83 162.5q0 65 -38 112.5t-102 65.5q55 22 86.5 67.5t31.5 102.5q0 98 -73.5 162t-198.5 64q-109 0 -188 -58.5t-88 -157.5zM512 70l226 352q-116 12 -230 94l-142 106q-69 52 -107.5 108.5t-44.5 131.5h236
l-56 42v152l-150 112q12 127 99.5 201.5t208.5 74.5q76 0 130.5 -20.5t107.5 -59.5l160 -118q66 -48 97 -103t31 -127q0 -90 -84 -154l18 -12l394 612l212 -132l224 -166l-256 -398l104 -30l226 -166l-38 -104l196 -140v-104l84 -60v-238h-84v-118h-244l-6 4l-160 114h-208
l-222 164v128l-282 -438l-280 174z" />
    <glyph glyph-name="questiondown.alt1" unicode="&#xe016;" horiz-adv-x="1496" 
d="M780 1454q80 0 142 -44l178 -132q54 -40 74 -83.5t20 -102.5q0 -135 -96 -172l76 -56v-124q0 -113 -39 -187t-131 -139q-16 -12 -22 -16h234l224 -166q0 -212 -127 -331t-331 -119q-200 0 -384 134l-112 82q-101 75 -153.5 164t-52.5 210q0 242 216 390q66 45 90 80
t24 92v96h144l-104 76q-60 46 -60 156q0 192 190 192zM602 366q0 73 38 127t120 111q86 61 123 130t37 176v90h-280v-66q0 -67 -25.5 -105.5t-100.5 -90.5q-204 -140 -204 -366q0 -175 121 -285.5t321 -110.5q191 0 312.5 106t121.5 286h-292q0 -66 -39 -105t-109 -39
q-66 0 -105 41t-39 101zM780 1424q-160 0 -160 -162t160 -162t160 162t-160 162z" />
    <glyph glyph-name="germandbls.alt1" unicode="&#xe017;" horiz-adv-x="1706" 
d="M736 274v-244q140 -54 284 -54q201 0 313.5 84.5t112.5 239.5q0 113 -86.5 208.5t-221.5 143.5q98 49 155 132.5t57 197.5q0 193 -138.5 317.5t-351.5 124.5q-244 0 -372 -146t-128 -426v-852h288v912q0 131 54.5 199.5t157.5 68.5q89 0 143.5 -58.5t54.5 -147.5
q0 -87 -55 -153t-151 -101v-168q130 -15 216 -75.5t86 -142.5q0 -54 -40.5 -84t-121.5 -30q-136 0 -256 54zM902 474v-216q43 -8 90 -8q132 0 132 84q0 8 -2 14q-20 4 -64 12zM1028 976q-117 -35 -126 -198q126 78 126 198zM1250 -218q-153 0 -306 58l-42 30v-64h-350
l-222 164v882q0 295 135.5 448.5t394.5 153.5q205 0 374 -124l138 -102q232 -172 232 -416q0 -201 -170 -318q34 -20 98 -68q168 -134 168 -296q0 -167 -119 -257.5t-331 -90.5z" />
    <glyph glyph-name="Euro.alt1" unicode="&#xe018;" horiz-adv-x="2120" 
d="M1140 254q114 0 208 56h-362q15 -29 20 -36q60 -20 134 -20zM1144 640h-460q-2 18 -2 60q0 40 2 60h460v136h-426q54 130 168 205t254 75q133 0 244 -69.5t168 -190.5h308q-67 231 -265.5 369.5t-454.5 138.5q-262 0 -462 -144.5t-264 -383.5h-154v-136h132
q-2 -20 -2 -60t2 -60h-132v-136h154q64 -240 263.5 -384t462.5 -144q256 0 454.5 138.5t265.5 369.5h-308q-57 -121 -168 -190.5t-244 -69.5q-140 0 -254 75t-168 205h426v136zM1532 886q-19 38 -48 80q-58 16 -114 16q-118 0 -218 -56h22l224 -166v-194h-78l78 -56v-166
q87 68 134 170h368l226 -166q-48 -168 -161 -297t-267.5 -199t-327.5 -70q-271 0 -482 148l-196 138q-148 105 -230 242h-10l-222 164v196h80l-80 60v196h162q72 239 277 383.5t471 144.5q288 0 506 -166l162 -124q252 -192 314 -442h-368z" />
    <glyph glyph-name="uni2120.alt1" unicode="&#xe019;" horiz-adv-x="1678" 
d="M460 766q95 0 149.5 51t54.5 127q0 69 -36 119.5t-118 88.5q-65 29 -84.5 46t-19.5 42q0 18 12 31t32 13t33 -13.5t13 -34.5h150q0 77 -55.5 126.5t-138.5 49.5q-89 0 -142.5 -49.5t-53.5 -124.5q0 -65 39 -110.5t131 -87.5q88 -42 88 -96q0 -21 -14.5 -34.5t-35.5 -13.5
q-51 0 -62 48h-150q6 -87 65.5 -132.5t142.5 -45.5zM930 584l-70 50q-67 -60 -170 -60q-76 0 -164 58l-196 130q-53 34 -79.5 83t-30.5 129h208l52 -40q4 4 4 10q0 8 -4 12l-106 76q-148 86 -148 206q0 89 61.5 146.5t164.5 57.5q78 0 164 -62l122 -90l12 140h136l216 -158
l30 -42l142 200h138l224 -162l54 -684h-208l-332 244l-20 -244h-200zM1050 934h64l144 208l26 -366h150l-50 624h-94l-208 -294l-210 294h-94l-52 -624h152l28 366z" />
    <glyph glyph-name=".notdef.001" horiz-adv-x="1260" 
d="M1030 0h-800v1500h800v-1500zM370 130h520v1240h-520v-1240z" />
    </font>
</defs>
</svg>
