<?xml version="1.0" encoding="UTF-8" standalone="no"?>
<svg width="300px" height="300px" viewBox="0 0 300 300" version="1.1" xmlns="http://www.w3.org/2000/svg" xmlns:xlink="http://www.w3.org/1999/xlink">
    <!-- Generator: Sketch 39.1 (31720) - http://www.bohemiancoding.com/sketch -->
    <title>bw-logo</title>
    <desc>Created with Sketch.</desc>
    <defs></defs>
    <g id="Page-1" stroke="none" stroke-width="1" fill="none" fill-rule="evenodd">
        <g id="bw-logo" fill="#3B3B3B">
            <path d="M87.8198315,159.285714 L87.8198315,217.5 L132.132153,217.5 C159.291318,217.5 169.297326,206.785714 169.297326,188.571429 C169.297326,170.357143 159.291318,159.285714 132.132153,159.285714 L87.8198315,159.285714 Z M159.648675,84.6428571 C159.648675,64.6428571 149.28531,53.2142857 121.41143,53.2142857 L87.8198315,53.2142857 L87.8198315,116.428571 L121.41143,116.428571 C149.28531,116.428571 159.648675,104.642857 159.648675,84.6428571 L159.648675,84.6428571 Z M36.3603615,10.3571429 L123.198217,10.3571429 C179.660691,10.3571429 211.108145,41.0714286 211.108145,81.7857143 C211.108145,101.785714 200.74478,124.285714 179.303334,133.928571 C205.033069,141.785714 222.543583,164.285714 222.543583,190.714286 C222.543583,236.071429 193.954988,260.357143 127.843864,260.357143 L36.3603615,260.357143 L36.3603615,10.3571429 Z M31,265.714286 L70.6666748,295 L168.939968,295 C237.909952,295 267.927977,269.285714 267.927977,221.071429 C267.927977,200.714286 257.921969,181.785714 242.555599,170.714286 L231.477519,162.857143 C246.486531,150.357143 256.492539,129.642857 256.492539,112.142857 C256.492539,88.5714286 247.201246,67.1428571 228.618659,53.2142857 L191.810844,25.7142857 C174.657687,12.8571429 152.144169,5 123.198217,5 L31,5 L31,265.714286 Z M133.204225,193.928571 L163.579607,193.928571 C161.435462,205.357143 152.501527,212.142857 133.204225,212.142857 L133.204225,193.928571 Z M133.204225,87.8571429 L154.288314,87.8571429 C153.216241,99.6428571 147.141165,107.5 133.204225,110 L133.204225,87.8571429 Z" id="B"></path>
        </g>
    </g>
</svg>