<?xml version="1.0" standalone="no"?>
<!DOCTYPE svg PUBLIC "-//W3C//DTD SVG 20010904//EN"
 "http://www.w3.org/TR/2001/REC-SVG-20010904/DTD/svg10.dtd">
<svg version="1.0" xmlns="http://www.w3.org/2000/svg"
 width="240.000000pt" height="240.000000pt" viewBox="0 0 240.000000 240.000000"
 preserveAspectRatio="xMidYMid meet">
<metadata>
Created by potrace 1.11, written by Peter Selinger 2001-2013
</metadata>
<g transform="translate(0.000000,240.000000) scale(0.100000,-0.100000)"
fill="#000000" stroke="none">
<path d="M500 1195 l0 -955 358 0 c380 0 489 9 607 50 125 43 222 134 265 247
32 86 46 227 32 323 -15 106 -44 161 -130 252 l-74 77 51 50 c79 77 104 141
109 276 5 136 -12 224 -66 337 -61 130 -147 199 -322 256 -106 35 -188 42
-517 42 l-313 0 0 -955z m718 915 c188 -31 304 -122 352 -277 28 -92 28 -280
0 -356 -26 -69 -79 -131 -146 -169 -30 -16 -54 -32 -54 -34 0 -2 27 -17 60
-34 151 -76 210 -181 210 -370 -1 -166 -42 -281 -130 -364 -58 -55 -110 -81
-208 -108 -69 -19 -112 -21 -424 -26 l-348 -4 0 876 0 876 313 0 c171 0 340
-5 375 -10z"/>
<path d="M780 1640 l0 -262 188 4 c143 3 195 8 222 20 95 43 140 118 140 233
0 90 -14 137 -52 181 -63 71 -90 79 -305 82 l-193 4 0 -262z m441 130 c30 -6
60 -18 67 -27 17 -23 16 -175 -2 -217 -17 -41 -75 -90 -125 -105 -21 -6 -86
-11 -145 -11 l-106 0 0 185 0 185 129 0 c70 0 153 -5 182 -10z"/>
<path d="M782 878 l3 -283 185 0 c117 1 201 5 227 13 61 18 123 70 152 127 22
42 26 63 26 135 0 105 -21 165 -75 214 -72 64 -93 69 -318 74 l-202 4 2 -284z
m518 134 c40 -20 48 -41 49 -132 1 -92 -14 -138 -63 -186 -56 -57 -118 -74
-263 -74 l-113 0 0 205 0 205 178 0 c149 0 183 -3 212 -18z"/>
<path d="M1751 426 c-87 -48 -50 -186 49 -186 51 0 100 49 100 99 0 75 -83
124 -149 87z m89 -46 c11 -11 20 -29 20 -40 0 -26 -34 -60 -60 -60 -11 0 -29
9 -40 20 -11 11 -20 29 -20 40 0 11 9 29 20 40 11 11 29 20 40 20 11 0 29 -9
40 -20z"/>
</g>
</svg>
