<?xml version="1.0" standalone="no"?>
<!DOCTYPE svg PUBLIC "-//W3C//DTD SVG 20010904//EN"
 "http://www.w3.org/TR/2001/REC-SVG-20010904/DTD/svg10.dtd">
<svg version="1.0" xmlns="http://www.w3.org/2000/svg"
 width="300.000000pt" height="300.000000pt" viewBox="0 0 300.000000 300.000000"
 preserveAspectRatio="xMidYMid meet">
<metadata>
Created by potrace 1.11, written by Peter Selinger 2001-2013
</metadata>
<g transform="translate(0.000000,300.000000) scale(0.100000,-0.100000)"
fill="#000000" stroke="none">
<path d="M310 1647 l0 -1305 200 -147 200 -146 612 4 c643 4 662 6 843 54 84
22 231 94 288 142 139 116 211 272 223 486 14 238 -85 441 -284 581 -37 26
-69 49 -71 51 -3 2 16 25 41 51 88 92 151 203 183 324 27 104 18 275 -22 391
-65 185 -123 250 -429 478 -296 221 -360 256 -564 306 l-105 26 -557 4 -558 4
0 -1304z m1037 1243 c150 -13 264 -44 382 -101 87 -43 116 -63 185 -132 88
-88 128 -154 167 -272 32 -94 34 -291 5 -375 -48 -140 -140 -263 -238 -319
l-49 -28 87 -42 c70 -33 102 -57 163 -119 126 -126 172 -240 172 -417 0 -397
-228 -618 -696 -674 -54 -7 -308 -11 -627 -11 l-538 0 0 1243 c0 684 3 1247 7
1250 10 10 863 8 980 -3z"/>
<path d="M880 2155 l0 -317 243 4 c223 3 246 5 299 26 72 29 139 100 159 169
7 26 13 85 13 130 -1 70 -6 91 -30 140 -19 37 -45 70 -72 90 -75 57 -121 65
-379 70 l-233 5 0 -317z m660 -55 c0 -79 -86 -171 -182 -194 l-28 -6 0 110 0
110 105 0 c99 0 105 -1 105 -20z"/>
<path d="M880 1120 l0 -290 278 0 c346 0 399 11 475 101 44 51 61 117 55 213
-10 150 -93 231 -264 256 -38 5 -176 10 -306 10 l-238 0 0 -290z m750 -77 c0
-27 -34 -78 -72 -106 -37 -29 -132 -57 -190 -57 l-38 0 0 90 0 90 150 0 c136
0 150 -2 150 -17z"/>
</g>
</svg>
